%TF.GenerationSoftware,KiCad,Pcbnew,(5.1.10)-1*%
%TF.CreationDate,2021-07-16T14:20:34-05:00*%
%TF.ProjectId,transmisor,7472616e-736d-4697-936f-722e6b696361,rev?*%
%TF.SameCoordinates,Original*%
%TF.FileFunction,Paste,Top*%
%TF.FilePolarity,Positive*%
%FSLAX46Y46*%
G04 Gerber Fmt 4.6, Leading zero omitted, Abs format (unit mm)*
G04 Created by KiCad (PCBNEW (5.1.10)-1) date 2021-07-16 14:20:34*
%MOMM*%
%LPD*%
G01*
G04 APERTURE LIST*
%ADD10R,1.900000X1.500000*%
%ADD11R,1.350000X0.400000*%
%ADD12R,1.060000X0.650000*%
%ADD13R,0.900000X0.800000*%
%ADD14R,1.400000X1.200000*%
G04 APERTURE END LIST*
%TO.C,C21*%
G36*
G01*
X104503400Y-74977600D02*
X104843400Y-74977600D01*
G75*
G02*
X104983400Y-75117600I0J-140000D01*
G01*
X104983400Y-75397600D01*
G75*
G02*
X104843400Y-75537600I-140000J0D01*
G01*
X104503400Y-75537600D01*
G75*
G02*
X104363400Y-75397600I0J140000D01*
G01*
X104363400Y-75117600D01*
G75*
G02*
X104503400Y-74977600I140000J0D01*
G01*
G37*
G36*
G01*
X104503400Y-74017600D02*
X104843400Y-74017600D01*
G75*
G02*
X104983400Y-74157600I0J-140000D01*
G01*
X104983400Y-74437600D01*
G75*
G02*
X104843400Y-74577600I-140000J0D01*
G01*
X104503400Y-74577600D01*
G75*
G02*
X104363400Y-74437600I0J140000D01*
G01*
X104363400Y-74157600D01*
G75*
G02*
X104503400Y-74017600I140000J0D01*
G01*
G37*
%TD*%
%TO.C,D2*%
G36*
G01*
X108303350Y-63951700D02*
X108815850Y-63951700D01*
G75*
G02*
X109034600Y-64170450I0J-218750D01*
G01*
X109034600Y-64607950D01*
G75*
G02*
X108815850Y-64826700I-218750J0D01*
G01*
X108303350Y-64826700D01*
G75*
G02*
X108084600Y-64607950I0J218750D01*
G01*
X108084600Y-64170450D01*
G75*
G02*
X108303350Y-63951700I218750J0D01*
G01*
G37*
G36*
G01*
X108303350Y-62376700D02*
X108815850Y-62376700D01*
G75*
G02*
X109034600Y-62595450I0J-218750D01*
G01*
X109034600Y-63032950D01*
G75*
G02*
X108815850Y-63251700I-218750J0D01*
G01*
X108303350Y-63251700D01*
G75*
G02*
X108084600Y-63032950I0J218750D01*
G01*
X108084600Y-62595450D01*
G75*
G02*
X108303350Y-62376700I218750J0D01*
G01*
G37*
%TD*%
%TO.C,D1*%
G36*
G01*
X94558600Y-77294450D02*
X94558600Y-76781950D01*
G75*
G02*
X94777350Y-76563200I218750J0D01*
G01*
X95214850Y-76563200D01*
G75*
G02*
X95433600Y-76781950I0J-218750D01*
G01*
X95433600Y-77294450D01*
G75*
G02*
X95214850Y-77513200I-218750J0D01*
G01*
X94777350Y-77513200D01*
G75*
G02*
X94558600Y-77294450I0J218750D01*
G01*
G37*
G36*
G01*
X92983600Y-77294450D02*
X92983600Y-76781950D01*
G75*
G02*
X93202350Y-76563200I218750J0D01*
G01*
X93639850Y-76563200D01*
G75*
G02*
X93858600Y-76781950I0J-218750D01*
G01*
X93858600Y-77294450D01*
G75*
G02*
X93639850Y-77513200I-218750J0D01*
G01*
X93202350Y-77513200D01*
G75*
G02*
X92983600Y-77294450I0J218750D01*
G01*
G37*
%TD*%
%TO.C,U6*%
G36*
G01*
X111784400Y-64802000D02*
X111784400Y-64952000D01*
G75*
G02*
X111709400Y-65027000I-75000J0D01*
G01*
X111009400Y-65027000D01*
G75*
G02*
X110934400Y-64952000I0J75000D01*
G01*
X110934400Y-64802000D01*
G75*
G02*
X111009400Y-64727000I75000J0D01*
G01*
X111709400Y-64727000D01*
G75*
G02*
X111784400Y-64802000I0J-75000D01*
G01*
G37*
G36*
G01*
X111784400Y-64302000D02*
X111784400Y-64452000D01*
G75*
G02*
X111709400Y-64527000I-75000J0D01*
G01*
X111009400Y-64527000D01*
G75*
G02*
X110934400Y-64452000I0J75000D01*
G01*
X110934400Y-64302000D01*
G75*
G02*
X111009400Y-64227000I75000J0D01*
G01*
X111709400Y-64227000D01*
G75*
G02*
X111784400Y-64302000I0J-75000D01*
G01*
G37*
G36*
G01*
X111784400Y-63802000D02*
X111784400Y-63952000D01*
G75*
G02*
X111709400Y-64027000I-75000J0D01*
G01*
X111009400Y-64027000D01*
G75*
G02*
X110934400Y-63952000I0J75000D01*
G01*
X110934400Y-63802000D01*
G75*
G02*
X111009400Y-63727000I75000J0D01*
G01*
X111709400Y-63727000D01*
G75*
G02*
X111784400Y-63802000I0J-75000D01*
G01*
G37*
G36*
G01*
X111784400Y-63302000D02*
X111784400Y-63452000D01*
G75*
G02*
X111709400Y-63527000I-75000J0D01*
G01*
X111009400Y-63527000D01*
G75*
G02*
X110934400Y-63452000I0J75000D01*
G01*
X110934400Y-63302000D01*
G75*
G02*
X111009400Y-63227000I75000J0D01*
G01*
X111709400Y-63227000D01*
G75*
G02*
X111784400Y-63302000I0J-75000D01*
G01*
G37*
G36*
G01*
X111784400Y-62802000D02*
X111784400Y-62952000D01*
G75*
G02*
X111709400Y-63027000I-75000J0D01*
G01*
X111009400Y-63027000D01*
G75*
G02*
X110934400Y-62952000I0J75000D01*
G01*
X110934400Y-62802000D01*
G75*
G02*
X111009400Y-62727000I75000J0D01*
G01*
X111709400Y-62727000D01*
G75*
G02*
X111784400Y-62802000I0J-75000D01*
G01*
G37*
G36*
G01*
X111784400Y-62302000D02*
X111784400Y-62452000D01*
G75*
G02*
X111709400Y-62527000I-75000J0D01*
G01*
X111009400Y-62527000D01*
G75*
G02*
X110934400Y-62452000I0J75000D01*
G01*
X110934400Y-62302000D01*
G75*
G02*
X111009400Y-62227000I75000J0D01*
G01*
X111709400Y-62227000D01*
G75*
G02*
X111784400Y-62302000I0J-75000D01*
G01*
G37*
G36*
G01*
X112134400Y-62102000D02*
X111984400Y-62102000D01*
G75*
G02*
X111909400Y-62027000I0J75000D01*
G01*
X111909400Y-61327000D01*
G75*
G02*
X111984400Y-61252000I75000J0D01*
G01*
X112134400Y-61252000D01*
G75*
G02*
X112209400Y-61327000I0J-75000D01*
G01*
X112209400Y-62027000D01*
G75*
G02*
X112134400Y-62102000I-75000J0D01*
G01*
G37*
G36*
G01*
X112634400Y-62102000D02*
X112484400Y-62102000D01*
G75*
G02*
X112409400Y-62027000I0J75000D01*
G01*
X112409400Y-61327000D01*
G75*
G02*
X112484400Y-61252000I75000J0D01*
G01*
X112634400Y-61252000D01*
G75*
G02*
X112709400Y-61327000I0J-75000D01*
G01*
X112709400Y-62027000D01*
G75*
G02*
X112634400Y-62102000I-75000J0D01*
G01*
G37*
G36*
G01*
X113134400Y-62102000D02*
X112984400Y-62102000D01*
G75*
G02*
X112909400Y-62027000I0J75000D01*
G01*
X112909400Y-61327000D01*
G75*
G02*
X112984400Y-61252000I75000J0D01*
G01*
X113134400Y-61252000D01*
G75*
G02*
X113209400Y-61327000I0J-75000D01*
G01*
X113209400Y-62027000D01*
G75*
G02*
X113134400Y-62102000I-75000J0D01*
G01*
G37*
G36*
G01*
X113634400Y-62102000D02*
X113484400Y-62102000D01*
G75*
G02*
X113409400Y-62027000I0J75000D01*
G01*
X113409400Y-61327000D01*
G75*
G02*
X113484400Y-61252000I75000J0D01*
G01*
X113634400Y-61252000D01*
G75*
G02*
X113709400Y-61327000I0J-75000D01*
G01*
X113709400Y-62027000D01*
G75*
G02*
X113634400Y-62102000I-75000J0D01*
G01*
G37*
G36*
G01*
X114134400Y-62102000D02*
X113984400Y-62102000D01*
G75*
G02*
X113909400Y-62027000I0J75000D01*
G01*
X113909400Y-61327000D01*
G75*
G02*
X113984400Y-61252000I75000J0D01*
G01*
X114134400Y-61252000D01*
G75*
G02*
X114209400Y-61327000I0J-75000D01*
G01*
X114209400Y-62027000D01*
G75*
G02*
X114134400Y-62102000I-75000J0D01*
G01*
G37*
G36*
G01*
X114634400Y-62102000D02*
X114484400Y-62102000D01*
G75*
G02*
X114409400Y-62027000I0J75000D01*
G01*
X114409400Y-61327000D01*
G75*
G02*
X114484400Y-61252000I75000J0D01*
G01*
X114634400Y-61252000D01*
G75*
G02*
X114709400Y-61327000I0J-75000D01*
G01*
X114709400Y-62027000D01*
G75*
G02*
X114634400Y-62102000I-75000J0D01*
G01*
G37*
G36*
G01*
X115684400Y-62302000D02*
X115684400Y-62452000D01*
G75*
G02*
X115609400Y-62527000I-75000J0D01*
G01*
X114909400Y-62527000D01*
G75*
G02*
X114834400Y-62452000I0J75000D01*
G01*
X114834400Y-62302000D01*
G75*
G02*
X114909400Y-62227000I75000J0D01*
G01*
X115609400Y-62227000D01*
G75*
G02*
X115684400Y-62302000I0J-75000D01*
G01*
G37*
G36*
G01*
X115684400Y-62802000D02*
X115684400Y-62952000D01*
G75*
G02*
X115609400Y-63027000I-75000J0D01*
G01*
X114909400Y-63027000D01*
G75*
G02*
X114834400Y-62952000I0J75000D01*
G01*
X114834400Y-62802000D01*
G75*
G02*
X114909400Y-62727000I75000J0D01*
G01*
X115609400Y-62727000D01*
G75*
G02*
X115684400Y-62802000I0J-75000D01*
G01*
G37*
G36*
G01*
X115684400Y-63302000D02*
X115684400Y-63452000D01*
G75*
G02*
X115609400Y-63527000I-75000J0D01*
G01*
X114909400Y-63527000D01*
G75*
G02*
X114834400Y-63452000I0J75000D01*
G01*
X114834400Y-63302000D01*
G75*
G02*
X114909400Y-63227000I75000J0D01*
G01*
X115609400Y-63227000D01*
G75*
G02*
X115684400Y-63302000I0J-75000D01*
G01*
G37*
G36*
G01*
X115684400Y-63802000D02*
X115684400Y-63952000D01*
G75*
G02*
X115609400Y-64027000I-75000J0D01*
G01*
X114909400Y-64027000D01*
G75*
G02*
X114834400Y-63952000I0J75000D01*
G01*
X114834400Y-63802000D01*
G75*
G02*
X114909400Y-63727000I75000J0D01*
G01*
X115609400Y-63727000D01*
G75*
G02*
X115684400Y-63802000I0J-75000D01*
G01*
G37*
G36*
G01*
X115684400Y-64302000D02*
X115684400Y-64452000D01*
G75*
G02*
X115609400Y-64527000I-75000J0D01*
G01*
X114909400Y-64527000D01*
G75*
G02*
X114834400Y-64452000I0J75000D01*
G01*
X114834400Y-64302000D01*
G75*
G02*
X114909400Y-64227000I75000J0D01*
G01*
X115609400Y-64227000D01*
G75*
G02*
X115684400Y-64302000I0J-75000D01*
G01*
G37*
G36*
G01*
X115684400Y-64802000D02*
X115684400Y-64952000D01*
G75*
G02*
X115609400Y-65027000I-75000J0D01*
G01*
X114909400Y-65027000D01*
G75*
G02*
X114834400Y-64952000I0J75000D01*
G01*
X114834400Y-64802000D01*
G75*
G02*
X114909400Y-64727000I75000J0D01*
G01*
X115609400Y-64727000D01*
G75*
G02*
X115684400Y-64802000I0J-75000D01*
G01*
G37*
G36*
G01*
X114634400Y-66002000D02*
X114484400Y-66002000D01*
G75*
G02*
X114409400Y-65927000I0J75000D01*
G01*
X114409400Y-65227000D01*
G75*
G02*
X114484400Y-65152000I75000J0D01*
G01*
X114634400Y-65152000D01*
G75*
G02*
X114709400Y-65227000I0J-75000D01*
G01*
X114709400Y-65927000D01*
G75*
G02*
X114634400Y-66002000I-75000J0D01*
G01*
G37*
G36*
G01*
X114134400Y-66002000D02*
X113984400Y-66002000D01*
G75*
G02*
X113909400Y-65927000I0J75000D01*
G01*
X113909400Y-65227000D01*
G75*
G02*
X113984400Y-65152000I75000J0D01*
G01*
X114134400Y-65152000D01*
G75*
G02*
X114209400Y-65227000I0J-75000D01*
G01*
X114209400Y-65927000D01*
G75*
G02*
X114134400Y-66002000I-75000J0D01*
G01*
G37*
G36*
G01*
X113634400Y-66002000D02*
X113484400Y-66002000D01*
G75*
G02*
X113409400Y-65927000I0J75000D01*
G01*
X113409400Y-65227000D01*
G75*
G02*
X113484400Y-65152000I75000J0D01*
G01*
X113634400Y-65152000D01*
G75*
G02*
X113709400Y-65227000I0J-75000D01*
G01*
X113709400Y-65927000D01*
G75*
G02*
X113634400Y-66002000I-75000J0D01*
G01*
G37*
G36*
G01*
X113134400Y-66002000D02*
X112984400Y-66002000D01*
G75*
G02*
X112909400Y-65927000I0J75000D01*
G01*
X112909400Y-65227000D01*
G75*
G02*
X112984400Y-65152000I75000J0D01*
G01*
X113134400Y-65152000D01*
G75*
G02*
X113209400Y-65227000I0J-75000D01*
G01*
X113209400Y-65927000D01*
G75*
G02*
X113134400Y-66002000I-75000J0D01*
G01*
G37*
G36*
G01*
X112634400Y-66002000D02*
X112484400Y-66002000D01*
G75*
G02*
X112409400Y-65927000I0J75000D01*
G01*
X112409400Y-65227000D01*
G75*
G02*
X112484400Y-65152000I75000J0D01*
G01*
X112634400Y-65152000D01*
G75*
G02*
X112709400Y-65227000I0J-75000D01*
G01*
X112709400Y-65927000D01*
G75*
G02*
X112634400Y-66002000I-75000J0D01*
G01*
G37*
G36*
G01*
X112134400Y-66002000D02*
X111984400Y-66002000D01*
G75*
G02*
X111909400Y-65927000I0J75000D01*
G01*
X111909400Y-65227000D01*
G75*
G02*
X111984400Y-65152000I75000J0D01*
G01*
X112134400Y-65152000D01*
G75*
G02*
X112209400Y-65227000I0J-75000D01*
G01*
X112209400Y-65927000D01*
G75*
G02*
X112134400Y-66002000I-75000J0D01*
G01*
G37*
%TD*%
%TO.C,C20*%
G36*
G01*
X109786600Y-63674600D02*
X110126600Y-63674600D01*
G75*
G02*
X110266600Y-63814600I0J-140000D01*
G01*
X110266600Y-64094600D01*
G75*
G02*
X110126600Y-64234600I-140000J0D01*
G01*
X109786600Y-64234600D01*
G75*
G02*
X109646600Y-64094600I0J140000D01*
G01*
X109646600Y-63814600D01*
G75*
G02*
X109786600Y-63674600I140000J0D01*
G01*
G37*
G36*
G01*
X109786600Y-62714600D02*
X110126600Y-62714600D01*
G75*
G02*
X110266600Y-62854600I0J-140000D01*
G01*
X110266600Y-63134600D01*
G75*
G02*
X110126600Y-63274600I-140000J0D01*
G01*
X109786600Y-63274600D01*
G75*
G02*
X109646600Y-63134600I0J140000D01*
G01*
X109646600Y-62854600D01*
G75*
G02*
X109786600Y-62714600I140000J0D01*
G01*
G37*
%TD*%
%TO.C,C19*%
G36*
G01*
X117319400Y-63619200D02*
X117319400Y-63279200D01*
G75*
G02*
X117459400Y-63139200I140000J0D01*
G01*
X117739400Y-63139200D01*
G75*
G02*
X117879400Y-63279200I0J-140000D01*
G01*
X117879400Y-63619200D01*
G75*
G02*
X117739400Y-63759200I-140000J0D01*
G01*
X117459400Y-63759200D01*
G75*
G02*
X117319400Y-63619200I0J140000D01*
G01*
G37*
G36*
G01*
X116359400Y-63619200D02*
X116359400Y-63279200D01*
G75*
G02*
X116499400Y-63139200I140000J0D01*
G01*
X116779400Y-63139200D01*
G75*
G02*
X116919400Y-63279200I0J-140000D01*
G01*
X116919400Y-63619200D01*
G75*
G02*
X116779400Y-63759200I-140000J0D01*
G01*
X116499400Y-63759200D01*
G75*
G02*
X116359400Y-63619200I0J140000D01*
G01*
G37*
%TD*%
%TO.C,C18*%
G36*
G01*
X116873200Y-62150600D02*
X117213200Y-62150600D01*
G75*
G02*
X117353200Y-62290600I0J-140000D01*
G01*
X117353200Y-62570600D01*
G75*
G02*
X117213200Y-62710600I-140000J0D01*
G01*
X116873200Y-62710600D01*
G75*
G02*
X116733200Y-62570600I0J140000D01*
G01*
X116733200Y-62290600D01*
G75*
G02*
X116873200Y-62150600I140000J0D01*
G01*
G37*
G36*
G01*
X116873200Y-61190600D02*
X117213200Y-61190600D01*
G75*
G02*
X117353200Y-61330600I0J-140000D01*
G01*
X117353200Y-61610600D01*
G75*
G02*
X117213200Y-61750600I-140000J0D01*
G01*
X116873200Y-61750600D01*
G75*
G02*
X116733200Y-61610600I0J140000D01*
G01*
X116733200Y-61330600D01*
G75*
G02*
X116873200Y-61190600I140000J0D01*
G01*
G37*
%TD*%
%TO.C,C17*%
G36*
G01*
X117395600Y-65244800D02*
X117395600Y-64904800D01*
G75*
G02*
X117535600Y-64764800I140000J0D01*
G01*
X117815600Y-64764800D01*
G75*
G02*
X117955600Y-64904800I0J-140000D01*
G01*
X117955600Y-65244800D01*
G75*
G02*
X117815600Y-65384800I-140000J0D01*
G01*
X117535600Y-65384800D01*
G75*
G02*
X117395600Y-65244800I0J140000D01*
G01*
G37*
G36*
G01*
X116435600Y-65244800D02*
X116435600Y-64904800D01*
G75*
G02*
X116575600Y-64764800I140000J0D01*
G01*
X116855600Y-64764800D01*
G75*
G02*
X116995600Y-64904800I0J-140000D01*
G01*
X116995600Y-65244800D01*
G75*
G02*
X116855600Y-65384800I-140000J0D01*
G01*
X116575600Y-65384800D01*
G75*
G02*
X116435600Y-65244800I0J140000D01*
G01*
G37*
%TD*%
%TO.C,R8*%
G36*
G01*
X106723600Y-65924400D02*
X107093600Y-65924400D01*
G75*
G02*
X107228600Y-66059400I0J-135000D01*
G01*
X107228600Y-66329400D01*
G75*
G02*
X107093600Y-66464400I-135000J0D01*
G01*
X106723600Y-66464400D01*
G75*
G02*
X106588600Y-66329400I0J135000D01*
G01*
X106588600Y-66059400D01*
G75*
G02*
X106723600Y-65924400I135000J0D01*
G01*
G37*
G36*
G01*
X106723600Y-64904400D02*
X107093600Y-64904400D01*
G75*
G02*
X107228600Y-65039400I0J-135000D01*
G01*
X107228600Y-65309400D01*
G75*
G02*
X107093600Y-65444400I-135000J0D01*
G01*
X106723600Y-65444400D01*
G75*
G02*
X106588600Y-65309400I0J135000D01*
G01*
X106588600Y-65039400D01*
G75*
G02*
X106723600Y-64904400I135000J0D01*
G01*
G37*
%TD*%
%TO.C,R7*%
G36*
G01*
X105772800Y-65469800D02*
X105402800Y-65469800D01*
G75*
G02*
X105267800Y-65334800I0J135000D01*
G01*
X105267800Y-65064800D01*
G75*
G02*
X105402800Y-64929800I135000J0D01*
G01*
X105772800Y-64929800D01*
G75*
G02*
X105907800Y-65064800I0J-135000D01*
G01*
X105907800Y-65334800D01*
G75*
G02*
X105772800Y-65469800I-135000J0D01*
G01*
G37*
G36*
G01*
X105772800Y-66489800D02*
X105402800Y-66489800D01*
G75*
G02*
X105267800Y-66354800I0J135000D01*
G01*
X105267800Y-66084800D01*
G75*
G02*
X105402800Y-65949800I135000J0D01*
G01*
X105772800Y-65949800D01*
G75*
G02*
X105907800Y-66084800I0J-135000D01*
G01*
X105907800Y-66354800D01*
G75*
G02*
X105772800Y-66489800I-135000J0D01*
G01*
G37*
%TD*%
D10*
%TO.C,J1*%
X87383100Y-73726800D03*
D11*
X90083100Y-74726800D03*
X90083100Y-75376800D03*
X90083100Y-76026800D03*
X90083100Y-73426800D03*
X90083100Y-74076800D03*
D10*
X87383100Y-75726800D03*
%TD*%
D12*
%TO.C,U5*%
X94851400Y-73533000D03*
X94851400Y-72583000D03*
X94851400Y-74483000D03*
X92651400Y-74483000D03*
X92651400Y-73533000D03*
X92651400Y-72583000D03*
%TD*%
%TO.C,R6*%
G36*
G01*
X93407200Y-69958800D02*
X93407200Y-69588800D01*
G75*
G02*
X93542200Y-69453800I135000J0D01*
G01*
X93812200Y-69453800D01*
G75*
G02*
X93947200Y-69588800I0J-135000D01*
G01*
X93947200Y-69958800D01*
G75*
G02*
X93812200Y-70093800I-135000J0D01*
G01*
X93542200Y-70093800D01*
G75*
G02*
X93407200Y-69958800I0J135000D01*
G01*
G37*
G36*
G01*
X92387200Y-69958800D02*
X92387200Y-69588800D01*
G75*
G02*
X92522200Y-69453800I135000J0D01*
G01*
X92792200Y-69453800D01*
G75*
G02*
X92927200Y-69588800I0J-135000D01*
G01*
X92927200Y-69958800D01*
G75*
G02*
X92792200Y-70093800I-135000J0D01*
G01*
X92522200Y-70093800D01*
G75*
G02*
X92387200Y-69958800I0J135000D01*
G01*
G37*
%TD*%
%TO.C,C1*%
G36*
G01*
X117598800Y-67530800D02*
X117598800Y-67190800D01*
G75*
G02*
X117738800Y-67050800I140000J0D01*
G01*
X118018800Y-67050800D01*
G75*
G02*
X118158800Y-67190800I0J-140000D01*
G01*
X118158800Y-67530800D01*
G75*
G02*
X118018800Y-67670800I-140000J0D01*
G01*
X117738800Y-67670800D01*
G75*
G02*
X117598800Y-67530800I0J140000D01*
G01*
G37*
G36*
G01*
X116638800Y-67530800D02*
X116638800Y-67190800D01*
G75*
G02*
X116778800Y-67050800I140000J0D01*
G01*
X117058800Y-67050800D01*
G75*
G02*
X117198800Y-67190800I0J-140000D01*
G01*
X117198800Y-67530800D01*
G75*
G02*
X117058800Y-67670800I-140000J0D01*
G01*
X116778800Y-67670800D01*
G75*
G02*
X116638800Y-67530800I0J140000D01*
G01*
G37*
%TD*%
%TO.C,C2*%
G36*
G01*
X114251200Y-74490400D02*
X114251200Y-74150400D01*
G75*
G02*
X114391200Y-74010400I140000J0D01*
G01*
X114671200Y-74010400D01*
G75*
G02*
X114811200Y-74150400I0J-140000D01*
G01*
X114811200Y-74490400D01*
G75*
G02*
X114671200Y-74630400I-140000J0D01*
G01*
X114391200Y-74630400D01*
G75*
G02*
X114251200Y-74490400I0J140000D01*
G01*
G37*
G36*
G01*
X115211200Y-74490400D02*
X115211200Y-74150400D01*
G75*
G02*
X115351200Y-74010400I140000J0D01*
G01*
X115631200Y-74010400D01*
G75*
G02*
X115771200Y-74150400I0J-140000D01*
G01*
X115771200Y-74490400D01*
G75*
G02*
X115631200Y-74630400I-140000J0D01*
G01*
X115351200Y-74630400D01*
G75*
G02*
X115211200Y-74490400I0J140000D01*
G01*
G37*
%TD*%
%TO.C,C3*%
G36*
G01*
X116180200Y-67190800D02*
X116180200Y-67530800D01*
G75*
G02*
X116040200Y-67670800I-140000J0D01*
G01*
X115760200Y-67670800D01*
G75*
G02*
X115620200Y-67530800I0J140000D01*
G01*
X115620200Y-67190800D01*
G75*
G02*
X115760200Y-67050800I140000J0D01*
G01*
X116040200Y-67050800D01*
G75*
G02*
X116180200Y-67190800I0J-140000D01*
G01*
G37*
G36*
G01*
X115220200Y-67190800D02*
X115220200Y-67530800D01*
G75*
G02*
X115080200Y-67670800I-140000J0D01*
G01*
X114800200Y-67670800D01*
G75*
G02*
X114660200Y-67530800I0J140000D01*
G01*
X114660200Y-67190800D01*
G75*
G02*
X114800200Y-67050800I140000J0D01*
G01*
X115080200Y-67050800D01*
G75*
G02*
X115220200Y-67190800I0J-140000D01*
G01*
G37*
%TD*%
%TO.C,C4*%
G36*
G01*
X115079600Y-77645800D02*
X114739600Y-77645800D01*
G75*
G02*
X114599600Y-77505800I0J140000D01*
G01*
X114599600Y-77225800D01*
G75*
G02*
X114739600Y-77085800I140000J0D01*
G01*
X115079600Y-77085800D01*
G75*
G02*
X115219600Y-77225800I0J-140000D01*
G01*
X115219600Y-77505800D01*
G75*
G02*
X115079600Y-77645800I-140000J0D01*
G01*
G37*
G36*
G01*
X115079600Y-76685800D02*
X114739600Y-76685800D01*
G75*
G02*
X114599600Y-76545800I0J140000D01*
G01*
X114599600Y-76265800D01*
G75*
G02*
X114739600Y-76125800I140000J0D01*
G01*
X115079600Y-76125800D01*
G75*
G02*
X115219600Y-76265800I0J-140000D01*
G01*
X115219600Y-76545800D01*
G75*
G02*
X115079600Y-76685800I-140000J0D01*
G01*
G37*
%TD*%
%TO.C,C5*%
G36*
G01*
X122760200Y-72763200D02*
X122760200Y-72423200D01*
G75*
G02*
X122900200Y-72283200I140000J0D01*
G01*
X123180200Y-72283200D01*
G75*
G02*
X123320200Y-72423200I0J-140000D01*
G01*
X123320200Y-72763200D01*
G75*
G02*
X123180200Y-72903200I-140000J0D01*
G01*
X122900200Y-72903200D01*
G75*
G02*
X122760200Y-72763200I0J140000D01*
G01*
G37*
G36*
G01*
X123720200Y-72763200D02*
X123720200Y-72423200D01*
G75*
G02*
X123860200Y-72283200I140000J0D01*
G01*
X124140200Y-72283200D01*
G75*
G02*
X124280200Y-72423200I0J-140000D01*
G01*
X124280200Y-72763200D01*
G75*
G02*
X124140200Y-72903200I-140000J0D01*
G01*
X123860200Y-72903200D01*
G75*
G02*
X123720200Y-72763200I0J140000D01*
G01*
G37*
%TD*%
%TO.C,C6*%
G36*
G01*
X120429200Y-77007000D02*
X120769200Y-77007000D01*
G75*
G02*
X120909200Y-77147000I0J-140000D01*
G01*
X120909200Y-77427000D01*
G75*
G02*
X120769200Y-77567000I-140000J0D01*
G01*
X120429200Y-77567000D01*
G75*
G02*
X120289200Y-77427000I0J140000D01*
G01*
X120289200Y-77147000D01*
G75*
G02*
X120429200Y-77007000I140000J0D01*
G01*
G37*
G36*
G01*
X120429200Y-76047000D02*
X120769200Y-76047000D01*
G75*
G02*
X120909200Y-76187000I0J-140000D01*
G01*
X120909200Y-76467000D01*
G75*
G02*
X120769200Y-76607000I-140000J0D01*
G01*
X120429200Y-76607000D01*
G75*
G02*
X120289200Y-76467000I0J140000D01*
G01*
X120289200Y-76187000D01*
G75*
G02*
X120429200Y-76047000I140000J0D01*
G01*
G37*
%TD*%
%TO.C,C7*%
G36*
G01*
X123720200Y-73982400D02*
X123720200Y-73642400D01*
G75*
G02*
X123860200Y-73502400I140000J0D01*
G01*
X124140200Y-73502400D01*
G75*
G02*
X124280200Y-73642400I0J-140000D01*
G01*
X124280200Y-73982400D01*
G75*
G02*
X124140200Y-74122400I-140000J0D01*
G01*
X123860200Y-74122400D01*
G75*
G02*
X123720200Y-73982400I0J140000D01*
G01*
G37*
G36*
G01*
X122760200Y-73982400D02*
X122760200Y-73642400D01*
G75*
G02*
X122900200Y-73502400I140000J0D01*
G01*
X123180200Y-73502400D01*
G75*
G02*
X123320200Y-73642400I0J-140000D01*
G01*
X123320200Y-73982400D01*
G75*
G02*
X123180200Y-74122400I-140000J0D01*
G01*
X122900200Y-74122400D01*
G75*
G02*
X122760200Y-73982400I0J140000D01*
G01*
G37*
%TD*%
%TO.C,C8*%
G36*
G01*
X125169200Y-70264200D02*
X125169200Y-70604200D01*
G75*
G02*
X125029200Y-70744200I-140000J0D01*
G01*
X124749200Y-70744200D01*
G75*
G02*
X124609200Y-70604200I0J140000D01*
G01*
X124609200Y-70264200D01*
G75*
G02*
X124749200Y-70124200I140000J0D01*
G01*
X125029200Y-70124200D01*
G75*
G02*
X125169200Y-70264200I0J-140000D01*
G01*
G37*
G36*
G01*
X124209200Y-70264200D02*
X124209200Y-70604200D01*
G75*
G02*
X124069200Y-70744200I-140000J0D01*
G01*
X123789200Y-70744200D01*
G75*
G02*
X123649200Y-70604200I0J140000D01*
G01*
X123649200Y-70264200D01*
G75*
G02*
X123789200Y-70124200I140000J0D01*
G01*
X124069200Y-70124200D01*
G75*
G02*
X124209200Y-70264200I0J-140000D01*
G01*
G37*
%TD*%
%TO.C,C9*%
G36*
G01*
X125061800Y-68710200D02*
X124721800Y-68710200D01*
G75*
G02*
X124581800Y-68570200I0J140000D01*
G01*
X124581800Y-68290200D01*
G75*
G02*
X124721800Y-68150200I140000J0D01*
G01*
X125061800Y-68150200D01*
G75*
G02*
X125201800Y-68290200I0J-140000D01*
G01*
X125201800Y-68570200D01*
G75*
G02*
X125061800Y-68710200I-140000J0D01*
G01*
G37*
G36*
G01*
X125061800Y-69670200D02*
X124721800Y-69670200D01*
G75*
G02*
X124581800Y-69530200I0J140000D01*
G01*
X124581800Y-69250200D01*
G75*
G02*
X124721800Y-69110200I140000J0D01*
G01*
X125061800Y-69110200D01*
G75*
G02*
X125201800Y-69250200I0J-140000D01*
G01*
X125201800Y-69530200D01*
G75*
G02*
X125061800Y-69670200I-140000J0D01*
G01*
G37*
%TD*%
%TO.C,C10*%
G36*
G01*
X95433600Y-78642400D02*
X95433600Y-79142400D01*
G75*
G02*
X95208600Y-79367400I-225000J0D01*
G01*
X94758600Y-79367400D01*
G75*
G02*
X94533600Y-79142400I0J225000D01*
G01*
X94533600Y-78642400D01*
G75*
G02*
X94758600Y-78417400I225000J0D01*
G01*
X95208600Y-78417400D01*
G75*
G02*
X95433600Y-78642400I0J-225000D01*
G01*
G37*
G36*
G01*
X93883600Y-78642400D02*
X93883600Y-79142400D01*
G75*
G02*
X93658600Y-79367400I-225000J0D01*
G01*
X93208600Y-79367400D01*
G75*
G02*
X92983600Y-79142400I0J225000D01*
G01*
X92983600Y-78642400D01*
G75*
G02*
X93208600Y-78417400I225000J0D01*
G01*
X93658600Y-78417400D01*
G75*
G02*
X93883600Y-78642400I0J-225000D01*
G01*
G37*
%TD*%
%TO.C,C11*%
G36*
G01*
X100757200Y-69273600D02*
X100757200Y-69613600D01*
G75*
G02*
X100617200Y-69753600I-140000J0D01*
G01*
X100337200Y-69753600D01*
G75*
G02*
X100197200Y-69613600I0J140000D01*
G01*
X100197200Y-69273600D01*
G75*
G02*
X100337200Y-69133600I140000J0D01*
G01*
X100617200Y-69133600D01*
G75*
G02*
X100757200Y-69273600I0J-140000D01*
G01*
G37*
G36*
G01*
X99797200Y-69273600D02*
X99797200Y-69613600D01*
G75*
G02*
X99657200Y-69753600I-140000J0D01*
G01*
X99377200Y-69753600D01*
G75*
G02*
X99237200Y-69613600I0J140000D01*
G01*
X99237200Y-69273600D01*
G75*
G02*
X99377200Y-69133600I140000J0D01*
G01*
X99657200Y-69133600D01*
G75*
G02*
X99797200Y-69273600I0J-140000D01*
G01*
G37*
%TD*%
%TO.C,C12*%
G36*
G01*
X97786800Y-69512000D02*
X97786800Y-69172000D01*
G75*
G02*
X97926800Y-69032000I140000J0D01*
G01*
X98206800Y-69032000D01*
G75*
G02*
X98346800Y-69172000I0J-140000D01*
G01*
X98346800Y-69512000D01*
G75*
G02*
X98206800Y-69652000I-140000J0D01*
G01*
X97926800Y-69652000D01*
G75*
G02*
X97786800Y-69512000I0J140000D01*
G01*
G37*
G36*
G01*
X96826800Y-69512000D02*
X96826800Y-69172000D01*
G75*
G02*
X96966800Y-69032000I140000J0D01*
G01*
X97246800Y-69032000D01*
G75*
G02*
X97386800Y-69172000I0J-140000D01*
G01*
X97386800Y-69512000D01*
G75*
G02*
X97246800Y-69652000I-140000J0D01*
G01*
X96966800Y-69652000D01*
G75*
G02*
X96826800Y-69512000I0J140000D01*
G01*
G37*
%TD*%
%TO.C,C13*%
G36*
G01*
X102772400Y-68676400D02*
X103272400Y-68676400D01*
G75*
G02*
X103497400Y-68901400I0J-225000D01*
G01*
X103497400Y-69351400D01*
G75*
G02*
X103272400Y-69576400I-225000J0D01*
G01*
X102772400Y-69576400D01*
G75*
G02*
X102547400Y-69351400I0J225000D01*
G01*
X102547400Y-68901400D01*
G75*
G02*
X102772400Y-68676400I225000J0D01*
G01*
G37*
G36*
G01*
X102772400Y-67126400D02*
X103272400Y-67126400D01*
G75*
G02*
X103497400Y-67351400I0J-225000D01*
G01*
X103497400Y-67801400D01*
G75*
G02*
X103272400Y-68026400I-225000J0D01*
G01*
X102772400Y-68026400D01*
G75*
G02*
X102547400Y-67801400I0J225000D01*
G01*
X102547400Y-67351400D01*
G75*
G02*
X102772400Y-67126400I225000J0D01*
G01*
G37*
%TD*%
%TO.C,C14*%
G36*
G01*
X104401800Y-69948400D02*
X104741800Y-69948400D01*
G75*
G02*
X104881800Y-70088400I0J-140000D01*
G01*
X104881800Y-70368400D01*
G75*
G02*
X104741800Y-70508400I-140000J0D01*
G01*
X104401800Y-70508400D01*
G75*
G02*
X104261800Y-70368400I0J140000D01*
G01*
X104261800Y-70088400D01*
G75*
G02*
X104401800Y-69948400I140000J0D01*
G01*
G37*
G36*
G01*
X104401800Y-68988400D02*
X104741800Y-68988400D01*
G75*
G02*
X104881800Y-69128400I0J-140000D01*
G01*
X104881800Y-69408400D01*
G75*
G02*
X104741800Y-69548400I-140000J0D01*
G01*
X104401800Y-69548400D01*
G75*
G02*
X104261800Y-69408400I0J140000D01*
G01*
X104261800Y-69128400D01*
G75*
G02*
X104401800Y-68988400I140000J0D01*
G01*
G37*
%TD*%
%TO.C,C15*%
G36*
G01*
X101391000Y-66112200D02*
X101391000Y-65612200D01*
G75*
G02*
X101616000Y-65387200I225000J0D01*
G01*
X102066000Y-65387200D01*
G75*
G02*
X102291000Y-65612200I0J-225000D01*
G01*
X102291000Y-66112200D01*
G75*
G02*
X102066000Y-66337200I-225000J0D01*
G01*
X101616000Y-66337200D01*
G75*
G02*
X101391000Y-66112200I0J225000D01*
G01*
G37*
G36*
G01*
X102941000Y-66112200D02*
X102941000Y-65612200D01*
G75*
G02*
X103166000Y-65387200I225000J0D01*
G01*
X103616000Y-65387200D01*
G75*
G02*
X103841000Y-65612200I0J-225000D01*
G01*
X103841000Y-66112200D01*
G75*
G02*
X103616000Y-66337200I-225000J0D01*
G01*
X103166000Y-66337200D01*
G75*
G02*
X102941000Y-66112200I0J225000D01*
G01*
G37*
%TD*%
%TO.C,C16*%
G36*
G01*
X101150600Y-67058000D02*
X101490600Y-67058000D01*
G75*
G02*
X101630600Y-67198000I0J-140000D01*
G01*
X101630600Y-67478000D01*
G75*
G02*
X101490600Y-67618000I-140000J0D01*
G01*
X101150600Y-67618000D01*
G75*
G02*
X101010600Y-67478000I0J140000D01*
G01*
X101010600Y-67198000D01*
G75*
G02*
X101150600Y-67058000I140000J0D01*
G01*
G37*
G36*
G01*
X101150600Y-68018000D02*
X101490600Y-68018000D01*
G75*
G02*
X101630600Y-68158000I0J-140000D01*
G01*
X101630600Y-68438000D01*
G75*
G02*
X101490600Y-68578000I-140000J0D01*
G01*
X101150600Y-68578000D01*
G75*
G02*
X101010600Y-68438000I0J140000D01*
G01*
X101010600Y-68158000D01*
G75*
G02*
X101150600Y-68018000I140000J0D01*
G01*
G37*
%TD*%
%TO.C,L1*%
G36*
G01*
X120797100Y-71671400D02*
X120452100Y-71671400D01*
G75*
G02*
X120304600Y-71523900I0J147500D01*
G01*
X120304600Y-71228900D01*
G75*
G02*
X120452100Y-71081400I147500J0D01*
G01*
X120797100Y-71081400D01*
G75*
G02*
X120944600Y-71228900I0J-147500D01*
G01*
X120944600Y-71523900D01*
G75*
G02*
X120797100Y-71671400I-147500J0D01*
G01*
G37*
G36*
G01*
X120797100Y-70701400D02*
X120452100Y-70701400D01*
G75*
G02*
X120304600Y-70553900I0J147500D01*
G01*
X120304600Y-70258900D01*
G75*
G02*
X120452100Y-70111400I147500J0D01*
G01*
X120797100Y-70111400D01*
G75*
G02*
X120944600Y-70258900I0J-147500D01*
G01*
X120944600Y-70553900D01*
G75*
G02*
X120797100Y-70701400I-147500J0D01*
G01*
G37*
%TD*%
%TO.C,L2*%
G36*
G01*
X123053200Y-70261700D02*
X123053200Y-70606700D01*
G75*
G02*
X122905700Y-70754200I-147500J0D01*
G01*
X122610700Y-70754200D01*
G75*
G02*
X122463200Y-70606700I0J147500D01*
G01*
X122463200Y-70261700D01*
G75*
G02*
X122610700Y-70114200I147500J0D01*
G01*
X122905700Y-70114200D01*
G75*
G02*
X123053200Y-70261700I0J-147500D01*
G01*
G37*
G36*
G01*
X122083200Y-70261700D02*
X122083200Y-70606700D01*
G75*
G02*
X121935700Y-70754200I-147500J0D01*
G01*
X121640700Y-70754200D01*
G75*
G02*
X121493200Y-70606700I0J147500D01*
G01*
X121493200Y-70261700D01*
G75*
G02*
X121640700Y-70114200I147500J0D01*
G01*
X121935700Y-70114200D01*
G75*
G02*
X122083200Y-70261700I0J-147500D01*
G01*
G37*
%TD*%
%TO.C,L3*%
G36*
G01*
X122016300Y-71920600D02*
X121671300Y-71920600D01*
G75*
G02*
X121523800Y-71773100I0J147500D01*
G01*
X121523800Y-71478100D01*
G75*
G02*
X121671300Y-71330600I147500J0D01*
G01*
X122016300Y-71330600D01*
G75*
G02*
X122163800Y-71478100I0J-147500D01*
G01*
X122163800Y-71773100D01*
G75*
G02*
X122016300Y-71920600I-147500J0D01*
G01*
G37*
G36*
G01*
X122016300Y-72890600D02*
X121671300Y-72890600D01*
G75*
G02*
X121523800Y-72743100I0J147500D01*
G01*
X121523800Y-72448100D01*
G75*
G02*
X121671300Y-72300600I147500J0D01*
G01*
X122016300Y-72300600D01*
G75*
G02*
X122163800Y-72448100I0J-147500D01*
G01*
X122163800Y-72743100D01*
G75*
G02*
X122016300Y-72890600I-147500J0D01*
G01*
G37*
%TD*%
%TO.C,R1*%
G36*
G01*
X119234800Y-67201000D02*
X118864800Y-67201000D01*
G75*
G02*
X118729800Y-67066000I0J135000D01*
G01*
X118729800Y-66796000D01*
G75*
G02*
X118864800Y-66661000I135000J0D01*
G01*
X119234800Y-66661000D01*
G75*
G02*
X119369800Y-66796000I0J-135000D01*
G01*
X119369800Y-67066000D01*
G75*
G02*
X119234800Y-67201000I-135000J0D01*
G01*
G37*
G36*
G01*
X119234800Y-66181000D02*
X118864800Y-66181000D01*
G75*
G02*
X118729800Y-66046000I0J135000D01*
G01*
X118729800Y-65776000D01*
G75*
G02*
X118864800Y-65641000I135000J0D01*
G01*
X119234800Y-65641000D01*
G75*
G02*
X119369800Y-65776000I0J-135000D01*
G01*
X119369800Y-66046000D01*
G75*
G02*
X119234800Y-66181000I-135000J0D01*
G01*
G37*
%TD*%
%TO.C,R2*%
G36*
G01*
X117436200Y-73957600D02*
X117436200Y-74327600D01*
G75*
G02*
X117301200Y-74462600I-135000J0D01*
G01*
X117031200Y-74462600D01*
G75*
G02*
X116896200Y-74327600I0J135000D01*
G01*
X116896200Y-73957600D01*
G75*
G02*
X117031200Y-73822600I135000J0D01*
G01*
X117301200Y-73822600D01*
G75*
G02*
X117436200Y-73957600I0J-135000D01*
G01*
G37*
G36*
G01*
X118456200Y-73957600D02*
X118456200Y-74327600D01*
G75*
G02*
X118321200Y-74462600I-135000J0D01*
G01*
X118051200Y-74462600D01*
G75*
G02*
X117916200Y-74327600I0J135000D01*
G01*
X117916200Y-73957600D01*
G75*
G02*
X118051200Y-73822600I135000J0D01*
G01*
X118321200Y-73822600D01*
G75*
G02*
X118456200Y-73957600I0J-135000D01*
G01*
G37*
%TD*%
%TO.C,R3*%
G36*
G01*
X91712200Y-77811600D02*
X92082200Y-77811600D01*
G75*
G02*
X92217200Y-77946600I0J-135000D01*
G01*
X92217200Y-78216600D01*
G75*
G02*
X92082200Y-78351600I-135000J0D01*
G01*
X91712200Y-78351600D01*
G75*
G02*
X91577200Y-78216600I0J135000D01*
G01*
X91577200Y-77946600D01*
G75*
G02*
X91712200Y-77811600I135000J0D01*
G01*
G37*
G36*
G01*
X91712200Y-76791600D02*
X92082200Y-76791600D01*
G75*
G02*
X92217200Y-76926600I0J-135000D01*
G01*
X92217200Y-77196600D01*
G75*
G02*
X92082200Y-77331600I-135000J0D01*
G01*
X91712200Y-77331600D01*
G75*
G02*
X91577200Y-77196600I0J135000D01*
G01*
X91577200Y-76926600D01*
G75*
G02*
X91712200Y-76791600I135000J0D01*
G01*
G37*
%TD*%
%TO.C,R4*%
G36*
G01*
X107830400Y-66301200D02*
X107830400Y-65931200D01*
G75*
G02*
X107965400Y-65796200I135000J0D01*
G01*
X108235400Y-65796200D01*
G75*
G02*
X108370400Y-65931200I0J-135000D01*
G01*
X108370400Y-66301200D01*
G75*
G02*
X108235400Y-66436200I-135000J0D01*
G01*
X107965400Y-66436200D01*
G75*
G02*
X107830400Y-66301200I0J135000D01*
G01*
G37*
G36*
G01*
X108850400Y-66301200D02*
X108850400Y-65931200D01*
G75*
G02*
X108985400Y-65796200I135000J0D01*
G01*
X109255400Y-65796200D01*
G75*
G02*
X109390400Y-65931200I0J-135000D01*
G01*
X109390400Y-66301200D01*
G75*
G02*
X109255400Y-66436200I-135000J0D01*
G01*
X108985400Y-66436200D01*
G75*
G02*
X108850400Y-66301200I0J135000D01*
G01*
G37*
%TD*%
%TO.C,U1*%
G36*
G01*
X114566200Y-69725300D02*
X114566200Y-69600300D01*
G75*
G02*
X114628700Y-69537800I62500J0D01*
G01*
X115328700Y-69537800D01*
G75*
G02*
X115391200Y-69600300I0J-62500D01*
G01*
X115391200Y-69725300D01*
G75*
G02*
X115328700Y-69787800I-62500J0D01*
G01*
X114628700Y-69787800D01*
G75*
G02*
X114566200Y-69725300I0J62500D01*
G01*
G37*
G36*
G01*
X114566200Y-70225300D02*
X114566200Y-70100300D01*
G75*
G02*
X114628700Y-70037800I62500J0D01*
G01*
X115328700Y-70037800D01*
G75*
G02*
X115391200Y-70100300I0J-62500D01*
G01*
X115391200Y-70225300D01*
G75*
G02*
X115328700Y-70287800I-62500J0D01*
G01*
X114628700Y-70287800D01*
G75*
G02*
X114566200Y-70225300I0J62500D01*
G01*
G37*
G36*
G01*
X114566200Y-70725300D02*
X114566200Y-70600300D01*
G75*
G02*
X114628700Y-70537800I62500J0D01*
G01*
X115328700Y-70537800D01*
G75*
G02*
X115391200Y-70600300I0J-62500D01*
G01*
X115391200Y-70725300D01*
G75*
G02*
X115328700Y-70787800I-62500J0D01*
G01*
X114628700Y-70787800D01*
G75*
G02*
X114566200Y-70725300I0J62500D01*
G01*
G37*
G36*
G01*
X114566200Y-71225300D02*
X114566200Y-71100300D01*
G75*
G02*
X114628700Y-71037800I62500J0D01*
G01*
X115328700Y-71037800D01*
G75*
G02*
X115391200Y-71100300I0J-62500D01*
G01*
X115391200Y-71225300D01*
G75*
G02*
X115328700Y-71287800I-62500J0D01*
G01*
X114628700Y-71287800D01*
G75*
G02*
X114566200Y-71225300I0J62500D01*
G01*
G37*
G36*
G01*
X114566200Y-71725300D02*
X114566200Y-71600300D01*
G75*
G02*
X114628700Y-71537800I62500J0D01*
G01*
X115328700Y-71537800D01*
G75*
G02*
X115391200Y-71600300I0J-62500D01*
G01*
X115391200Y-71725300D01*
G75*
G02*
X115328700Y-71787800I-62500J0D01*
G01*
X114628700Y-71787800D01*
G75*
G02*
X114566200Y-71725300I0J62500D01*
G01*
G37*
G36*
G01*
X115791200Y-72950300D02*
X115791200Y-72250300D01*
G75*
G02*
X115853700Y-72187800I62500J0D01*
G01*
X115978700Y-72187800D01*
G75*
G02*
X116041200Y-72250300I0J-62500D01*
G01*
X116041200Y-72950300D01*
G75*
G02*
X115978700Y-73012800I-62500J0D01*
G01*
X115853700Y-73012800D01*
G75*
G02*
X115791200Y-72950300I0J62500D01*
G01*
G37*
G36*
G01*
X116291200Y-72950300D02*
X116291200Y-72250300D01*
G75*
G02*
X116353700Y-72187800I62500J0D01*
G01*
X116478700Y-72187800D01*
G75*
G02*
X116541200Y-72250300I0J-62500D01*
G01*
X116541200Y-72950300D01*
G75*
G02*
X116478700Y-73012800I-62500J0D01*
G01*
X116353700Y-73012800D01*
G75*
G02*
X116291200Y-72950300I0J62500D01*
G01*
G37*
G36*
G01*
X116791200Y-72950300D02*
X116791200Y-72250300D01*
G75*
G02*
X116853700Y-72187800I62500J0D01*
G01*
X116978700Y-72187800D01*
G75*
G02*
X117041200Y-72250300I0J-62500D01*
G01*
X117041200Y-72950300D01*
G75*
G02*
X116978700Y-73012800I-62500J0D01*
G01*
X116853700Y-73012800D01*
G75*
G02*
X116791200Y-72950300I0J62500D01*
G01*
G37*
G36*
G01*
X117291200Y-72950300D02*
X117291200Y-72250300D01*
G75*
G02*
X117353700Y-72187800I62500J0D01*
G01*
X117478700Y-72187800D01*
G75*
G02*
X117541200Y-72250300I0J-62500D01*
G01*
X117541200Y-72950300D01*
G75*
G02*
X117478700Y-73012800I-62500J0D01*
G01*
X117353700Y-73012800D01*
G75*
G02*
X117291200Y-72950300I0J62500D01*
G01*
G37*
G36*
G01*
X117791200Y-72950300D02*
X117791200Y-72250300D01*
G75*
G02*
X117853700Y-72187800I62500J0D01*
G01*
X117978700Y-72187800D01*
G75*
G02*
X118041200Y-72250300I0J-62500D01*
G01*
X118041200Y-72950300D01*
G75*
G02*
X117978700Y-73012800I-62500J0D01*
G01*
X117853700Y-73012800D01*
G75*
G02*
X117791200Y-72950300I0J62500D01*
G01*
G37*
G36*
G01*
X118441200Y-71725300D02*
X118441200Y-71600300D01*
G75*
G02*
X118503700Y-71537800I62500J0D01*
G01*
X119203700Y-71537800D01*
G75*
G02*
X119266200Y-71600300I0J-62500D01*
G01*
X119266200Y-71725300D01*
G75*
G02*
X119203700Y-71787800I-62500J0D01*
G01*
X118503700Y-71787800D01*
G75*
G02*
X118441200Y-71725300I0J62500D01*
G01*
G37*
G36*
G01*
X118441200Y-71225300D02*
X118441200Y-71100300D01*
G75*
G02*
X118503700Y-71037800I62500J0D01*
G01*
X119203700Y-71037800D01*
G75*
G02*
X119266200Y-71100300I0J-62500D01*
G01*
X119266200Y-71225300D01*
G75*
G02*
X119203700Y-71287800I-62500J0D01*
G01*
X118503700Y-71287800D01*
G75*
G02*
X118441200Y-71225300I0J62500D01*
G01*
G37*
G36*
G01*
X118441200Y-70725300D02*
X118441200Y-70600300D01*
G75*
G02*
X118503700Y-70537800I62500J0D01*
G01*
X119203700Y-70537800D01*
G75*
G02*
X119266200Y-70600300I0J-62500D01*
G01*
X119266200Y-70725300D01*
G75*
G02*
X119203700Y-70787800I-62500J0D01*
G01*
X118503700Y-70787800D01*
G75*
G02*
X118441200Y-70725300I0J62500D01*
G01*
G37*
G36*
G01*
X118441200Y-70225300D02*
X118441200Y-70100300D01*
G75*
G02*
X118503700Y-70037800I62500J0D01*
G01*
X119203700Y-70037800D01*
G75*
G02*
X119266200Y-70100300I0J-62500D01*
G01*
X119266200Y-70225300D01*
G75*
G02*
X119203700Y-70287800I-62500J0D01*
G01*
X118503700Y-70287800D01*
G75*
G02*
X118441200Y-70225300I0J62500D01*
G01*
G37*
G36*
G01*
X118441200Y-69725300D02*
X118441200Y-69600300D01*
G75*
G02*
X118503700Y-69537800I62500J0D01*
G01*
X119203700Y-69537800D01*
G75*
G02*
X119266200Y-69600300I0J-62500D01*
G01*
X119266200Y-69725300D01*
G75*
G02*
X119203700Y-69787800I-62500J0D01*
G01*
X118503700Y-69787800D01*
G75*
G02*
X118441200Y-69725300I0J62500D01*
G01*
G37*
G36*
G01*
X117791200Y-69075300D02*
X117791200Y-68375300D01*
G75*
G02*
X117853700Y-68312800I62500J0D01*
G01*
X117978700Y-68312800D01*
G75*
G02*
X118041200Y-68375300I0J-62500D01*
G01*
X118041200Y-69075300D01*
G75*
G02*
X117978700Y-69137800I-62500J0D01*
G01*
X117853700Y-69137800D01*
G75*
G02*
X117791200Y-69075300I0J62500D01*
G01*
G37*
G36*
G01*
X117291200Y-69075300D02*
X117291200Y-68375300D01*
G75*
G02*
X117353700Y-68312800I62500J0D01*
G01*
X117478700Y-68312800D01*
G75*
G02*
X117541200Y-68375300I0J-62500D01*
G01*
X117541200Y-69075300D01*
G75*
G02*
X117478700Y-69137800I-62500J0D01*
G01*
X117353700Y-69137800D01*
G75*
G02*
X117291200Y-69075300I0J62500D01*
G01*
G37*
G36*
G01*
X116791200Y-69075300D02*
X116791200Y-68375300D01*
G75*
G02*
X116853700Y-68312800I62500J0D01*
G01*
X116978700Y-68312800D01*
G75*
G02*
X117041200Y-68375300I0J-62500D01*
G01*
X117041200Y-69075300D01*
G75*
G02*
X116978700Y-69137800I-62500J0D01*
G01*
X116853700Y-69137800D01*
G75*
G02*
X116791200Y-69075300I0J62500D01*
G01*
G37*
G36*
G01*
X116291200Y-69075300D02*
X116291200Y-68375300D01*
G75*
G02*
X116353700Y-68312800I62500J0D01*
G01*
X116478700Y-68312800D01*
G75*
G02*
X116541200Y-68375300I0J-62500D01*
G01*
X116541200Y-69075300D01*
G75*
G02*
X116478700Y-69137800I-62500J0D01*
G01*
X116353700Y-69137800D01*
G75*
G02*
X116291200Y-69075300I0J62500D01*
G01*
G37*
G36*
G01*
X115791200Y-69075300D02*
X115791200Y-68375300D01*
G75*
G02*
X115853700Y-68312800I62500J0D01*
G01*
X115978700Y-68312800D01*
G75*
G02*
X116041200Y-68375300I0J-62500D01*
G01*
X116041200Y-69075300D01*
G75*
G02*
X115978700Y-69137800I-62500J0D01*
G01*
X115853700Y-69137800D01*
G75*
G02*
X115791200Y-69075300I0J62500D01*
G01*
G37*
G36*
G01*
X115786200Y-70292801D02*
X115786200Y-69782799D01*
G75*
G02*
X116036199Y-69532800I249999J0D01*
G01*
X116546201Y-69532800D01*
G75*
G02*
X116796200Y-69782799I0J-249999D01*
G01*
X116796200Y-70292801D01*
G75*
G02*
X116546201Y-70542800I-249999J0D01*
G01*
X116036199Y-70542800D01*
G75*
G02*
X115786200Y-70292801I0J249999D01*
G01*
G37*
G36*
G01*
X115786200Y-71542801D02*
X115786200Y-71032799D01*
G75*
G02*
X116036199Y-70782800I249999J0D01*
G01*
X116546201Y-70782800D01*
G75*
G02*
X116796200Y-71032799I0J-249999D01*
G01*
X116796200Y-71542801D01*
G75*
G02*
X116546201Y-71792800I-249999J0D01*
G01*
X116036199Y-71792800D01*
G75*
G02*
X115786200Y-71542801I0J249999D01*
G01*
G37*
G36*
G01*
X117036200Y-70292801D02*
X117036200Y-69782799D01*
G75*
G02*
X117286199Y-69532800I249999J0D01*
G01*
X117796201Y-69532800D01*
G75*
G02*
X118046200Y-69782799I0J-249999D01*
G01*
X118046200Y-70292801D01*
G75*
G02*
X117796201Y-70542800I-249999J0D01*
G01*
X117286199Y-70542800D01*
G75*
G02*
X117036200Y-70292801I0J249999D01*
G01*
G37*
G36*
G01*
X117036200Y-71542801D02*
X117036200Y-71032799D01*
G75*
G02*
X117286199Y-70782800I249999J0D01*
G01*
X117796201Y-70782800D01*
G75*
G02*
X118046200Y-71032799I0J-249999D01*
G01*
X118046200Y-71542801D01*
G75*
G02*
X117796201Y-71792800I-249999J0D01*
G01*
X117286199Y-71792800D01*
G75*
G02*
X117036200Y-71542801I0J249999D01*
G01*
G37*
%TD*%
%TO.C,U2*%
G36*
G01*
X96676800Y-71041400D02*
X96676800Y-70741400D01*
G75*
G02*
X96826800Y-70591400I150000J0D01*
G01*
X98476800Y-70591400D01*
G75*
G02*
X98626800Y-70741400I0J-150000D01*
G01*
X98626800Y-71041400D01*
G75*
G02*
X98476800Y-71191400I-150000J0D01*
G01*
X96826800Y-71191400D01*
G75*
G02*
X96676800Y-71041400I0J150000D01*
G01*
G37*
G36*
G01*
X96676800Y-72311400D02*
X96676800Y-72011400D01*
G75*
G02*
X96826800Y-71861400I150000J0D01*
G01*
X98476800Y-71861400D01*
G75*
G02*
X98626800Y-72011400I0J-150000D01*
G01*
X98626800Y-72311400D01*
G75*
G02*
X98476800Y-72461400I-150000J0D01*
G01*
X96826800Y-72461400D01*
G75*
G02*
X96676800Y-72311400I0J150000D01*
G01*
G37*
G36*
G01*
X96676800Y-73581400D02*
X96676800Y-73281400D01*
G75*
G02*
X96826800Y-73131400I150000J0D01*
G01*
X98476800Y-73131400D01*
G75*
G02*
X98626800Y-73281400I0J-150000D01*
G01*
X98626800Y-73581400D01*
G75*
G02*
X98476800Y-73731400I-150000J0D01*
G01*
X96826800Y-73731400D01*
G75*
G02*
X96676800Y-73581400I0J150000D01*
G01*
G37*
G36*
G01*
X96676800Y-74851400D02*
X96676800Y-74551400D01*
G75*
G02*
X96826800Y-74401400I150000J0D01*
G01*
X98476800Y-74401400D01*
G75*
G02*
X98626800Y-74551400I0J-150000D01*
G01*
X98626800Y-74851400D01*
G75*
G02*
X98476800Y-75001400I-150000J0D01*
G01*
X96826800Y-75001400D01*
G75*
G02*
X96676800Y-74851400I0J150000D01*
G01*
G37*
G36*
G01*
X101626800Y-74851400D02*
X101626800Y-74551400D01*
G75*
G02*
X101776800Y-74401400I150000J0D01*
G01*
X103426800Y-74401400D01*
G75*
G02*
X103576800Y-74551400I0J-150000D01*
G01*
X103576800Y-74851400D01*
G75*
G02*
X103426800Y-75001400I-150000J0D01*
G01*
X101776800Y-75001400D01*
G75*
G02*
X101626800Y-74851400I0J150000D01*
G01*
G37*
G36*
G01*
X101626800Y-73581400D02*
X101626800Y-73281400D01*
G75*
G02*
X101776800Y-73131400I150000J0D01*
G01*
X103426800Y-73131400D01*
G75*
G02*
X103576800Y-73281400I0J-150000D01*
G01*
X103576800Y-73581400D01*
G75*
G02*
X103426800Y-73731400I-150000J0D01*
G01*
X101776800Y-73731400D01*
G75*
G02*
X101626800Y-73581400I0J150000D01*
G01*
G37*
G36*
G01*
X101626800Y-72311400D02*
X101626800Y-72011400D01*
G75*
G02*
X101776800Y-71861400I150000J0D01*
G01*
X103426800Y-71861400D01*
G75*
G02*
X103576800Y-72011400I0J-150000D01*
G01*
X103576800Y-72311400D01*
G75*
G02*
X103426800Y-72461400I-150000J0D01*
G01*
X101776800Y-72461400D01*
G75*
G02*
X101626800Y-72311400I0J150000D01*
G01*
G37*
G36*
G01*
X101626800Y-71041400D02*
X101626800Y-70741400D01*
G75*
G02*
X101776800Y-70591400I150000J0D01*
G01*
X103426800Y-70591400D01*
G75*
G02*
X103576800Y-70741400I0J-150000D01*
G01*
X103576800Y-71041400D01*
G75*
G02*
X103426800Y-71191400I-150000J0D01*
G01*
X101776800Y-71191400D01*
G75*
G02*
X101626800Y-71041400I0J150000D01*
G01*
G37*
%TD*%
D13*
%TO.C,U3*%
X99729800Y-67701200D03*
X99729800Y-65801200D03*
X97729800Y-66751200D03*
%TD*%
%TO.C,U4*%
G36*
G01*
X105696200Y-67863200D02*
X105696200Y-67663200D01*
G75*
G02*
X105796200Y-67563200I100000J0D01*
G01*
X107071200Y-67563200D01*
G75*
G02*
X107171200Y-67663200I0J-100000D01*
G01*
X107171200Y-67863200D01*
G75*
G02*
X107071200Y-67963200I-100000J0D01*
G01*
X105796200Y-67963200D01*
G75*
G02*
X105696200Y-67863200I0J100000D01*
G01*
G37*
G36*
G01*
X105696200Y-68513200D02*
X105696200Y-68313200D01*
G75*
G02*
X105796200Y-68213200I100000J0D01*
G01*
X107071200Y-68213200D01*
G75*
G02*
X107171200Y-68313200I0J-100000D01*
G01*
X107171200Y-68513200D01*
G75*
G02*
X107071200Y-68613200I-100000J0D01*
G01*
X105796200Y-68613200D01*
G75*
G02*
X105696200Y-68513200I0J100000D01*
G01*
G37*
G36*
G01*
X105696200Y-69163200D02*
X105696200Y-68963200D01*
G75*
G02*
X105796200Y-68863200I100000J0D01*
G01*
X107071200Y-68863200D01*
G75*
G02*
X107171200Y-68963200I0J-100000D01*
G01*
X107171200Y-69163200D01*
G75*
G02*
X107071200Y-69263200I-100000J0D01*
G01*
X105796200Y-69263200D01*
G75*
G02*
X105696200Y-69163200I0J100000D01*
G01*
G37*
G36*
G01*
X105696200Y-69813200D02*
X105696200Y-69613200D01*
G75*
G02*
X105796200Y-69513200I100000J0D01*
G01*
X107071200Y-69513200D01*
G75*
G02*
X107171200Y-69613200I0J-100000D01*
G01*
X107171200Y-69813200D01*
G75*
G02*
X107071200Y-69913200I-100000J0D01*
G01*
X105796200Y-69913200D01*
G75*
G02*
X105696200Y-69813200I0J100000D01*
G01*
G37*
G36*
G01*
X105696200Y-70463200D02*
X105696200Y-70263200D01*
G75*
G02*
X105796200Y-70163200I100000J0D01*
G01*
X107071200Y-70163200D01*
G75*
G02*
X107171200Y-70263200I0J-100000D01*
G01*
X107171200Y-70463200D01*
G75*
G02*
X107071200Y-70563200I-100000J0D01*
G01*
X105796200Y-70563200D01*
G75*
G02*
X105696200Y-70463200I0J100000D01*
G01*
G37*
G36*
G01*
X105696200Y-71113200D02*
X105696200Y-70913200D01*
G75*
G02*
X105796200Y-70813200I100000J0D01*
G01*
X107071200Y-70813200D01*
G75*
G02*
X107171200Y-70913200I0J-100000D01*
G01*
X107171200Y-71113200D01*
G75*
G02*
X107071200Y-71213200I-100000J0D01*
G01*
X105796200Y-71213200D01*
G75*
G02*
X105696200Y-71113200I0J100000D01*
G01*
G37*
G36*
G01*
X105696200Y-71763200D02*
X105696200Y-71563200D01*
G75*
G02*
X105796200Y-71463200I100000J0D01*
G01*
X107071200Y-71463200D01*
G75*
G02*
X107171200Y-71563200I0J-100000D01*
G01*
X107171200Y-71763200D01*
G75*
G02*
X107071200Y-71863200I-100000J0D01*
G01*
X105796200Y-71863200D01*
G75*
G02*
X105696200Y-71763200I0J100000D01*
G01*
G37*
G36*
G01*
X105696200Y-72413200D02*
X105696200Y-72213200D01*
G75*
G02*
X105796200Y-72113200I100000J0D01*
G01*
X107071200Y-72113200D01*
G75*
G02*
X107171200Y-72213200I0J-100000D01*
G01*
X107171200Y-72413200D01*
G75*
G02*
X107071200Y-72513200I-100000J0D01*
G01*
X105796200Y-72513200D01*
G75*
G02*
X105696200Y-72413200I0J100000D01*
G01*
G37*
G36*
G01*
X105696200Y-73063200D02*
X105696200Y-72863200D01*
G75*
G02*
X105796200Y-72763200I100000J0D01*
G01*
X107071200Y-72763200D01*
G75*
G02*
X107171200Y-72863200I0J-100000D01*
G01*
X107171200Y-73063200D01*
G75*
G02*
X107071200Y-73163200I-100000J0D01*
G01*
X105796200Y-73163200D01*
G75*
G02*
X105696200Y-73063200I0J100000D01*
G01*
G37*
G36*
G01*
X105696200Y-73713200D02*
X105696200Y-73513200D01*
G75*
G02*
X105796200Y-73413200I100000J0D01*
G01*
X107071200Y-73413200D01*
G75*
G02*
X107171200Y-73513200I0J-100000D01*
G01*
X107171200Y-73713200D01*
G75*
G02*
X107071200Y-73813200I-100000J0D01*
G01*
X105796200Y-73813200D01*
G75*
G02*
X105696200Y-73713200I0J100000D01*
G01*
G37*
G36*
G01*
X111421200Y-73713200D02*
X111421200Y-73513200D01*
G75*
G02*
X111521200Y-73413200I100000J0D01*
G01*
X112796200Y-73413200D01*
G75*
G02*
X112896200Y-73513200I0J-100000D01*
G01*
X112896200Y-73713200D01*
G75*
G02*
X112796200Y-73813200I-100000J0D01*
G01*
X111521200Y-73813200D01*
G75*
G02*
X111421200Y-73713200I0J100000D01*
G01*
G37*
G36*
G01*
X111421200Y-73063200D02*
X111421200Y-72863200D01*
G75*
G02*
X111521200Y-72763200I100000J0D01*
G01*
X112796200Y-72763200D01*
G75*
G02*
X112896200Y-72863200I0J-100000D01*
G01*
X112896200Y-73063200D01*
G75*
G02*
X112796200Y-73163200I-100000J0D01*
G01*
X111521200Y-73163200D01*
G75*
G02*
X111421200Y-73063200I0J100000D01*
G01*
G37*
G36*
G01*
X111421200Y-72413200D02*
X111421200Y-72213200D01*
G75*
G02*
X111521200Y-72113200I100000J0D01*
G01*
X112796200Y-72113200D01*
G75*
G02*
X112896200Y-72213200I0J-100000D01*
G01*
X112896200Y-72413200D01*
G75*
G02*
X112796200Y-72513200I-100000J0D01*
G01*
X111521200Y-72513200D01*
G75*
G02*
X111421200Y-72413200I0J100000D01*
G01*
G37*
G36*
G01*
X111421200Y-71763200D02*
X111421200Y-71563200D01*
G75*
G02*
X111521200Y-71463200I100000J0D01*
G01*
X112796200Y-71463200D01*
G75*
G02*
X112896200Y-71563200I0J-100000D01*
G01*
X112896200Y-71763200D01*
G75*
G02*
X112796200Y-71863200I-100000J0D01*
G01*
X111521200Y-71863200D01*
G75*
G02*
X111421200Y-71763200I0J100000D01*
G01*
G37*
G36*
G01*
X111421200Y-71113200D02*
X111421200Y-70913200D01*
G75*
G02*
X111521200Y-70813200I100000J0D01*
G01*
X112796200Y-70813200D01*
G75*
G02*
X112896200Y-70913200I0J-100000D01*
G01*
X112896200Y-71113200D01*
G75*
G02*
X112796200Y-71213200I-100000J0D01*
G01*
X111521200Y-71213200D01*
G75*
G02*
X111421200Y-71113200I0J100000D01*
G01*
G37*
G36*
G01*
X111421200Y-70463200D02*
X111421200Y-70263200D01*
G75*
G02*
X111521200Y-70163200I100000J0D01*
G01*
X112796200Y-70163200D01*
G75*
G02*
X112896200Y-70263200I0J-100000D01*
G01*
X112896200Y-70463200D01*
G75*
G02*
X112796200Y-70563200I-100000J0D01*
G01*
X111521200Y-70563200D01*
G75*
G02*
X111421200Y-70463200I0J100000D01*
G01*
G37*
G36*
G01*
X111421200Y-69813200D02*
X111421200Y-69613200D01*
G75*
G02*
X111521200Y-69513200I100000J0D01*
G01*
X112796200Y-69513200D01*
G75*
G02*
X112896200Y-69613200I0J-100000D01*
G01*
X112896200Y-69813200D01*
G75*
G02*
X112796200Y-69913200I-100000J0D01*
G01*
X111521200Y-69913200D01*
G75*
G02*
X111421200Y-69813200I0J100000D01*
G01*
G37*
G36*
G01*
X111421200Y-69163200D02*
X111421200Y-68963200D01*
G75*
G02*
X111521200Y-68863200I100000J0D01*
G01*
X112796200Y-68863200D01*
G75*
G02*
X112896200Y-68963200I0J-100000D01*
G01*
X112896200Y-69163200D01*
G75*
G02*
X112796200Y-69263200I-100000J0D01*
G01*
X111521200Y-69263200D01*
G75*
G02*
X111421200Y-69163200I0J100000D01*
G01*
G37*
G36*
G01*
X111421200Y-68513200D02*
X111421200Y-68313200D01*
G75*
G02*
X111521200Y-68213200I100000J0D01*
G01*
X112796200Y-68213200D01*
G75*
G02*
X112896200Y-68313200I0J-100000D01*
G01*
X112896200Y-68513200D01*
G75*
G02*
X112796200Y-68613200I-100000J0D01*
G01*
X111521200Y-68613200D01*
G75*
G02*
X111421200Y-68513200I0J100000D01*
G01*
G37*
G36*
G01*
X111421200Y-67863200D02*
X111421200Y-67663200D01*
G75*
G02*
X111521200Y-67563200I100000J0D01*
G01*
X112796200Y-67563200D01*
G75*
G02*
X112896200Y-67663200I0J-100000D01*
G01*
X112896200Y-67863200D01*
G75*
G02*
X112796200Y-67963200I-100000J0D01*
G01*
X111521200Y-67963200D01*
G75*
G02*
X111421200Y-67863200I0J100000D01*
G01*
G37*
%TD*%
D14*
%TO.C,Y1*%
X116672000Y-77595200D03*
X118872000Y-77595200D03*
X118872000Y-75895200D03*
X116672000Y-75895200D03*
%TD*%
M02*
