%TF.GenerationSoftware,KiCad,Pcbnew,(5.1.10)-1*%
%TF.CreationDate,2021-07-16T14:20:34-05:00*%
%TF.ProjectId,transmisor,7472616e-736d-4697-936f-722e6b696361,rev?*%
%TF.SameCoordinates,Original*%
%TF.FileFunction,Copper,L1,Top*%
%TF.FilePolarity,Positive*%
%FSLAX46Y46*%
G04 Gerber Fmt 4.6, Leading zero omitted, Abs format (unit mm)*
G04 Created by KiCad (PCBNEW (5.1.10)-1) date 2021-07-16 14:20:34*
%MOMM*%
%LPD*%
G01*
G04 APERTURE LIST*
%TA.AperFunction,ComponentPad*%
%ADD10C,2.250000*%
%TD*%
%TA.AperFunction,ComponentPad*%
%ADD11C,2.050000*%
%TD*%
%TA.AperFunction,SMDPad,CuDef*%
%ADD12R,1.900000X1.200000*%
%TD*%
%TA.AperFunction,ComponentPad*%
%ADD13O,1.900000X1.200000*%
%TD*%
%TA.AperFunction,SMDPad,CuDef*%
%ADD14R,1.900000X1.500000*%
%TD*%
%TA.AperFunction,ComponentPad*%
%ADD15C,1.450000*%
%TD*%
%TA.AperFunction,SMDPad,CuDef*%
%ADD16R,1.350000X0.400000*%
%TD*%
%TA.AperFunction,SMDPad,CuDef*%
%ADD17R,1.060000X0.650000*%
%TD*%
%TA.AperFunction,ComponentPad*%
%ADD18O,1.700000X1.700000*%
%TD*%
%TA.AperFunction,ComponentPad*%
%ADD19R,1.700000X1.700000*%
%TD*%
%TA.AperFunction,ComponentPad*%
%ADD20C,2.000000*%
%TD*%
%TA.AperFunction,ComponentPad*%
%ADD21R,1.000000X1.000000*%
%TD*%
%TA.AperFunction,ComponentPad*%
%ADD22O,1.000000X1.000000*%
%TD*%
%TA.AperFunction,SMDPad,CuDef*%
%ADD23R,2.500000X2.500000*%
%TD*%
%TA.AperFunction,SMDPad,CuDef*%
%ADD24R,0.900000X0.800000*%
%TD*%
%TA.AperFunction,SMDPad,CuDef*%
%ADD25R,1.400000X1.200000*%
%TD*%
%TA.AperFunction,ViaPad*%
%ADD26C,0.600000*%
%TD*%
%TA.AperFunction,Conductor*%
%ADD27C,0.500000*%
%TD*%
%TA.AperFunction,Conductor*%
%ADD28C,0.250000*%
%TD*%
%TA.AperFunction,Conductor*%
%ADD29C,0.300000*%
%TD*%
%TA.AperFunction,Conductor*%
%ADD30C,1.000000*%
%TD*%
%TA.AperFunction,Conductor*%
%ADD31C,0.750000*%
%TD*%
G04 APERTURE END LIST*
%TO.P,C21,2*%
%TO.N,GND*%
%TA.AperFunction,SMDPad,CuDef*%
G36*
G01*
X104503400Y-74977600D02*
X104843400Y-74977600D01*
G75*
G02*
X104983400Y-75117600I0J-140000D01*
G01*
X104983400Y-75397600D01*
G75*
G02*
X104843400Y-75537600I-140000J0D01*
G01*
X104503400Y-75537600D01*
G75*
G02*
X104363400Y-75397600I0J140000D01*
G01*
X104363400Y-75117600D01*
G75*
G02*
X104503400Y-74977600I140000J0D01*
G01*
G37*
%TD.AperFunction*%
%TO.P,C21,1*%
%TO.N,NRST*%
%TA.AperFunction,SMDPad,CuDef*%
G36*
G01*
X104503400Y-74017600D02*
X104843400Y-74017600D01*
G75*
G02*
X104983400Y-74157600I0J-140000D01*
G01*
X104983400Y-74437600D01*
G75*
G02*
X104843400Y-74577600I-140000J0D01*
G01*
X104503400Y-74577600D01*
G75*
G02*
X104363400Y-74437600I0J140000D01*
G01*
X104363400Y-74157600D01*
G75*
G02*
X104503400Y-74017600I140000J0D01*
G01*
G37*
%TD.AperFunction*%
%TD*%
%TO.P,D2,2*%
%TO.N,Net-(D2-Pad2)*%
%TA.AperFunction,SMDPad,CuDef*%
G36*
G01*
X108303350Y-63951700D02*
X108815850Y-63951700D01*
G75*
G02*
X109034600Y-64170450I0J-218750D01*
G01*
X109034600Y-64607950D01*
G75*
G02*
X108815850Y-64826700I-218750J0D01*
G01*
X108303350Y-64826700D01*
G75*
G02*
X108084600Y-64607950I0J218750D01*
G01*
X108084600Y-64170450D01*
G75*
G02*
X108303350Y-63951700I218750J0D01*
G01*
G37*
%TD.AperFunction*%
%TO.P,D2,1*%
%TO.N,GND*%
%TA.AperFunction,SMDPad,CuDef*%
G36*
G01*
X108303350Y-62376700D02*
X108815850Y-62376700D01*
G75*
G02*
X109034600Y-62595450I0J-218750D01*
G01*
X109034600Y-63032950D01*
G75*
G02*
X108815850Y-63251700I-218750J0D01*
G01*
X108303350Y-63251700D01*
G75*
G02*
X108084600Y-63032950I0J218750D01*
G01*
X108084600Y-62595450D01*
G75*
G02*
X108303350Y-62376700I218750J0D01*
G01*
G37*
%TD.AperFunction*%
%TD*%
%TO.P,D1,2*%
%TO.N,5V*%
%TA.AperFunction,SMDPad,CuDef*%
G36*
G01*
X94558600Y-77294450D02*
X94558600Y-76781950D01*
G75*
G02*
X94777350Y-76563200I218750J0D01*
G01*
X95214850Y-76563200D01*
G75*
G02*
X95433600Y-76781950I0J-218750D01*
G01*
X95433600Y-77294450D01*
G75*
G02*
X95214850Y-77513200I-218750J0D01*
G01*
X94777350Y-77513200D01*
G75*
G02*
X94558600Y-77294450I0J218750D01*
G01*
G37*
%TD.AperFunction*%
%TO.P,D1,1*%
%TO.N,Net-(D1-Pad1)*%
%TA.AperFunction,SMDPad,CuDef*%
G36*
G01*
X92983600Y-77294450D02*
X92983600Y-76781950D01*
G75*
G02*
X93202350Y-76563200I218750J0D01*
G01*
X93639850Y-76563200D01*
G75*
G02*
X93858600Y-76781950I0J-218750D01*
G01*
X93858600Y-77294450D01*
G75*
G02*
X93639850Y-77513200I-218750J0D01*
G01*
X93202350Y-77513200D01*
G75*
G02*
X92983600Y-77294450I0J218750D01*
G01*
G37*
%TD.AperFunction*%
%TD*%
D10*
%TO.P,AE1,2*%
%TO.N,GND*%
X127050800Y-72440800D03*
X127050800Y-67360800D03*
X132130800Y-67360800D03*
X132130800Y-72440800D03*
D11*
%TO.P,AE1,1*%
%TO.N,Net-(AE1-Pad1)*%
X129590800Y-69900800D03*
%TD*%
%TO.P,U6,24*%
%TO.N,I2C1_SDA*%
%TA.AperFunction,SMDPad,CuDef*%
G36*
G01*
X111784400Y-64802000D02*
X111784400Y-64952000D01*
G75*
G02*
X111709400Y-65027000I-75000J0D01*
G01*
X111009400Y-65027000D01*
G75*
G02*
X110934400Y-64952000I0J75000D01*
G01*
X110934400Y-64802000D01*
G75*
G02*
X111009400Y-64727000I75000J0D01*
G01*
X111709400Y-64727000D01*
G75*
G02*
X111784400Y-64802000I0J-75000D01*
G01*
G37*
%TD.AperFunction*%
%TO.P,U6,23*%
%TO.N,I2C1_CLK*%
%TA.AperFunction,SMDPad,CuDef*%
G36*
G01*
X111784400Y-64302000D02*
X111784400Y-64452000D01*
G75*
G02*
X111709400Y-64527000I-75000J0D01*
G01*
X111009400Y-64527000D01*
G75*
G02*
X110934400Y-64452000I0J75000D01*
G01*
X110934400Y-64302000D01*
G75*
G02*
X111009400Y-64227000I75000J0D01*
G01*
X111709400Y-64227000D01*
G75*
G02*
X111784400Y-64302000I0J-75000D01*
G01*
G37*
%TD.AperFunction*%
%TO.P,U6,22*%
%TO.N,N/C*%
%TA.AperFunction,SMDPad,CuDef*%
G36*
G01*
X111784400Y-63802000D02*
X111784400Y-63952000D01*
G75*
G02*
X111709400Y-64027000I-75000J0D01*
G01*
X111009400Y-64027000D01*
G75*
G02*
X110934400Y-63952000I0J75000D01*
G01*
X110934400Y-63802000D01*
G75*
G02*
X111009400Y-63727000I75000J0D01*
G01*
X111709400Y-63727000D01*
G75*
G02*
X111784400Y-63802000I0J-75000D01*
G01*
G37*
%TD.AperFunction*%
%TO.P,U6,21*%
%TA.AperFunction,SMDPad,CuDef*%
G36*
G01*
X111784400Y-63302000D02*
X111784400Y-63452000D01*
G75*
G02*
X111709400Y-63527000I-75000J0D01*
G01*
X111009400Y-63527000D01*
G75*
G02*
X110934400Y-63452000I0J75000D01*
G01*
X110934400Y-63302000D01*
G75*
G02*
X111009400Y-63227000I75000J0D01*
G01*
X111709400Y-63227000D01*
G75*
G02*
X111784400Y-63302000I0J-75000D01*
G01*
G37*
%TD.AperFunction*%
%TO.P,U6,20*%
%TO.N,Net-(C20-Pad1)*%
%TA.AperFunction,SMDPad,CuDef*%
G36*
G01*
X111784400Y-62802000D02*
X111784400Y-62952000D01*
G75*
G02*
X111709400Y-63027000I-75000J0D01*
G01*
X111009400Y-63027000D01*
G75*
G02*
X110934400Y-62952000I0J75000D01*
G01*
X110934400Y-62802000D01*
G75*
G02*
X111009400Y-62727000I75000J0D01*
G01*
X111709400Y-62727000D01*
G75*
G02*
X111784400Y-62802000I0J-75000D01*
G01*
G37*
%TD.AperFunction*%
%TO.P,U6,19*%
%TO.N,N/C*%
%TA.AperFunction,SMDPad,CuDef*%
G36*
G01*
X111784400Y-62302000D02*
X111784400Y-62452000D01*
G75*
G02*
X111709400Y-62527000I-75000J0D01*
G01*
X111009400Y-62527000D01*
G75*
G02*
X110934400Y-62452000I0J75000D01*
G01*
X110934400Y-62302000D01*
G75*
G02*
X111009400Y-62227000I75000J0D01*
G01*
X111709400Y-62227000D01*
G75*
G02*
X111784400Y-62302000I0J-75000D01*
G01*
G37*
%TD.AperFunction*%
%TO.P,U6,18*%
%TO.N,GND*%
%TA.AperFunction,SMDPad,CuDef*%
G36*
G01*
X112134400Y-62102000D02*
X111984400Y-62102000D01*
G75*
G02*
X111909400Y-62027000I0J75000D01*
G01*
X111909400Y-61327000D01*
G75*
G02*
X111984400Y-61252000I75000J0D01*
G01*
X112134400Y-61252000D01*
G75*
G02*
X112209400Y-61327000I0J-75000D01*
G01*
X112209400Y-62027000D01*
G75*
G02*
X112134400Y-62102000I-75000J0D01*
G01*
G37*
%TD.AperFunction*%
%TO.P,U6,17*%
%TO.N,N/C*%
%TA.AperFunction,SMDPad,CuDef*%
G36*
G01*
X112634400Y-62102000D02*
X112484400Y-62102000D01*
G75*
G02*
X112409400Y-62027000I0J75000D01*
G01*
X112409400Y-61327000D01*
G75*
G02*
X112484400Y-61252000I75000J0D01*
G01*
X112634400Y-61252000D01*
G75*
G02*
X112709400Y-61327000I0J-75000D01*
G01*
X112709400Y-62027000D01*
G75*
G02*
X112634400Y-62102000I-75000J0D01*
G01*
G37*
%TD.AperFunction*%
%TO.P,U6,16*%
%TA.AperFunction,SMDPad,CuDef*%
G36*
G01*
X113134400Y-62102000D02*
X112984400Y-62102000D01*
G75*
G02*
X112909400Y-62027000I0J75000D01*
G01*
X112909400Y-61327000D01*
G75*
G02*
X112984400Y-61252000I75000J0D01*
G01*
X113134400Y-61252000D01*
G75*
G02*
X113209400Y-61327000I0J-75000D01*
G01*
X113209400Y-62027000D01*
G75*
G02*
X113134400Y-62102000I-75000J0D01*
G01*
G37*
%TD.AperFunction*%
%TO.P,U6,15*%
%TA.AperFunction,SMDPad,CuDef*%
G36*
G01*
X113634400Y-62102000D02*
X113484400Y-62102000D01*
G75*
G02*
X113409400Y-62027000I0J75000D01*
G01*
X113409400Y-61327000D01*
G75*
G02*
X113484400Y-61252000I75000J0D01*
G01*
X113634400Y-61252000D01*
G75*
G02*
X113709400Y-61327000I0J-75000D01*
G01*
X113709400Y-62027000D01*
G75*
G02*
X113634400Y-62102000I-75000J0D01*
G01*
G37*
%TD.AperFunction*%
%TO.P,U6,14*%
%TA.AperFunction,SMDPad,CuDef*%
G36*
G01*
X114134400Y-62102000D02*
X113984400Y-62102000D01*
G75*
G02*
X113909400Y-62027000I0J75000D01*
G01*
X113909400Y-61327000D01*
G75*
G02*
X113984400Y-61252000I75000J0D01*
G01*
X114134400Y-61252000D01*
G75*
G02*
X114209400Y-61327000I0J-75000D01*
G01*
X114209400Y-62027000D01*
G75*
G02*
X114134400Y-62102000I-75000J0D01*
G01*
G37*
%TD.AperFunction*%
%TO.P,U6,13*%
%TO.N,+3V3*%
%TA.AperFunction,SMDPad,CuDef*%
G36*
G01*
X114634400Y-62102000D02*
X114484400Y-62102000D01*
G75*
G02*
X114409400Y-62027000I0J75000D01*
G01*
X114409400Y-61327000D01*
G75*
G02*
X114484400Y-61252000I75000J0D01*
G01*
X114634400Y-61252000D01*
G75*
G02*
X114709400Y-61327000I0J-75000D01*
G01*
X114709400Y-62027000D01*
G75*
G02*
X114634400Y-62102000I-75000J0D01*
G01*
G37*
%TD.AperFunction*%
%TO.P,U6,12*%
%TO.N,Net-(U6-Pad12)*%
%TA.AperFunction,SMDPad,CuDef*%
G36*
G01*
X115684400Y-62302000D02*
X115684400Y-62452000D01*
G75*
G02*
X115609400Y-62527000I-75000J0D01*
G01*
X114909400Y-62527000D01*
G75*
G02*
X114834400Y-62452000I0J75000D01*
G01*
X114834400Y-62302000D01*
G75*
G02*
X114909400Y-62227000I75000J0D01*
G01*
X115609400Y-62227000D01*
G75*
G02*
X115684400Y-62302000I0J-75000D01*
G01*
G37*
%TD.AperFunction*%
%TO.P,U6,11*%
%TO.N,GND*%
%TA.AperFunction,SMDPad,CuDef*%
G36*
G01*
X115684400Y-62802000D02*
X115684400Y-62952000D01*
G75*
G02*
X115609400Y-63027000I-75000J0D01*
G01*
X114909400Y-63027000D01*
G75*
G02*
X114834400Y-62952000I0J75000D01*
G01*
X114834400Y-62802000D01*
G75*
G02*
X114909400Y-62727000I75000J0D01*
G01*
X115609400Y-62727000D01*
G75*
G02*
X115684400Y-62802000I0J-75000D01*
G01*
G37*
%TD.AperFunction*%
%TO.P,U6,10*%
%TO.N,Net-(C19-Pad1)*%
%TA.AperFunction,SMDPad,CuDef*%
G36*
G01*
X115684400Y-63302000D02*
X115684400Y-63452000D01*
G75*
G02*
X115609400Y-63527000I-75000J0D01*
G01*
X114909400Y-63527000D01*
G75*
G02*
X114834400Y-63452000I0J75000D01*
G01*
X114834400Y-63302000D01*
G75*
G02*
X114909400Y-63227000I75000J0D01*
G01*
X115609400Y-63227000D01*
G75*
G02*
X115684400Y-63302000I0J-75000D01*
G01*
G37*
%TD.AperFunction*%
%TO.P,U6,9*%
%TO.N,GND*%
%TA.AperFunction,SMDPad,CuDef*%
G36*
G01*
X115684400Y-63802000D02*
X115684400Y-63952000D01*
G75*
G02*
X115609400Y-64027000I-75000J0D01*
G01*
X114909400Y-64027000D01*
G75*
G02*
X114834400Y-63952000I0J75000D01*
G01*
X114834400Y-63802000D01*
G75*
G02*
X114909400Y-63727000I75000J0D01*
G01*
X115609400Y-63727000D01*
G75*
G02*
X115684400Y-63802000I0J-75000D01*
G01*
G37*
%TD.AperFunction*%
%TO.P,U6,8*%
%TO.N,+3V3*%
%TA.AperFunction,SMDPad,CuDef*%
G36*
G01*
X115684400Y-64302000D02*
X115684400Y-64452000D01*
G75*
G02*
X115609400Y-64527000I-75000J0D01*
G01*
X114909400Y-64527000D01*
G75*
G02*
X114834400Y-64452000I0J75000D01*
G01*
X114834400Y-64302000D01*
G75*
G02*
X114909400Y-64227000I75000J0D01*
G01*
X115609400Y-64227000D01*
G75*
G02*
X115684400Y-64302000I0J-75000D01*
G01*
G37*
%TD.AperFunction*%
%TO.P,U6,7*%
%TO.N,Net-(U6-Pad7)*%
%TA.AperFunction,SMDPad,CuDef*%
G36*
G01*
X115684400Y-64802000D02*
X115684400Y-64952000D01*
G75*
G02*
X115609400Y-65027000I-75000J0D01*
G01*
X114909400Y-65027000D01*
G75*
G02*
X114834400Y-64952000I0J75000D01*
G01*
X114834400Y-64802000D01*
G75*
G02*
X114909400Y-64727000I75000J0D01*
G01*
X115609400Y-64727000D01*
G75*
G02*
X115684400Y-64802000I0J-75000D01*
G01*
G37*
%TD.AperFunction*%
%TO.P,U6,6*%
%TO.N,Net-(U6-Pad6)*%
%TA.AperFunction,SMDPad,CuDef*%
G36*
G01*
X114634400Y-66002000D02*
X114484400Y-66002000D01*
G75*
G02*
X114409400Y-65927000I0J75000D01*
G01*
X114409400Y-65227000D01*
G75*
G02*
X114484400Y-65152000I75000J0D01*
G01*
X114634400Y-65152000D01*
G75*
G02*
X114709400Y-65227000I0J-75000D01*
G01*
X114709400Y-65927000D01*
G75*
G02*
X114634400Y-66002000I-75000J0D01*
G01*
G37*
%TD.AperFunction*%
%TO.P,U6,5*%
%TO.N,N/C*%
%TA.AperFunction,SMDPad,CuDef*%
G36*
G01*
X114134400Y-66002000D02*
X113984400Y-66002000D01*
G75*
G02*
X113909400Y-65927000I0J75000D01*
G01*
X113909400Y-65227000D01*
G75*
G02*
X113984400Y-65152000I75000J0D01*
G01*
X114134400Y-65152000D01*
G75*
G02*
X114209400Y-65227000I0J-75000D01*
G01*
X114209400Y-65927000D01*
G75*
G02*
X114134400Y-66002000I-75000J0D01*
G01*
G37*
%TD.AperFunction*%
%TO.P,U6,4*%
%TA.AperFunction,SMDPad,CuDef*%
G36*
G01*
X113634400Y-66002000D02*
X113484400Y-66002000D01*
G75*
G02*
X113409400Y-65927000I0J75000D01*
G01*
X113409400Y-65227000D01*
G75*
G02*
X113484400Y-65152000I75000J0D01*
G01*
X113634400Y-65152000D01*
G75*
G02*
X113709400Y-65227000I0J-75000D01*
G01*
X113709400Y-65927000D01*
G75*
G02*
X113634400Y-66002000I-75000J0D01*
G01*
G37*
%TD.AperFunction*%
%TO.P,U6,3*%
%TA.AperFunction,SMDPad,CuDef*%
G36*
G01*
X113134400Y-66002000D02*
X112984400Y-66002000D01*
G75*
G02*
X112909400Y-65927000I0J75000D01*
G01*
X112909400Y-65227000D01*
G75*
G02*
X112984400Y-65152000I75000J0D01*
G01*
X113134400Y-65152000D01*
G75*
G02*
X113209400Y-65227000I0J-75000D01*
G01*
X113209400Y-65927000D01*
G75*
G02*
X113134400Y-66002000I-75000J0D01*
G01*
G37*
%TD.AperFunction*%
%TO.P,U6,2*%
%TA.AperFunction,SMDPad,CuDef*%
G36*
G01*
X112634400Y-66002000D02*
X112484400Y-66002000D01*
G75*
G02*
X112409400Y-65927000I0J75000D01*
G01*
X112409400Y-65227000D01*
G75*
G02*
X112484400Y-65152000I75000J0D01*
G01*
X112634400Y-65152000D01*
G75*
G02*
X112709400Y-65227000I0J-75000D01*
G01*
X112709400Y-65927000D01*
G75*
G02*
X112634400Y-66002000I-75000J0D01*
G01*
G37*
%TD.AperFunction*%
%TO.P,U6,1*%
%TO.N,Net-(U6-Pad1)*%
%TA.AperFunction,SMDPad,CuDef*%
G36*
G01*
X112134400Y-66002000D02*
X111984400Y-66002000D01*
G75*
G02*
X111909400Y-65927000I0J75000D01*
G01*
X111909400Y-65227000D01*
G75*
G02*
X111984400Y-65152000I75000J0D01*
G01*
X112134400Y-65152000D01*
G75*
G02*
X112209400Y-65227000I0J-75000D01*
G01*
X112209400Y-65927000D01*
G75*
G02*
X112134400Y-66002000I-75000J0D01*
G01*
G37*
%TD.AperFunction*%
%TD*%
%TO.P,C20,2*%
%TO.N,GND*%
%TA.AperFunction,SMDPad,CuDef*%
G36*
G01*
X109786600Y-63674600D02*
X110126600Y-63674600D01*
G75*
G02*
X110266600Y-63814600I0J-140000D01*
G01*
X110266600Y-64094600D01*
G75*
G02*
X110126600Y-64234600I-140000J0D01*
G01*
X109786600Y-64234600D01*
G75*
G02*
X109646600Y-64094600I0J140000D01*
G01*
X109646600Y-63814600D01*
G75*
G02*
X109786600Y-63674600I140000J0D01*
G01*
G37*
%TD.AperFunction*%
%TO.P,C20,1*%
%TO.N,Net-(C20-Pad1)*%
%TA.AperFunction,SMDPad,CuDef*%
G36*
G01*
X109786600Y-62714600D02*
X110126600Y-62714600D01*
G75*
G02*
X110266600Y-62854600I0J-140000D01*
G01*
X110266600Y-63134600D01*
G75*
G02*
X110126600Y-63274600I-140000J0D01*
G01*
X109786600Y-63274600D01*
G75*
G02*
X109646600Y-63134600I0J140000D01*
G01*
X109646600Y-62854600D01*
G75*
G02*
X109786600Y-62714600I140000J0D01*
G01*
G37*
%TD.AperFunction*%
%TD*%
%TO.P,C19,2*%
%TO.N,GND*%
%TA.AperFunction,SMDPad,CuDef*%
G36*
G01*
X117319400Y-63619200D02*
X117319400Y-63279200D01*
G75*
G02*
X117459400Y-63139200I140000J0D01*
G01*
X117739400Y-63139200D01*
G75*
G02*
X117879400Y-63279200I0J-140000D01*
G01*
X117879400Y-63619200D01*
G75*
G02*
X117739400Y-63759200I-140000J0D01*
G01*
X117459400Y-63759200D01*
G75*
G02*
X117319400Y-63619200I0J140000D01*
G01*
G37*
%TD.AperFunction*%
%TO.P,C19,1*%
%TO.N,Net-(C19-Pad1)*%
%TA.AperFunction,SMDPad,CuDef*%
G36*
G01*
X116359400Y-63619200D02*
X116359400Y-63279200D01*
G75*
G02*
X116499400Y-63139200I140000J0D01*
G01*
X116779400Y-63139200D01*
G75*
G02*
X116919400Y-63279200I0J-140000D01*
G01*
X116919400Y-63619200D01*
G75*
G02*
X116779400Y-63759200I-140000J0D01*
G01*
X116499400Y-63759200D01*
G75*
G02*
X116359400Y-63619200I0J140000D01*
G01*
G37*
%TD.AperFunction*%
%TD*%
%TO.P,C18,2*%
%TO.N,GND*%
%TA.AperFunction,SMDPad,CuDef*%
G36*
G01*
X116873200Y-62150600D02*
X117213200Y-62150600D01*
G75*
G02*
X117353200Y-62290600I0J-140000D01*
G01*
X117353200Y-62570600D01*
G75*
G02*
X117213200Y-62710600I-140000J0D01*
G01*
X116873200Y-62710600D01*
G75*
G02*
X116733200Y-62570600I0J140000D01*
G01*
X116733200Y-62290600D01*
G75*
G02*
X116873200Y-62150600I140000J0D01*
G01*
G37*
%TD.AperFunction*%
%TO.P,C18,1*%
%TO.N,+3V3*%
%TA.AperFunction,SMDPad,CuDef*%
G36*
G01*
X116873200Y-61190600D02*
X117213200Y-61190600D01*
G75*
G02*
X117353200Y-61330600I0J-140000D01*
G01*
X117353200Y-61610600D01*
G75*
G02*
X117213200Y-61750600I-140000J0D01*
G01*
X116873200Y-61750600D01*
G75*
G02*
X116733200Y-61610600I0J140000D01*
G01*
X116733200Y-61330600D01*
G75*
G02*
X116873200Y-61190600I140000J0D01*
G01*
G37*
%TD.AperFunction*%
%TD*%
%TO.P,C17,2*%
%TO.N,GND*%
%TA.AperFunction,SMDPad,CuDef*%
G36*
G01*
X117395600Y-65244800D02*
X117395600Y-64904800D01*
G75*
G02*
X117535600Y-64764800I140000J0D01*
G01*
X117815600Y-64764800D01*
G75*
G02*
X117955600Y-64904800I0J-140000D01*
G01*
X117955600Y-65244800D01*
G75*
G02*
X117815600Y-65384800I-140000J0D01*
G01*
X117535600Y-65384800D01*
G75*
G02*
X117395600Y-65244800I0J140000D01*
G01*
G37*
%TD.AperFunction*%
%TO.P,C17,1*%
%TO.N,+3V3*%
%TA.AperFunction,SMDPad,CuDef*%
G36*
G01*
X116435600Y-65244800D02*
X116435600Y-64904800D01*
G75*
G02*
X116575600Y-64764800I140000J0D01*
G01*
X116855600Y-64764800D01*
G75*
G02*
X116995600Y-64904800I0J-140000D01*
G01*
X116995600Y-65244800D01*
G75*
G02*
X116855600Y-65384800I-140000J0D01*
G01*
X116575600Y-65384800D01*
G75*
G02*
X116435600Y-65244800I0J140000D01*
G01*
G37*
%TD.AperFunction*%
%TD*%
%TO.P,R8,2*%
%TO.N,TIM17_CH1*%
%TA.AperFunction,SMDPad,CuDef*%
G36*
G01*
X106723600Y-65924400D02*
X107093600Y-65924400D01*
G75*
G02*
X107228600Y-66059400I0J-135000D01*
G01*
X107228600Y-66329400D01*
G75*
G02*
X107093600Y-66464400I-135000J0D01*
G01*
X106723600Y-66464400D01*
G75*
G02*
X106588600Y-66329400I0J135000D01*
G01*
X106588600Y-66059400D01*
G75*
G02*
X106723600Y-65924400I135000J0D01*
G01*
G37*
%TD.AperFunction*%
%TO.P,R8,1*%
%TO.N,GND*%
%TA.AperFunction,SMDPad,CuDef*%
G36*
G01*
X106723600Y-64904400D02*
X107093600Y-64904400D01*
G75*
G02*
X107228600Y-65039400I0J-135000D01*
G01*
X107228600Y-65309400D01*
G75*
G02*
X107093600Y-65444400I-135000J0D01*
G01*
X106723600Y-65444400D01*
G75*
G02*
X106588600Y-65309400I0J135000D01*
G01*
X106588600Y-65039400D01*
G75*
G02*
X106723600Y-64904400I135000J0D01*
G01*
G37*
%TD.AperFunction*%
%TD*%
%TO.P,R7,2*%
%TO.N,Net-(J4-Pad2)*%
%TA.AperFunction,SMDPad,CuDef*%
G36*
G01*
X105772800Y-65469800D02*
X105402800Y-65469800D01*
G75*
G02*
X105267800Y-65334800I0J135000D01*
G01*
X105267800Y-65064800D01*
G75*
G02*
X105402800Y-64929800I135000J0D01*
G01*
X105772800Y-64929800D01*
G75*
G02*
X105907800Y-65064800I0J-135000D01*
G01*
X105907800Y-65334800D01*
G75*
G02*
X105772800Y-65469800I-135000J0D01*
G01*
G37*
%TD.AperFunction*%
%TO.P,R7,1*%
%TO.N,TIM17_CH1*%
%TA.AperFunction,SMDPad,CuDef*%
G36*
G01*
X105772800Y-66489800D02*
X105402800Y-66489800D01*
G75*
G02*
X105267800Y-66354800I0J135000D01*
G01*
X105267800Y-66084800D01*
G75*
G02*
X105402800Y-65949800I135000J0D01*
G01*
X105772800Y-65949800D01*
G75*
G02*
X105907800Y-66084800I0J-135000D01*
G01*
X105907800Y-66354800D01*
G75*
G02*
X105772800Y-66489800I-135000J0D01*
G01*
G37*
%TD.AperFunction*%
%TD*%
D12*
%TO.P,J1,6*%
%TO.N,Net-(J1-Pad6)*%
X87383100Y-71826800D03*
X87383100Y-77626800D03*
D13*
X87383100Y-78226800D03*
X87383100Y-71226800D03*
D14*
X87383100Y-73726800D03*
D15*
X90083100Y-77226800D03*
D16*
%TO.P,J1,3*%
%TO.N,Net-(J1-Pad3)*%
X90083100Y-74726800D03*
%TO.P,J1,4*%
%TO.N,Net-(J1-Pad4)*%
X90083100Y-75376800D03*
%TO.P,J1,5*%
%TO.N,GND*%
X90083100Y-76026800D03*
%TO.P,J1,1*%
%TO.N,5V*%
X90083100Y-73426800D03*
%TO.P,J1,2*%
%TO.N,Net-(J1-Pad2)*%
X90083100Y-74076800D03*
D15*
%TO.P,J1,6*%
%TO.N,Net-(J1-Pad6)*%
X90083100Y-72226800D03*
D14*
X87383100Y-75726800D03*
%TD*%
D17*
%TO.P,U5,5*%
%TO.N,5V*%
X94851400Y-73533000D03*
%TO.P,U5,6*%
%TO.N,Net-(U2-Pad2)*%
X94851400Y-72583000D03*
%TO.P,U5,4*%
%TO.N,Net-(U2-Pad1)*%
X94851400Y-74483000D03*
%TO.P,U5,3*%
%TO.N,Net-(J1-Pad3)*%
X92651400Y-74483000D03*
%TO.P,U5,2*%
%TO.N,GND*%
X92651400Y-73533000D03*
%TO.P,U5,1*%
%TO.N,Net-(J1-Pad2)*%
X92651400Y-72583000D03*
%TD*%
D18*
%TO.P,J4,4*%
%TO.N,5V*%
X98018600Y-62560200D03*
%TO.P,J4,3*%
%TO.N,TIM2_CH1*%
X100558600Y-62560200D03*
%TO.P,J4,2*%
%TO.N,Net-(J4-Pad2)*%
X103098600Y-62560200D03*
D19*
%TO.P,J4,1*%
%TO.N,GND*%
X105638600Y-62560200D03*
%TD*%
D18*
%TO.P,J3,3*%
%TO.N,RELAY_TRIG*%
X102768400Y-77825600D03*
%TO.P,J3,2*%
%TO.N,GND*%
X100228400Y-77825600D03*
D19*
%TO.P,J3,1*%
%TO.N,5V*%
X97688400Y-77825600D03*
%TD*%
D20*
%TO.P,SW1,1*%
%TO.N,Net-(R6-Pad1)*%
X88038800Y-67259200D03*
%TO.P,SW1,2*%
%TO.N,GND*%
X88038800Y-62759200D03*
%TO.P,SW1,1*%
%TO.N,Net-(R6-Pad1)*%
X94538800Y-67259200D03*
%TO.P,SW1,2*%
%TO.N,GND*%
X94538800Y-62759200D03*
%TD*%
%TO.P,R6,2*%
%TO.N,BOTON*%
%TA.AperFunction,SMDPad,CuDef*%
G36*
G01*
X93407200Y-69958800D02*
X93407200Y-69588800D01*
G75*
G02*
X93542200Y-69453800I135000J0D01*
G01*
X93812200Y-69453800D01*
G75*
G02*
X93947200Y-69588800I0J-135000D01*
G01*
X93947200Y-69958800D01*
G75*
G02*
X93812200Y-70093800I-135000J0D01*
G01*
X93542200Y-70093800D01*
G75*
G02*
X93407200Y-69958800I0J135000D01*
G01*
G37*
%TD.AperFunction*%
%TO.P,R6,1*%
%TO.N,Net-(R6-Pad1)*%
%TA.AperFunction,SMDPad,CuDef*%
G36*
G01*
X92387200Y-69958800D02*
X92387200Y-69588800D01*
G75*
G02*
X92522200Y-69453800I135000J0D01*
G01*
X92792200Y-69453800D01*
G75*
G02*
X92927200Y-69588800I0J-135000D01*
G01*
X92927200Y-69958800D01*
G75*
G02*
X92792200Y-70093800I-135000J0D01*
G01*
X92522200Y-70093800D01*
G75*
G02*
X92387200Y-69958800I0J135000D01*
G01*
G37*
%TD.AperFunction*%
%TD*%
%TO.P,C1,2*%
%TO.N,GND*%
%TA.AperFunction,SMDPad,CuDef*%
G36*
G01*
X117598800Y-67530800D02*
X117598800Y-67190800D01*
G75*
G02*
X117738800Y-67050800I140000J0D01*
G01*
X118018800Y-67050800D01*
G75*
G02*
X118158800Y-67190800I0J-140000D01*
G01*
X118158800Y-67530800D01*
G75*
G02*
X118018800Y-67670800I-140000J0D01*
G01*
X117738800Y-67670800D01*
G75*
G02*
X117598800Y-67530800I0J140000D01*
G01*
G37*
%TD.AperFunction*%
%TO.P,C1,1*%
%TO.N,+3V3*%
%TA.AperFunction,SMDPad,CuDef*%
G36*
G01*
X116638800Y-67530800D02*
X116638800Y-67190800D01*
G75*
G02*
X116778800Y-67050800I140000J0D01*
G01*
X117058800Y-67050800D01*
G75*
G02*
X117198800Y-67190800I0J-140000D01*
G01*
X117198800Y-67530800D01*
G75*
G02*
X117058800Y-67670800I-140000J0D01*
G01*
X116778800Y-67670800D01*
G75*
G02*
X116638800Y-67530800I0J140000D01*
G01*
G37*
%TD.AperFunction*%
%TD*%
%TO.P,C2,1*%
%TO.N,+3V3*%
%TA.AperFunction,SMDPad,CuDef*%
G36*
G01*
X114251200Y-74490400D02*
X114251200Y-74150400D01*
G75*
G02*
X114391200Y-74010400I140000J0D01*
G01*
X114671200Y-74010400D01*
G75*
G02*
X114811200Y-74150400I0J-140000D01*
G01*
X114811200Y-74490400D01*
G75*
G02*
X114671200Y-74630400I-140000J0D01*
G01*
X114391200Y-74630400D01*
G75*
G02*
X114251200Y-74490400I0J140000D01*
G01*
G37*
%TD.AperFunction*%
%TO.P,C2,2*%
%TO.N,GND*%
%TA.AperFunction,SMDPad,CuDef*%
G36*
G01*
X115211200Y-74490400D02*
X115211200Y-74150400D01*
G75*
G02*
X115351200Y-74010400I140000J0D01*
G01*
X115631200Y-74010400D01*
G75*
G02*
X115771200Y-74150400I0J-140000D01*
G01*
X115771200Y-74490400D01*
G75*
G02*
X115631200Y-74630400I-140000J0D01*
G01*
X115351200Y-74630400D01*
G75*
G02*
X115211200Y-74490400I0J140000D01*
G01*
G37*
%TD.AperFunction*%
%TD*%
%TO.P,C3,1*%
%TO.N,Net-(C3-Pad1)*%
%TA.AperFunction,SMDPad,CuDef*%
G36*
G01*
X116180200Y-67190800D02*
X116180200Y-67530800D01*
G75*
G02*
X116040200Y-67670800I-140000J0D01*
G01*
X115760200Y-67670800D01*
G75*
G02*
X115620200Y-67530800I0J140000D01*
G01*
X115620200Y-67190800D01*
G75*
G02*
X115760200Y-67050800I140000J0D01*
G01*
X116040200Y-67050800D01*
G75*
G02*
X116180200Y-67190800I0J-140000D01*
G01*
G37*
%TD.AperFunction*%
%TO.P,C3,2*%
%TO.N,GND*%
%TA.AperFunction,SMDPad,CuDef*%
G36*
G01*
X115220200Y-67190800D02*
X115220200Y-67530800D01*
G75*
G02*
X115080200Y-67670800I-140000J0D01*
G01*
X114800200Y-67670800D01*
G75*
G02*
X114660200Y-67530800I0J140000D01*
G01*
X114660200Y-67190800D01*
G75*
G02*
X114800200Y-67050800I140000J0D01*
G01*
X115080200Y-67050800D01*
G75*
G02*
X115220200Y-67190800I0J-140000D01*
G01*
G37*
%TD.AperFunction*%
%TD*%
%TO.P,C4,1*%
%TO.N,Net-(C4-Pad1)*%
%TA.AperFunction,SMDPad,CuDef*%
G36*
G01*
X115079600Y-77645800D02*
X114739600Y-77645800D01*
G75*
G02*
X114599600Y-77505800I0J140000D01*
G01*
X114599600Y-77225800D01*
G75*
G02*
X114739600Y-77085800I140000J0D01*
G01*
X115079600Y-77085800D01*
G75*
G02*
X115219600Y-77225800I0J-140000D01*
G01*
X115219600Y-77505800D01*
G75*
G02*
X115079600Y-77645800I-140000J0D01*
G01*
G37*
%TD.AperFunction*%
%TO.P,C4,2*%
%TO.N,GND*%
%TA.AperFunction,SMDPad,CuDef*%
G36*
G01*
X115079600Y-76685800D02*
X114739600Y-76685800D01*
G75*
G02*
X114599600Y-76545800I0J140000D01*
G01*
X114599600Y-76265800D01*
G75*
G02*
X114739600Y-76125800I140000J0D01*
G01*
X115079600Y-76125800D01*
G75*
G02*
X115219600Y-76265800I0J-140000D01*
G01*
X115219600Y-76545800D01*
G75*
G02*
X115079600Y-76685800I-140000J0D01*
G01*
G37*
%TD.AperFunction*%
%TD*%
%TO.P,C5,1*%
%TO.N,Net-(C5-Pad1)*%
%TA.AperFunction,SMDPad,CuDef*%
G36*
G01*
X122760200Y-72763200D02*
X122760200Y-72423200D01*
G75*
G02*
X122900200Y-72283200I140000J0D01*
G01*
X123180200Y-72283200D01*
G75*
G02*
X123320200Y-72423200I0J-140000D01*
G01*
X123320200Y-72763200D01*
G75*
G02*
X123180200Y-72903200I-140000J0D01*
G01*
X122900200Y-72903200D01*
G75*
G02*
X122760200Y-72763200I0J140000D01*
G01*
G37*
%TD.AperFunction*%
%TO.P,C5,2*%
%TO.N,GND*%
%TA.AperFunction,SMDPad,CuDef*%
G36*
G01*
X123720200Y-72763200D02*
X123720200Y-72423200D01*
G75*
G02*
X123860200Y-72283200I140000J0D01*
G01*
X124140200Y-72283200D01*
G75*
G02*
X124280200Y-72423200I0J-140000D01*
G01*
X124280200Y-72763200D01*
G75*
G02*
X124140200Y-72903200I-140000J0D01*
G01*
X123860200Y-72903200D01*
G75*
G02*
X123720200Y-72763200I0J140000D01*
G01*
G37*
%TD.AperFunction*%
%TD*%
%TO.P,C6,2*%
%TO.N,GND*%
%TA.AperFunction,SMDPad,CuDef*%
G36*
G01*
X120429200Y-77007000D02*
X120769200Y-77007000D01*
G75*
G02*
X120909200Y-77147000I0J-140000D01*
G01*
X120909200Y-77427000D01*
G75*
G02*
X120769200Y-77567000I-140000J0D01*
G01*
X120429200Y-77567000D01*
G75*
G02*
X120289200Y-77427000I0J140000D01*
G01*
X120289200Y-77147000D01*
G75*
G02*
X120429200Y-77007000I140000J0D01*
G01*
G37*
%TD.AperFunction*%
%TO.P,C6,1*%
%TO.N,Net-(C6-Pad1)*%
%TA.AperFunction,SMDPad,CuDef*%
G36*
G01*
X120429200Y-76047000D02*
X120769200Y-76047000D01*
G75*
G02*
X120909200Y-76187000I0J-140000D01*
G01*
X120909200Y-76467000D01*
G75*
G02*
X120769200Y-76607000I-140000J0D01*
G01*
X120429200Y-76607000D01*
G75*
G02*
X120289200Y-76467000I0J140000D01*
G01*
X120289200Y-76187000D01*
G75*
G02*
X120429200Y-76047000I140000J0D01*
G01*
G37*
%TD.AperFunction*%
%TD*%
%TO.P,C7,2*%
%TO.N,GND*%
%TA.AperFunction,SMDPad,CuDef*%
G36*
G01*
X123720200Y-73982400D02*
X123720200Y-73642400D01*
G75*
G02*
X123860200Y-73502400I140000J0D01*
G01*
X124140200Y-73502400D01*
G75*
G02*
X124280200Y-73642400I0J-140000D01*
G01*
X124280200Y-73982400D01*
G75*
G02*
X124140200Y-74122400I-140000J0D01*
G01*
X123860200Y-74122400D01*
G75*
G02*
X123720200Y-73982400I0J140000D01*
G01*
G37*
%TD.AperFunction*%
%TO.P,C7,1*%
%TO.N,Net-(C5-Pad1)*%
%TA.AperFunction,SMDPad,CuDef*%
G36*
G01*
X122760200Y-73982400D02*
X122760200Y-73642400D01*
G75*
G02*
X122900200Y-73502400I140000J0D01*
G01*
X123180200Y-73502400D01*
G75*
G02*
X123320200Y-73642400I0J-140000D01*
G01*
X123320200Y-73982400D01*
G75*
G02*
X123180200Y-74122400I-140000J0D01*
G01*
X122900200Y-74122400D01*
G75*
G02*
X122760200Y-73982400I0J140000D01*
G01*
G37*
%TD.AperFunction*%
%TD*%
%TO.P,C8,1*%
%TO.N,Net-(AE1-Pad1)*%
%TA.AperFunction,SMDPad,CuDef*%
G36*
G01*
X125169200Y-70264200D02*
X125169200Y-70604200D01*
G75*
G02*
X125029200Y-70744200I-140000J0D01*
G01*
X124749200Y-70744200D01*
G75*
G02*
X124609200Y-70604200I0J140000D01*
G01*
X124609200Y-70264200D01*
G75*
G02*
X124749200Y-70124200I140000J0D01*
G01*
X125029200Y-70124200D01*
G75*
G02*
X125169200Y-70264200I0J-140000D01*
G01*
G37*
%TD.AperFunction*%
%TO.P,C8,2*%
%TO.N,Net-(C8-Pad2)*%
%TA.AperFunction,SMDPad,CuDef*%
G36*
G01*
X124209200Y-70264200D02*
X124209200Y-70604200D01*
G75*
G02*
X124069200Y-70744200I-140000J0D01*
G01*
X123789200Y-70744200D01*
G75*
G02*
X123649200Y-70604200I0J140000D01*
G01*
X123649200Y-70264200D01*
G75*
G02*
X123789200Y-70124200I140000J0D01*
G01*
X124069200Y-70124200D01*
G75*
G02*
X124209200Y-70264200I0J-140000D01*
G01*
G37*
%TD.AperFunction*%
%TD*%
%TO.P,C9,2*%
%TO.N,GND*%
%TA.AperFunction,SMDPad,CuDef*%
G36*
G01*
X125061800Y-68710200D02*
X124721800Y-68710200D01*
G75*
G02*
X124581800Y-68570200I0J140000D01*
G01*
X124581800Y-68290200D01*
G75*
G02*
X124721800Y-68150200I140000J0D01*
G01*
X125061800Y-68150200D01*
G75*
G02*
X125201800Y-68290200I0J-140000D01*
G01*
X125201800Y-68570200D01*
G75*
G02*
X125061800Y-68710200I-140000J0D01*
G01*
G37*
%TD.AperFunction*%
%TO.P,C9,1*%
%TO.N,Net-(AE1-Pad1)*%
%TA.AperFunction,SMDPad,CuDef*%
G36*
G01*
X125061800Y-69670200D02*
X124721800Y-69670200D01*
G75*
G02*
X124581800Y-69530200I0J140000D01*
G01*
X124581800Y-69250200D01*
G75*
G02*
X124721800Y-69110200I140000J0D01*
G01*
X125061800Y-69110200D01*
G75*
G02*
X125201800Y-69250200I0J-140000D01*
G01*
X125201800Y-69530200D01*
G75*
G02*
X125061800Y-69670200I-140000J0D01*
G01*
G37*
%TD.AperFunction*%
%TD*%
%TO.P,C10,1*%
%TO.N,5V*%
%TA.AperFunction,SMDPad,CuDef*%
G36*
G01*
X95433600Y-78642400D02*
X95433600Y-79142400D01*
G75*
G02*
X95208600Y-79367400I-225000J0D01*
G01*
X94758600Y-79367400D01*
G75*
G02*
X94533600Y-79142400I0J225000D01*
G01*
X94533600Y-78642400D01*
G75*
G02*
X94758600Y-78417400I225000J0D01*
G01*
X95208600Y-78417400D01*
G75*
G02*
X95433600Y-78642400I0J-225000D01*
G01*
G37*
%TD.AperFunction*%
%TO.P,C10,2*%
%TO.N,GND*%
%TA.AperFunction,SMDPad,CuDef*%
G36*
G01*
X93883600Y-78642400D02*
X93883600Y-79142400D01*
G75*
G02*
X93658600Y-79367400I-225000J0D01*
G01*
X93208600Y-79367400D01*
G75*
G02*
X92983600Y-79142400I0J225000D01*
G01*
X92983600Y-78642400D01*
G75*
G02*
X93208600Y-78417400I225000J0D01*
G01*
X93658600Y-78417400D01*
G75*
G02*
X93883600Y-78642400I0J-225000D01*
G01*
G37*
%TD.AperFunction*%
%TD*%
%TO.P,C11,1*%
%TO.N,Net-(C11-Pad1)*%
%TA.AperFunction,SMDPad,CuDef*%
G36*
G01*
X100757200Y-69273600D02*
X100757200Y-69613600D01*
G75*
G02*
X100617200Y-69753600I-140000J0D01*
G01*
X100337200Y-69753600D01*
G75*
G02*
X100197200Y-69613600I0J140000D01*
G01*
X100197200Y-69273600D01*
G75*
G02*
X100337200Y-69133600I140000J0D01*
G01*
X100617200Y-69133600D01*
G75*
G02*
X100757200Y-69273600I0J-140000D01*
G01*
G37*
%TD.AperFunction*%
%TO.P,C11,2*%
%TO.N,GND*%
%TA.AperFunction,SMDPad,CuDef*%
G36*
G01*
X99797200Y-69273600D02*
X99797200Y-69613600D01*
G75*
G02*
X99657200Y-69753600I-140000J0D01*
G01*
X99377200Y-69753600D01*
G75*
G02*
X99237200Y-69613600I0J140000D01*
G01*
X99237200Y-69273600D01*
G75*
G02*
X99377200Y-69133600I140000J0D01*
G01*
X99657200Y-69133600D01*
G75*
G02*
X99797200Y-69273600I0J-140000D01*
G01*
G37*
%TD.AperFunction*%
%TD*%
%TO.P,C12,2*%
%TO.N,GND*%
%TA.AperFunction,SMDPad,CuDef*%
G36*
G01*
X97786800Y-69512000D02*
X97786800Y-69172000D01*
G75*
G02*
X97926800Y-69032000I140000J0D01*
G01*
X98206800Y-69032000D01*
G75*
G02*
X98346800Y-69172000I0J-140000D01*
G01*
X98346800Y-69512000D01*
G75*
G02*
X98206800Y-69652000I-140000J0D01*
G01*
X97926800Y-69652000D01*
G75*
G02*
X97786800Y-69512000I0J140000D01*
G01*
G37*
%TD.AperFunction*%
%TO.P,C12,1*%
%TO.N,5V*%
%TA.AperFunction,SMDPad,CuDef*%
G36*
G01*
X96826800Y-69512000D02*
X96826800Y-69172000D01*
G75*
G02*
X96966800Y-69032000I140000J0D01*
G01*
X97246800Y-69032000D01*
G75*
G02*
X97386800Y-69172000I0J-140000D01*
G01*
X97386800Y-69512000D01*
G75*
G02*
X97246800Y-69652000I-140000J0D01*
G01*
X96966800Y-69652000D01*
G75*
G02*
X96826800Y-69512000I0J140000D01*
G01*
G37*
%TD.AperFunction*%
%TD*%
%TO.P,C13,2*%
%TO.N,GND*%
%TA.AperFunction,SMDPad,CuDef*%
G36*
G01*
X102772400Y-68676400D02*
X103272400Y-68676400D01*
G75*
G02*
X103497400Y-68901400I0J-225000D01*
G01*
X103497400Y-69351400D01*
G75*
G02*
X103272400Y-69576400I-225000J0D01*
G01*
X102772400Y-69576400D01*
G75*
G02*
X102547400Y-69351400I0J225000D01*
G01*
X102547400Y-68901400D01*
G75*
G02*
X102772400Y-68676400I225000J0D01*
G01*
G37*
%TD.AperFunction*%
%TO.P,C13,1*%
%TO.N,+3V3*%
%TA.AperFunction,SMDPad,CuDef*%
G36*
G01*
X102772400Y-67126400D02*
X103272400Y-67126400D01*
G75*
G02*
X103497400Y-67351400I0J-225000D01*
G01*
X103497400Y-67801400D01*
G75*
G02*
X103272400Y-68026400I-225000J0D01*
G01*
X102772400Y-68026400D01*
G75*
G02*
X102547400Y-67801400I0J225000D01*
G01*
X102547400Y-67351400D01*
G75*
G02*
X102772400Y-67126400I225000J0D01*
G01*
G37*
%TD.AperFunction*%
%TD*%
%TO.P,C14,2*%
%TO.N,GND*%
%TA.AperFunction,SMDPad,CuDef*%
G36*
G01*
X104401800Y-69948400D02*
X104741800Y-69948400D01*
G75*
G02*
X104881800Y-70088400I0J-140000D01*
G01*
X104881800Y-70368400D01*
G75*
G02*
X104741800Y-70508400I-140000J0D01*
G01*
X104401800Y-70508400D01*
G75*
G02*
X104261800Y-70368400I0J140000D01*
G01*
X104261800Y-70088400D01*
G75*
G02*
X104401800Y-69948400I140000J0D01*
G01*
G37*
%TD.AperFunction*%
%TO.P,C14,1*%
%TO.N,+3V3*%
%TA.AperFunction,SMDPad,CuDef*%
G36*
G01*
X104401800Y-68988400D02*
X104741800Y-68988400D01*
G75*
G02*
X104881800Y-69128400I0J-140000D01*
G01*
X104881800Y-69408400D01*
G75*
G02*
X104741800Y-69548400I-140000J0D01*
G01*
X104401800Y-69548400D01*
G75*
G02*
X104261800Y-69408400I0J140000D01*
G01*
X104261800Y-69128400D01*
G75*
G02*
X104401800Y-68988400I140000J0D01*
G01*
G37*
%TD.AperFunction*%
%TD*%
%TO.P,C15,1*%
%TO.N,+3V3*%
%TA.AperFunction,SMDPad,CuDef*%
G36*
G01*
X101391000Y-66112200D02*
X101391000Y-65612200D01*
G75*
G02*
X101616000Y-65387200I225000J0D01*
G01*
X102066000Y-65387200D01*
G75*
G02*
X102291000Y-65612200I0J-225000D01*
G01*
X102291000Y-66112200D01*
G75*
G02*
X102066000Y-66337200I-225000J0D01*
G01*
X101616000Y-66337200D01*
G75*
G02*
X101391000Y-66112200I0J225000D01*
G01*
G37*
%TD.AperFunction*%
%TO.P,C15,2*%
%TO.N,GND*%
%TA.AperFunction,SMDPad,CuDef*%
G36*
G01*
X102941000Y-66112200D02*
X102941000Y-65612200D01*
G75*
G02*
X103166000Y-65387200I225000J0D01*
G01*
X103616000Y-65387200D01*
G75*
G02*
X103841000Y-65612200I0J-225000D01*
G01*
X103841000Y-66112200D01*
G75*
G02*
X103616000Y-66337200I-225000J0D01*
G01*
X103166000Y-66337200D01*
G75*
G02*
X102941000Y-66112200I0J225000D01*
G01*
G37*
%TD.AperFunction*%
%TD*%
%TO.P,C16,1*%
%TO.N,+3V3*%
%TA.AperFunction,SMDPad,CuDef*%
G36*
G01*
X101150600Y-67058000D02*
X101490600Y-67058000D01*
G75*
G02*
X101630600Y-67198000I0J-140000D01*
G01*
X101630600Y-67478000D01*
G75*
G02*
X101490600Y-67618000I-140000J0D01*
G01*
X101150600Y-67618000D01*
G75*
G02*
X101010600Y-67478000I0J140000D01*
G01*
X101010600Y-67198000D01*
G75*
G02*
X101150600Y-67058000I140000J0D01*
G01*
G37*
%TD.AperFunction*%
%TO.P,C16,2*%
%TO.N,GND*%
%TA.AperFunction,SMDPad,CuDef*%
G36*
G01*
X101150600Y-68018000D02*
X101490600Y-68018000D01*
G75*
G02*
X101630600Y-68158000I0J-140000D01*
G01*
X101630600Y-68438000D01*
G75*
G02*
X101490600Y-68578000I-140000J0D01*
G01*
X101150600Y-68578000D01*
G75*
G02*
X101010600Y-68438000I0J140000D01*
G01*
X101010600Y-68158000D01*
G75*
G02*
X101150600Y-68018000I140000J0D01*
G01*
G37*
%TD.AperFunction*%
%TD*%
D21*
%TO.P,J2,1*%
%TO.N,+3V3*%
X107035600Y-78054200D03*
D22*
%TO.P,J2,2*%
%TO.N,SWD_IO*%
X107035600Y-76784200D03*
%TO.P,J2,3*%
%TO.N,GND*%
X108305600Y-78054200D03*
%TO.P,J2,4*%
%TO.N,SWD_CLK*%
X108305600Y-76784200D03*
%TO.P,J2,5*%
%TO.N,GND*%
X109575600Y-78054200D03*
%TO.P,J2,6*%
%TO.N,Net-(J2-Pad6)*%
X109575600Y-76784200D03*
%TO.P,J2,7*%
%TO.N,Net-(J2-Pad7)*%
X110845600Y-78054200D03*
%TO.P,J2,8*%
%TO.N,Net-(J2-Pad8)*%
X110845600Y-76784200D03*
%TO.P,J2,9*%
%TO.N,GND*%
X112115600Y-78054200D03*
%TO.P,J2,10*%
%TO.N,NRST*%
X112115600Y-76784200D03*
%TD*%
%TO.P,L1,1*%
%TO.N,Net-(L1-Pad1)*%
%TA.AperFunction,SMDPad,CuDef*%
G36*
G01*
X120797100Y-71671400D02*
X120452100Y-71671400D01*
G75*
G02*
X120304600Y-71523900I0J147500D01*
G01*
X120304600Y-71228900D01*
G75*
G02*
X120452100Y-71081400I147500J0D01*
G01*
X120797100Y-71081400D01*
G75*
G02*
X120944600Y-71228900I0J-147500D01*
G01*
X120944600Y-71523900D01*
G75*
G02*
X120797100Y-71671400I-147500J0D01*
G01*
G37*
%TD.AperFunction*%
%TO.P,L1,2*%
%TO.N,Net-(L1-Pad2)*%
%TA.AperFunction,SMDPad,CuDef*%
G36*
G01*
X120797100Y-70701400D02*
X120452100Y-70701400D01*
G75*
G02*
X120304600Y-70553900I0J147500D01*
G01*
X120304600Y-70258900D01*
G75*
G02*
X120452100Y-70111400I147500J0D01*
G01*
X120797100Y-70111400D01*
G75*
G02*
X120944600Y-70258900I0J-147500D01*
G01*
X120944600Y-70553900D01*
G75*
G02*
X120797100Y-70701400I-147500J0D01*
G01*
G37*
%TD.AperFunction*%
%TD*%
%TO.P,L2,1*%
%TO.N,Net-(C8-Pad2)*%
%TA.AperFunction,SMDPad,CuDef*%
G36*
G01*
X123053200Y-70261700D02*
X123053200Y-70606700D01*
G75*
G02*
X122905700Y-70754200I-147500J0D01*
G01*
X122610700Y-70754200D01*
G75*
G02*
X122463200Y-70606700I0J147500D01*
G01*
X122463200Y-70261700D01*
G75*
G02*
X122610700Y-70114200I147500J0D01*
G01*
X122905700Y-70114200D01*
G75*
G02*
X123053200Y-70261700I0J-147500D01*
G01*
G37*
%TD.AperFunction*%
%TO.P,L2,2*%
%TO.N,Net-(L1-Pad2)*%
%TA.AperFunction,SMDPad,CuDef*%
G36*
G01*
X122083200Y-70261700D02*
X122083200Y-70606700D01*
G75*
G02*
X121935700Y-70754200I-147500J0D01*
G01*
X121640700Y-70754200D01*
G75*
G02*
X121493200Y-70606700I0J147500D01*
G01*
X121493200Y-70261700D01*
G75*
G02*
X121640700Y-70114200I147500J0D01*
G01*
X121935700Y-70114200D01*
G75*
G02*
X122083200Y-70261700I0J-147500D01*
G01*
G37*
%TD.AperFunction*%
%TD*%
%TO.P,L3,2*%
%TO.N,Net-(L1-Pad1)*%
%TA.AperFunction,SMDPad,CuDef*%
G36*
G01*
X122016300Y-71920600D02*
X121671300Y-71920600D01*
G75*
G02*
X121523800Y-71773100I0J147500D01*
G01*
X121523800Y-71478100D01*
G75*
G02*
X121671300Y-71330600I147500J0D01*
G01*
X122016300Y-71330600D01*
G75*
G02*
X122163800Y-71478100I0J-147500D01*
G01*
X122163800Y-71773100D01*
G75*
G02*
X122016300Y-71920600I-147500J0D01*
G01*
G37*
%TD.AperFunction*%
%TO.P,L3,1*%
%TO.N,Net-(C5-Pad1)*%
%TA.AperFunction,SMDPad,CuDef*%
G36*
G01*
X122016300Y-72890600D02*
X121671300Y-72890600D01*
G75*
G02*
X121523800Y-72743100I0J147500D01*
G01*
X121523800Y-72448100D01*
G75*
G02*
X121671300Y-72300600I147500J0D01*
G01*
X122016300Y-72300600D01*
G75*
G02*
X122163800Y-72448100I0J-147500D01*
G01*
X122163800Y-72743100D01*
G75*
G02*
X122016300Y-72890600I-147500J0D01*
G01*
G37*
%TD.AperFunction*%
%TD*%
%TO.P,R1,1*%
%TO.N,Net-(R1-Pad1)*%
%TA.AperFunction,SMDPad,CuDef*%
G36*
G01*
X119234800Y-67201000D02*
X118864800Y-67201000D01*
G75*
G02*
X118729800Y-67066000I0J135000D01*
G01*
X118729800Y-66796000D01*
G75*
G02*
X118864800Y-66661000I135000J0D01*
G01*
X119234800Y-66661000D01*
G75*
G02*
X119369800Y-66796000I0J-135000D01*
G01*
X119369800Y-67066000D01*
G75*
G02*
X119234800Y-67201000I-135000J0D01*
G01*
G37*
%TD.AperFunction*%
%TO.P,R1,2*%
%TO.N,GND*%
%TA.AperFunction,SMDPad,CuDef*%
G36*
G01*
X119234800Y-66181000D02*
X118864800Y-66181000D01*
G75*
G02*
X118729800Y-66046000I0J135000D01*
G01*
X118729800Y-65776000D01*
G75*
G02*
X118864800Y-65641000I135000J0D01*
G01*
X119234800Y-65641000D01*
G75*
G02*
X119369800Y-65776000I0J-135000D01*
G01*
X119369800Y-66046000D01*
G75*
G02*
X119234800Y-66181000I-135000J0D01*
G01*
G37*
%TD.AperFunction*%
%TD*%
%TO.P,R2,2*%
%TO.N,Net-(C4-Pad1)*%
%TA.AperFunction,SMDPad,CuDef*%
G36*
G01*
X117436200Y-73957600D02*
X117436200Y-74327600D01*
G75*
G02*
X117301200Y-74462600I-135000J0D01*
G01*
X117031200Y-74462600D01*
G75*
G02*
X116896200Y-74327600I0J135000D01*
G01*
X116896200Y-73957600D01*
G75*
G02*
X117031200Y-73822600I135000J0D01*
G01*
X117301200Y-73822600D01*
G75*
G02*
X117436200Y-73957600I0J-135000D01*
G01*
G37*
%TD.AperFunction*%
%TO.P,R2,1*%
%TO.N,Net-(C6-Pad1)*%
%TA.AperFunction,SMDPad,CuDef*%
G36*
G01*
X118456200Y-73957600D02*
X118456200Y-74327600D01*
G75*
G02*
X118321200Y-74462600I-135000J0D01*
G01*
X118051200Y-74462600D01*
G75*
G02*
X117916200Y-74327600I0J135000D01*
G01*
X117916200Y-73957600D01*
G75*
G02*
X118051200Y-73822600I135000J0D01*
G01*
X118321200Y-73822600D01*
G75*
G02*
X118456200Y-73957600I0J-135000D01*
G01*
G37*
%TD.AperFunction*%
%TD*%
%TO.P,R3,2*%
%TO.N,GND*%
%TA.AperFunction,SMDPad,CuDef*%
G36*
G01*
X91712200Y-77811600D02*
X92082200Y-77811600D01*
G75*
G02*
X92217200Y-77946600I0J-135000D01*
G01*
X92217200Y-78216600D01*
G75*
G02*
X92082200Y-78351600I-135000J0D01*
G01*
X91712200Y-78351600D01*
G75*
G02*
X91577200Y-78216600I0J135000D01*
G01*
X91577200Y-77946600D01*
G75*
G02*
X91712200Y-77811600I135000J0D01*
G01*
G37*
%TD.AperFunction*%
%TO.P,R3,1*%
%TO.N,Net-(D1-Pad1)*%
%TA.AperFunction,SMDPad,CuDef*%
G36*
G01*
X91712200Y-76791600D02*
X92082200Y-76791600D01*
G75*
G02*
X92217200Y-76926600I0J-135000D01*
G01*
X92217200Y-77196600D01*
G75*
G02*
X92082200Y-77331600I-135000J0D01*
G01*
X91712200Y-77331600D01*
G75*
G02*
X91577200Y-77196600I0J135000D01*
G01*
X91577200Y-76926600D01*
G75*
G02*
X91712200Y-76791600I135000J0D01*
G01*
G37*
%TD.AperFunction*%
%TD*%
%TO.P,R4,1*%
%TO.N,LED1*%
%TA.AperFunction,SMDPad,CuDef*%
G36*
G01*
X107830400Y-66301200D02*
X107830400Y-65931200D01*
G75*
G02*
X107965400Y-65796200I135000J0D01*
G01*
X108235400Y-65796200D01*
G75*
G02*
X108370400Y-65931200I0J-135000D01*
G01*
X108370400Y-66301200D01*
G75*
G02*
X108235400Y-66436200I-135000J0D01*
G01*
X107965400Y-66436200D01*
G75*
G02*
X107830400Y-66301200I0J135000D01*
G01*
G37*
%TD.AperFunction*%
%TO.P,R4,2*%
%TO.N,Net-(D2-Pad2)*%
%TA.AperFunction,SMDPad,CuDef*%
G36*
G01*
X108850400Y-66301200D02*
X108850400Y-65931200D01*
G75*
G02*
X108985400Y-65796200I135000J0D01*
G01*
X109255400Y-65796200D01*
G75*
G02*
X109390400Y-65931200I0J-135000D01*
G01*
X109390400Y-66301200D01*
G75*
G02*
X109255400Y-66436200I-135000J0D01*
G01*
X108985400Y-66436200D01*
G75*
G02*
X108850400Y-66301200I0J135000D01*
G01*
G37*
%TD.AperFunction*%
%TD*%
%TO.P,U1,1*%
%TO.N,NRF24_CE*%
%TA.AperFunction,SMDPad,CuDef*%
G36*
G01*
X114566200Y-69725300D02*
X114566200Y-69600300D01*
G75*
G02*
X114628700Y-69537800I62500J0D01*
G01*
X115328700Y-69537800D01*
G75*
G02*
X115391200Y-69600300I0J-62500D01*
G01*
X115391200Y-69725300D01*
G75*
G02*
X115328700Y-69787800I-62500J0D01*
G01*
X114628700Y-69787800D01*
G75*
G02*
X114566200Y-69725300I0J62500D01*
G01*
G37*
%TD.AperFunction*%
%TO.P,U1,2*%
%TO.N,SPI_CS*%
%TA.AperFunction,SMDPad,CuDef*%
G36*
G01*
X114566200Y-70225300D02*
X114566200Y-70100300D01*
G75*
G02*
X114628700Y-70037800I62500J0D01*
G01*
X115328700Y-70037800D01*
G75*
G02*
X115391200Y-70100300I0J-62500D01*
G01*
X115391200Y-70225300D01*
G75*
G02*
X115328700Y-70287800I-62500J0D01*
G01*
X114628700Y-70287800D01*
G75*
G02*
X114566200Y-70225300I0J62500D01*
G01*
G37*
%TD.AperFunction*%
%TO.P,U1,3*%
%TO.N,SPI_CLK*%
%TA.AperFunction,SMDPad,CuDef*%
G36*
G01*
X114566200Y-70725300D02*
X114566200Y-70600300D01*
G75*
G02*
X114628700Y-70537800I62500J0D01*
G01*
X115328700Y-70537800D01*
G75*
G02*
X115391200Y-70600300I0J-62500D01*
G01*
X115391200Y-70725300D01*
G75*
G02*
X115328700Y-70787800I-62500J0D01*
G01*
X114628700Y-70787800D01*
G75*
G02*
X114566200Y-70725300I0J62500D01*
G01*
G37*
%TD.AperFunction*%
%TO.P,U1,4*%
%TO.N,SPI_MOSI*%
%TA.AperFunction,SMDPad,CuDef*%
G36*
G01*
X114566200Y-71225300D02*
X114566200Y-71100300D01*
G75*
G02*
X114628700Y-71037800I62500J0D01*
G01*
X115328700Y-71037800D01*
G75*
G02*
X115391200Y-71100300I0J-62500D01*
G01*
X115391200Y-71225300D01*
G75*
G02*
X115328700Y-71287800I-62500J0D01*
G01*
X114628700Y-71287800D01*
G75*
G02*
X114566200Y-71225300I0J62500D01*
G01*
G37*
%TD.AperFunction*%
%TO.P,U1,5*%
%TO.N,SPI_MISO*%
%TA.AperFunction,SMDPad,CuDef*%
G36*
G01*
X114566200Y-71725300D02*
X114566200Y-71600300D01*
G75*
G02*
X114628700Y-71537800I62500J0D01*
G01*
X115328700Y-71537800D01*
G75*
G02*
X115391200Y-71600300I0J-62500D01*
G01*
X115391200Y-71725300D01*
G75*
G02*
X115328700Y-71787800I-62500J0D01*
G01*
X114628700Y-71787800D01*
G75*
G02*
X114566200Y-71725300I0J62500D01*
G01*
G37*
%TD.AperFunction*%
%TO.P,U1,6*%
%TO.N,NRF24_IRQ*%
%TA.AperFunction,SMDPad,CuDef*%
G36*
G01*
X115791200Y-72950300D02*
X115791200Y-72250300D01*
G75*
G02*
X115853700Y-72187800I62500J0D01*
G01*
X115978700Y-72187800D01*
G75*
G02*
X116041200Y-72250300I0J-62500D01*
G01*
X116041200Y-72950300D01*
G75*
G02*
X115978700Y-73012800I-62500J0D01*
G01*
X115853700Y-73012800D01*
G75*
G02*
X115791200Y-72950300I0J62500D01*
G01*
G37*
%TD.AperFunction*%
%TO.P,U1,7*%
%TO.N,+3V3*%
%TA.AperFunction,SMDPad,CuDef*%
G36*
G01*
X116291200Y-72950300D02*
X116291200Y-72250300D01*
G75*
G02*
X116353700Y-72187800I62500J0D01*
G01*
X116478700Y-72187800D01*
G75*
G02*
X116541200Y-72250300I0J-62500D01*
G01*
X116541200Y-72950300D01*
G75*
G02*
X116478700Y-73012800I-62500J0D01*
G01*
X116353700Y-73012800D01*
G75*
G02*
X116291200Y-72950300I0J62500D01*
G01*
G37*
%TD.AperFunction*%
%TO.P,U1,8*%
%TO.N,GND*%
%TA.AperFunction,SMDPad,CuDef*%
G36*
G01*
X116791200Y-72950300D02*
X116791200Y-72250300D01*
G75*
G02*
X116853700Y-72187800I62500J0D01*
G01*
X116978700Y-72187800D01*
G75*
G02*
X117041200Y-72250300I0J-62500D01*
G01*
X117041200Y-72950300D01*
G75*
G02*
X116978700Y-73012800I-62500J0D01*
G01*
X116853700Y-73012800D01*
G75*
G02*
X116791200Y-72950300I0J62500D01*
G01*
G37*
%TD.AperFunction*%
%TO.P,U1,9*%
%TO.N,Net-(C4-Pad1)*%
%TA.AperFunction,SMDPad,CuDef*%
G36*
G01*
X117291200Y-72950300D02*
X117291200Y-72250300D01*
G75*
G02*
X117353700Y-72187800I62500J0D01*
G01*
X117478700Y-72187800D01*
G75*
G02*
X117541200Y-72250300I0J-62500D01*
G01*
X117541200Y-72950300D01*
G75*
G02*
X117478700Y-73012800I-62500J0D01*
G01*
X117353700Y-73012800D01*
G75*
G02*
X117291200Y-72950300I0J62500D01*
G01*
G37*
%TD.AperFunction*%
%TO.P,U1,10*%
%TO.N,Net-(C6-Pad1)*%
%TA.AperFunction,SMDPad,CuDef*%
G36*
G01*
X117791200Y-72950300D02*
X117791200Y-72250300D01*
G75*
G02*
X117853700Y-72187800I62500J0D01*
G01*
X117978700Y-72187800D01*
G75*
G02*
X118041200Y-72250300I0J-62500D01*
G01*
X118041200Y-72950300D01*
G75*
G02*
X117978700Y-73012800I-62500J0D01*
G01*
X117853700Y-73012800D01*
G75*
G02*
X117791200Y-72950300I0J62500D01*
G01*
G37*
%TD.AperFunction*%
%TO.P,U1,11*%
%TO.N,Net-(C5-Pad1)*%
%TA.AperFunction,SMDPad,CuDef*%
G36*
G01*
X118441200Y-71725300D02*
X118441200Y-71600300D01*
G75*
G02*
X118503700Y-71537800I62500J0D01*
G01*
X119203700Y-71537800D01*
G75*
G02*
X119266200Y-71600300I0J-62500D01*
G01*
X119266200Y-71725300D01*
G75*
G02*
X119203700Y-71787800I-62500J0D01*
G01*
X118503700Y-71787800D01*
G75*
G02*
X118441200Y-71725300I0J62500D01*
G01*
G37*
%TD.AperFunction*%
%TO.P,U1,12*%
%TO.N,Net-(L1-Pad1)*%
%TA.AperFunction,SMDPad,CuDef*%
G36*
G01*
X118441200Y-71225300D02*
X118441200Y-71100300D01*
G75*
G02*
X118503700Y-71037800I62500J0D01*
G01*
X119203700Y-71037800D01*
G75*
G02*
X119266200Y-71100300I0J-62500D01*
G01*
X119266200Y-71225300D01*
G75*
G02*
X119203700Y-71287800I-62500J0D01*
G01*
X118503700Y-71287800D01*
G75*
G02*
X118441200Y-71225300I0J62500D01*
G01*
G37*
%TD.AperFunction*%
%TO.P,U1,13*%
%TO.N,Net-(L1-Pad2)*%
%TA.AperFunction,SMDPad,CuDef*%
G36*
G01*
X118441200Y-70725300D02*
X118441200Y-70600300D01*
G75*
G02*
X118503700Y-70537800I62500J0D01*
G01*
X119203700Y-70537800D01*
G75*
G02*
X119266200Y-70600300I0J-62500D01*
G01*
X119266200Y-70725300D01*
G75*
G02*
X119203700Y-70787800I-62500J0D01*
G01*
X118503700Y-70787800D01*
G75*
G02*
X118441200Y-70725300I0J62500D01*
G01*
G37*
%TD.AperFunction*%
%TO.P,U1,14*%
%TO.N,GND*%
%TA.AperFunction,SMDPad,CuDef*%
G36*
G01*
X118441200Y-70225300D02*
X118441200Y-70100300D01*
G75*
G02*
X118503700Y-70037800I62500J0D01*
G01*
X119203700Y-70037800D01*
G75*
G02*
X119266200Y-70100300I0J-62500D01*
G01*
X119266200Y-70225300D01*
G75*
G02*
X119203700Y-70287800I-62500J0D01*
G01*
X118503700Y-70287800D01*
G75*
G02*
X118441200Y-70225300I0J62500D01*
G01*
G37*
%TD.AperFunction*%
%TO.P,U1,15*%
%TO.N,+3V3*%
%TA.AperFunction,SMDPad,CuDef*%
G36*
G01*
X118441200Y-69725300D02*
X118441200Y-69600300D01*
G75*
G02*
X118503700Y-69537800I62500J0D01*
G01*
X119203700Y-69537800D01*
G75*
G02*
X119266200Y-69600300I0J-62500D01*
G01*
X119266200Y-69725300D01*
G75*
G02*
X119203700Y-69787800I-62500J0D01*
G01*
X118503700Y-69787800D01*
G75*
G02*
X118441200Y-69725300I0J62500D01*
G01*
G37*
%TD.AperFunction*%
%TO.P,U1,16*%
%TO.N,Net-(R1-Pad1)*%
%TA.AperFunction,SMDPad,CuDef*%
G36*
G01*
X117791200Y-69075300D02*
X117791200Y-68375300D01*
G75*
G02*
X117853700Y-68312800I62500J0D01*
G01*
X117978700Y-68312800D01*
G75*
G02*
X118041200Y-68375300I0J-62500D01*
G01*
X118041200Y-69075300D01*
G75*
G02*
X117978700Y-69137800I-62500J0D01*
G01*
X117853700Y-69137800D01*
G75*
G02*
X117791200Y-69075300I0J62500D01*
G01*
G37*
%TD.AperFunction*%
%TO.P,U1,17*%
%TO.N,GND*%
%TA.AperFunction,SMDPad,CuDef*%
G36*
G01*
X117291200Y-69075300D02*
X117291200Y-68375300D01*
G75*
G02*
X117353700Y-68312800I62500J0D01*
G01*
X117478700Y-68312800D01*
G75*
G02*
X117541200Y-68375300I0J-62500D01*
G01*
X117541200Y-69075300D01*
G75*
G02*
X117478700Y-69137800I-62500J0D01*
G01*
X117353700Y-69137800D01*
G75*
G02*
X117291200Y-69075300I0J62500D01*
G01*
G37*
%TD.AperFunction*%
%TO.P,U1,18*%
%TO.N,+3V3*%
%TA.AperFunction,SMDPad,CuDef*%
G36*
G01*
X116791200Y-69075300D02*
X116791200Y-68375300D01*
G75*
G02*
X116853700Y-68312800I62500J0D01*
G01*
X116978700Y-68312800D01*
G75*
G02*
X117041200Y-68375300I0J-62500D01*
G01*
X117041200Y-69075300D01*
G75*
G02*
X116978700Y-69137800I-62500J0D01*
G01*
X116853700Y-69137800D01*
G75*
G02*
X116791200Y-69075300I0J62500D01*
G01*
G37*
%TD.AperFunction*%
%TO.P,U1,19*%
%TO.N,Net-(C3-Pad1)*%
%TA.AperFunction,SMDPad,CuDef*%
G36*
G01*
X116291200Y-69075300D02*
X116291200Y-68375300D01*
G75*
G02*
X116353700Y-68312800I62500J0D01*
G01*
X116478700Y-68312800D01*
G75*
G02*
X116541200Y-68375300I0J-62500D01*
G01*
X116541200Y-69075300D01*
G75*
G02*
X116478700Y-69137800I-62500J0D01*
G01*
X116353700Y-69137800D01*
G75*
G02*
X116291200Y-69075300I0J62500D01*
G01*
G37*
%TD.AperFunction*%
%TO.P,U1,20*%
%TO.N,GND*%
%TA.AperFunction,SMDPad,CuDef*%
G36*
G01*
X115791200Y-69075300D02*
X115791200Y-68375300D01*
G75*
G02*
X115853700Y-68312800I62500J0D01*
G01*
X115978700Y-68312800D01*
G75*
G02*
X116041200Y-68375300I0J-62500D01*
G01*
X116041200Y-69075300D01*
G75*
G02*
X115978700Y-69137800I-62500J0D01*
G01*
X115853700Y-69137800D01*
G75*
G02*
X115791200Y-69075300I0J62500D01*
G01*
G37*
%TD.AperFunction*%
D23*
%TO.P,U1,21*%
%TO.N,N/C*%
X116916200Y-70662800D03*
%TD*%
%TO.P,U2,1*%
%TO.N,Net-(U2-Pad1)*%
%TA.AperFunction,SMDPad,CuDef*%
G36*
G01*
X96676800Y-71041400D02*
X96676800Y-70741400D01*
G75*
G02*
X96826800Y-70591400I150000J0D01*
G01*
X98476800Y-70591400D01*
G75*
G02*
X98626800Y-70741400I0J-150000D01*
G01*
X98626800Y-71041400D01*
G75*
G02*
X98476800Y-71191400I-150000J0D01*
G01*
X96826800Y-71191400D01*
G75*
G02*
X96676800Y-71041400I0J150000D01*
G01*
G37*
%TD.AperFunction*%
%TO.P,U2,2*%
%TO.N,Net-(U2-Pad2)*%
%TA.AperFunction,SMDPad,CuDef*%
G36*
G01*
X96676800Y-72311400D02*
X96676800Y-72011400D01*
G75*
G02*
X96826800Y-71861400I150000J0D01*
G01*
X98476800Y-71861400D01*
G75*
G02*
X98626800Y-72011400I0J-150000D01*
G01*
X98626800Y-72311400D01*
G75*
G02*
X98476800Y-72461400I-150000J0D01*
G01*
X96826800Y-72461400D01*
G75*
G02*
X96676800Y-72311400I0J150000D01*
G01*
G37*
%TD.AperFunction*%
%TO.P,U2,3*%
%TO.N,GND*%
%TA.AperFunction,SMDPad,CuDef*%
G36*
G01*
X96676800Y-73581400D02*
X96676800Y-73281400D01*
G75*
G02*
X96826800Y-73131400I150000J0D01*
G01*
X98476800Y-73131400D01*
G75*
G02*
X98626800Y-73281400I0J-150000D01*
G01*
X98626800Y-73581400D01*
G75*
G02*
X98476800Y-73731400I-150000J0D01*
G01*
X96826800Y-73731400D01*
G75*
G02*
X96676800Y-73581400I0J150000D01*
G01*
G37*
%TD.AperFunction*%
%TO.P,U2,4*%
%TO.N,Net-(U2-Pad4)*%
%TA.AperFunction,SMDPad,CuDef*%
G36*
G01*
X96676800Y-74851400D02*
X96676800Y-74551400D01*
G75*
G02*
X96826800Y-74401400I150000J0D01*
G01*
X98476800Y-74401400D01*
G75*
G02*
X98626800Y-74551400I0J-150000D01*
G01*
X98626800Y-74851400D01*
G75*
G02*
X98476800Y-75001400I-150000J0D01*
G01*
X96826800Y-75001400D01*
G75*
G02*
X96676800Y-74851400I0J150000D01*
G01*
G37*
%TD.AperFunction*%
%TO.P,U2,5*%
%TO.N,+3V3*%
%TA.AperFunction,SMDPad,CuDef*%
G36*
G01*
X101626800Y-74851400D02*
X101626800Y-74551400D01*
G75*
G02*
X101776800Y-74401400I150000J0D01*
G01*
X103426800Y-74401400D01*
G75*
G02*
X103576800Y-74551400I0J-150000D01*
G01*
X103576800Y-74851400D01*
G75*
G02*
X103426800Y-75001400I-150000J0D01*
G01*
X101776800Y-75001400D01*
G75*
G02*
X101626800Y-74851400I0J150000D01*
G01*
G37*
%TD.AperFunction*%
%TO.P,U2,6*%
%TO.N,UART2_RX*%
%TA.AperFunction,SMDPad,CuDef*%
G36*
G01*
X101626800Y-73581400D02*
X101626800Y-73281400D01*
G75*
G02*
X101776800Y-73131400I150000J0D01*
G01*
X103426800Y-73131400D01*
G75*
G02*
X103576800Y-73281400I0J-150000D01*
G01*
X103576800Y-73581400D01*
G75*
G02*
X103426800Y-73731400I-150000J0D01*
G01*
X101776800Y-73731400D01*
G75*
G02*
X101626800Y-73581400I0J150000D01*
G01*
G37*
%TD.AperFunction*%
%TO.P,U2,7*%
%TO.N,UART2_TX*%
%TA.AperFunction,SMDPad,CuDef*%
G36*
G01*
X101626800Y-72311400D02*
X101626800Y-72011400D01*
G75*
G02*
X101776800Y-71861400I150000J0D01*
G01*
X103426800Y-71861400D01*
G75*
G02*
X103576800Y-72011400I0J-150000D01*
G01*
X103576800Y-72311400D01*
G75*
G02*
X103426800Y-72461400I-150000J0D01*
G01*
X101776800Y-72461400D01*
G75*
G02*
X101626800Y-72311400I0J150000D01*
G01*
G37*
%TD.AperFunction*%
%TO.P,U2,8*%
%TO.N,Net-(C11-Pad1)*%
%TA.AperFunction,SMDPad,CuDef*%
G36*
G01*
X101626800Y-71041400D02*
X101626800Y-70741400D01*
G75*
G02*
X101776800Y-70591400I150000J0D01*
G01*
X103426800Y-70591400D01*
G75*
G02*
X103576800Y-70741400I0J-150000D01*
G01*
X103576800Y-71041400D01*
G75*
G02*
X103426800Y-71191400I-150000J0D01*
G01*
X101776800Y-71191400D01*
G75*
G02*
X101626800Y-71041400I0J150000D01*
G01*
G37*
%TD.AperFunction*%
%TD*%
D24*
%TO.P,U3,1*%
%TO.N,GND*%
X99729800Y-67701200D03*
%TO.P,U3,2*%
%TO.N,+3V3*%
X99729800Y-65801200D03*
%TO.P,U3,3*%
%TO.N,5V*%
X97729800Y-66751200D03*
%TD*%
%TO.P,U4,1*%
%TO.N,I2C1_SDA*%
%TA.AperFunction,SMDPad,CuDef*%
G36*
G01*
X105696200Y-67863200D02*
X105696200Y-67663200D01*
G75*
G02*
X105796200Y-67563200I100000J0D01*
G01*
X107071200Y-67563200D01*
G75*
G02*
X107171200Y-67663200I0J-100000D01*
G01*
X107171200Y-67863200D01*
G75*
G02*
X107071200Y-67963200I-100000J0D01*
G01*
X105796200Y-67963200D01*
G75*
G02*
X105696200Y-67863200I0J100000D01*
G01*
G37*
%TD.AperFunction*%
%TO.P,U4,2*%
%TO.N,TIM17_CH1*%
%TA.AperFunction,SMDPad,CuDef*%
G36*
G01*
X105696200Y-68513200D02*
X105696200Y-68313200D01*
G75*
G02*
X105796200Y-68213200I100000J0D01*
G01*
X107071200Y-68213200D01*
G75*
G02*
X107171200Y-68313200I0J-100000D01*
G01*
X107171200Y-68513200D01*
G75*
G02*
X107071200Y-68613200I-100000J0D01*
G01*
X105796200Y-68613200D01*
G75*
G02*
X105696200Y-68513200I0J100000D01*
G01*
G37*
%TD.AperFunction*%
%TO.P,U4,3*%
%TO.N,BOTON*%
%TA.AperFunction,SMDPad,CuDef*%
G36*
G01*
X105696200Y-69163200D02*
X105696200Y-68963200D01*
G75*
G02*
X105796200Y-68863200I100000J0D01*
G01*
X107071200Y-68863200D01*
G75*
G02*
X107171200Y-68963200I0J-100000D01*
G01*
X107171200Y-69163200D01*
G75*
G02*
X107071200Y-69263200I-100000J0D01*
G01*
X105796200Y-69263200D01*
G75*
G02*
X105696200Y-69163200I0J100000D01*
G01*
G37*
%TD.AperFunction*%
%TO.P,U4,4*%
%TO.N,+3V3*%
%TA.AperFunction,SMDPad,CuDef*%
G36*
G01*
X105696200Y-69813200D02*
X105696200Y-69613200D01*
G75*
G02*
X105796200Y-69513200I100000J0D01*
G01*
X107071200Y-69513200D01*
G75*
G02*
X107171200Y-69613200I0J-100000D01*
G01*
X107171200Y-69813200D01*
G75*
G02*
X107071200Y-69913200I-100000J0D01*
G01*
X105796200Y-69913200D01*
G75*
G02*
X105696200Y-69813200I0J100000D01*
G01*
G37*
%TD.AperFunction*%
%TO.P,U4,5*%
%TO.N,GND*%
%TA.AperFunction,SMDPad,CuDef*%
G36*
G01*
X105696200Y-70463200D02*
X105696200Y-70263200D01*
G75*
G02*
X105796200Y-70163200I100000J0D01*
G01*
X107071200Y-70163200D01*
G75*
G02*
X107171200Y-70263200I0J-100000D01*
G01*
X107171200Y-70463200D01*
G75*
G02*
X107071200Y-70563200I-100000J0D01*
G01*
X105796200Y-70563200D01*
G75*
G02*
X105696200Y-70463200I0J100000D01*
G01*
G37*
%TD.AperFunction*%
%TO.P,U4,6*%
%TO.N,NRST*%
%TA.AperFunction,SMDPad,CuDef*%
G36*
G01*
X105696200Y-71113200D02*
X105696200Y-70913200D01*
G75*
G02*
X105796200Y-70813200I100000J0D01*
G01*
X107071200Y-70813200D01*
G75*
G02*
X107171200Y-70913200I0J-100000D01*
G01*
X107171200Y-71113200D01*
G75*
G02*
X107071200Y-71213200I-100000J0D01*
G01*
X105796200Y-71213200D01*
G75*
G02*
X105696200Y-71113200I0J100000D01*
G01*
G37*
%TD.AperFunction*%
%TO.P,U4,7*%
%TO.N,TIM2_CH1*%
%TA.AperFunction,SMDPad,CuDef*%
G36*
G01*
X105696200Y-71763200D02*
X105696200Y-71563200D01*
G75*
G02*
X105796200Y-71463200I100000J0D01*
G01*
X107071200Y-71463200D01*
G75*
G02*
X107171200Y-71563200I0J-100000D01*
G01*
X107171200Y-71763200D01*
G75*
G02*
X107071200Y-71863200I-100000J0D01*
G01*
X105796200Y-71863200D01*
G75*
G02*
X105696200Y-71763200I0J100000D01*
G01*
G37*
%TD.AperFunction*%
%TO.P,U4,8*%
%TO.N,RELAY_TRIG*%
%TA.AperFunction,SMDPad,CuDef*%
G36*
G01*
X105696200Y-72413200D02*
X105696200Y-72213200D01*
G75*
G02*
X105796200Y-72113200I100000J0D01*
G01*
X107071200Y-72113200D01*
G75*
G02*
X107171200Y-72213200I0J-100000D01*
G01*
X107171200Y-72413200D01*
G75*
G02*
X107071200Y-72513200I-100000J0D01*
G01*
X105796200Y-72513200D01*
G75*
G02*
X105696200Y-72413200I0J100000D01*
G01*
G37*
%TD.AperFunction*%
%TO.P,U4,9*%
%TO.N,UART2_TX*%
%TA.AperFunction,SMDPad,CuDef*%
G36*
G01*
X105696200Y-73063200D02*
X105696200Y-72863200D01*
G75*
G02*
X105796200Y-72763200I100000J0D01*
G01*
X107071200Y-72763200D01*
G75*
G02*
X107171200Y-72863200I0J-100000D01*
G01*
X107171200Y-73063200D01*
G75*
G02*
X107071200Y-73163200I-100000J0D01*
G01*
X105796200Y-73163200D01*
G75*
G02*
X105696200Y-73063200I0J100000D01*
G01*
G37*
%TD.AperFunction*%
%TO.P,U4,10*%
%TO.N,UART2_RX*%
%TA.AperFunction,SMDPad,CuDef*%
G36*
G01*
X105696200Y-73713200D02*
X105696200Y-73513200D01*
G75*
G02*
X105796200Y-73413200I100000J0D01*
G01*
X107071200Y-73413200D01*
G75*
G02*
X107171200Y-73513200I0J-100000D01*
G01*
X107171200Y-73713200D01*
G75*
G02*
X107071200Y-73813200I-100000J0D01*
G01*
X105796200Y-73813200D01*
G75*
G02*
X105696200Y-73713200I0J100000D01*
G01*
G37*
%TD.AperFunction*%
%TO.P,U4,11*%
%TO.N,NRF24_IRQ*%
%TA.AperFunction,SMDPad,CuDef*%
G36*
G01*
X111421200Y-73713200D02*
X111421200Y-73513200D01*
G75*
G02*
X111521200Y-73413200I100000J0D01*
G01*
X112796200Y-73413200D01*
G75*
G02*
X112896200Y-73513200I0J-100000D01*
G01*
X112896200Y-73713200D01*
G75*
G02*
X112796200Y-73813200I-100000J0D01*
G01*
X111521200Y-73813200D01*
G75*
G02*
X111421200Y-73713200I0J100000D01*
G01*
G37*
%TD.AperFunction*%
%TO.P,U4,12*%
%TO.N,SPI_CLK*%
%TA.AperFunction,SMDPad,CuDef*%
G36*
G01*
X111421200Y-73063200D02*
X111421200Y-72863200D01*
G75*
G02*
X111521200Y-72763200I100000J0D01*
G01*
X112796200Y-72763200D01*
G75*
G02*
X112896200Y-72863200I0J-100000D01*
G01*
X112896200Y-73063200D01*
G75*
G02*
X112796200Y-73163200I-100000J0D01*
G01*
X111521200Y-73163200D01*
G75*
G02*
X111421200Y-73063200I0J100000D01*
G01*
G37*
%TD.AperFunction*%
%TO.P,U4,13*%
%TO.N,SPI_MISO*%
%TA.AperFunction,SMDPad,CuDef*%
G36*
G01*
X111421200Y-72413200D02*
X111421200Y-72213200D01*
G75*
G02*
X111521200Y-72113200I100000J0D01*
G01*
X112796200Y-72113200D01*
G75*
G02*
X112896200Y-72213200I0J-100000D01*
G01*
X112896200Y-72413200D01*
G75*
G02*
X112796200Y-72513200I-100000J0D01*
G01*
X111521200Y-72513200D01*
G75*
G02*
X111421200Y-72413200I0J100000D01*
G01*
G37*
%TD.AperFunction*%
%TO.P,U4,14*%
%TO.N,SPI_MOSI*%
%TA.AperFunction,SMDPad,CuDef*%
G36*
G01*
X111421200Y-71763200D02*
X111421200Y-71563200D01*
G75*
G02*
X111521200Y-71463200I100000J0D01*
G01*
X112796200Y-71463200D01*
G75*
G02*
X112896200Y-71563200I0J-100000D01*
G01*
X112896200Y-71763200D01*
G75*
G02*
X112796200Y-71863200I-100000J0D01*
G01*
X111521200Y-71863200D01*
G75*
G02*
X111421200Y-71763200I0J100000D01*
G01*
G37*
%TD.AperFunction*%
%TO.P,U4,15*%
%TO.N,SPI_CS*%
%TA.AperFunction,SMDPad,CuDef*%
G36*
G01*
X111421200Y-71113200D02*
X111421200Y-70913200D01*
G75*
G02*
X111521200Y-70813200I100000J0D01*
G01*
X112796200Y-70813200D01*
G75*
G02*
X112896200Y-70913200I0J-100000D01*
G01*
X112896200Y-71113200D01*
G75*
G02*
X112796200Y-71213200I-100000J0D01*
G01*
X111521200Y-71213200D01*
G75*
G02*
X111421200Y-71113200I0J100000D01*
G01*
G37*
%TD.AperFunction*%
%TO.P,U4,16*%
%TO.N,NRF24_CE*%
%TA.AperFunction,SMDPad,CuDef*%
G36*
G01*
X111421200Y-70463200D02*
X111421200Y-70263200D01*
G75*
G02*
X111521200Y-70163200I100000J0D01*
G01*
X112796200Y-70163200D01*
G75*
G02*
X112896200Y-70263200I0J-100000D01*
G01*
X112896200Y-70463200D01*
G75*
G02*
X112796200Y-70563200I-100000J0D01*
G01*
X111521200Y-70563200D01*
G75*
G02*
X111421200Y-70463200I0J100000D01*
G01*
G37*
%TD.AperFunction*%
%TO.P,U4,17*%
%TO.N,LED1*%
%TA.AperFunction,SMDPad,CuDef*%
G36*
G01*
X111421200Y-69813200D02*
X111421200Y-69613200D01*
G75*
G02*
X111521200Y-69513200I100000J0D01*
G01*
X112796200Y-69513200D01*
G75*
G02*
X112896200Y-69613200I0J-100000D01*
G01*
X112896200Y-69813200D01*
G75*
G02*
X112796200Y-69913200I-100000J0D01*
G01*
X111521200Y-69913200D01*
G75*
G02*
X111421200Y-69813200I0J100000D01*
G01*
G37*
%TD.AperFunction*%
%TO.P,U4,18*%
%TO.N,SWD_IO*%
%TA.AperFunction,SMDPad,CuDef*%
G36*
G01*
X111421200Y-69163200D02*
X111421200Y-68963200D01*
G75*
G02*
X111521200Y-68863200I100000J0D01*
G01*
X112796200Y-68863200D01*
G75*
G02*
X112896200Y-68963200I0J-100000D01*
G01*
X112896200Y-69163200D01*
G75*
G02*
X112796200Y-69263200I-100000J0D01*
G01*
X111521200Y-69263200D01*
G75*
G02*
X111421200Y-69163200I0J100000D01*
G01*
G37*
%TD.AperFunction*%
%TO.P,U4,19*%
%TO.N,SWD_CLK*%
%TA.AperFunction,SMDPad,CuDef*%
G36*
G01*
X111421200Y-68513200D02*
X111421200Y-68313200D01*
G75*
G02*
X111521200Y-68213200I100000J0D01*
G01*
X112796200Y-68213200D01*
G75*
G02*
X112896200Y-68313200I0J-100000D01*
G01*
X112896200Y-68513200D01*
G75*
G02*
X112796200Y-68613200I-100000J0D01*
G01*
X111521200Y-68613200D01*
G75*
G02*
X111421200Y-68513200I0J100000D01*
G01*
G37*
%TD.AperFunction*%
%TO.P,U4,20*%
%TO.N,I2C1_CLK*%
%TA.AperFunction,SMDPad,CuDef*%
G36*
G01*
X111421200Y-67863200D02*
X111421200Y-67663200D01*
G75*
G02*
X111521200Y-67563200I100000J0D01*
G01*
X112796200Y-67563200D01*
G75*
G02*
X112896200Y-67663200I0J-100000D01*
G01*
X112896200Y-67863200D01*
G75*
G02*
X112796200Y-67963200I-100000J0D01*
G01*
X111521200Y-67963200D01*
G75*
G02*
X111421200Y-67863200I0J100000D01*
G01*
G37*
%TD.AperFunction*%
%TD*%
D25*
%TO.P,Y1,1*%
%TO.N,Net-(C4-Pad1)*%
X116672000Y-77595200D03*
%TO.P,Y1,2*%
%TO.N,GND*%
X118872000Y-77595200D03*
%TO.P,Y1,3*%
%TO.N,Net-(C6-Pad1)*%
X118872000Y-75895200D03*
%TO.P,Y1,4*%
%TO.N,GND*%
X116672000Y-75895200D03*
%TD*%
D26*
%TO.N,GND*%
X91389200Y-75895200D03*
X99136200Y-73380600D03*
X107543600Y-70332600D03*
X102362000Y-69723000D03*
X100203000Y-76174600D03*
X95504000Y-61544200D03*
X89281000Y-63754000D03*
X107086400Y-63093600D03*
X107594400Y-65303400D03*
X118084600Y-63957200D03*
X117779800Y-62509400D03*
X109550200Y-79476600D03*
X104317800Y-71577200D03*
X93319600Y-75641200D03*
X118922800Y-78841600D03*
X120548400Y-78028800D03*
X114731800Y-75641200D03*
X115316000Y-75412600D03*
X124002800Y-74726800D03*
X124891800Y-67564000D03*
X103073200Y-65049400D03*
X132181600Y-74472800D03*
X132130800Y-65201800D03*
X116205000Y-74396600D03*
X124688600Y-72593200D03*
X121869200Y-73787000D03*
X121869200Y-75666600D03*
X121869200Y-77520800D03*
X121869200Y-79629000D03*
X123850400Y-79629000D03*
X125933200Y-79629000D03*
X127914400Y-79629000D03*
X129895600Y-79629000D03*
X131978400Y-79629000D03*
X121666000Y-65405000D03*
X121666000Y-67259200D03*
X121666000Y-69367400D03*
X121666000Y-63525400D03*
X131775200Y-61595000D03*
X121666000Y-61595000D03*
X127711200Y-61595000D03*
X123647200Y-61595000D03*
X125730000Y-61595000D03*
X129692400Y-61595000D03*
X133146800Y-62636400D03*
X133146800Y-64617600D03*
X133096000Y-76352400D03*
X133096000Y-78333600D03*
X127050800Y-74498200D03*
X127025400Y-65125600D03*
X114096800Y-67335400D03*
X120065800Y-69265800D03*
X109778800Y-64566800D03*
X110083600Y-61315600D03*
X92329000Y-79324200D03*
X91668600Y-78841600D03*
X105943400Y-75209400D03*
%TO.N,+3V3*%
X101803200Y-65074800D03*
X99771200Y-65024000D03*
X100761800Y-66903600D03*
X101981000Y-66751200D03*
X103784400Y-67132200D03*
X102743000Y-75539600D03*
X105486200Y-78994000D03*
X117729000Y-61366400D03*
X116611400Y-65735200D03*
X116916200Y-66471800D03*
X119405400Y-67868800D03*
X113690400Y-74244200D03*
%TO.N,SWD_IO*%
X110667800Y-74599800D03*
X108280200Y-74777600D03*
%TO.N,NRST*%
X107188000Y-74803000D03*
X111887000Y-74650600D03*
%TO.N,RELAY_TRIG*%
X105064042Y-72303158D03*
X103733600Y-76784200D03*
%TO.N,SPI_CLK*%
X113741200Y-72974200D03*
X113741200Y-71043800D03*
%TO.N,LED1*%
X113588800Y-69037200D03*
X108229400Y-66878200D03*
%TO.N,BOTON*%
X107772200Y-68554600D03*
X94615000Y-69316600D03*
%TO.N,Net-(U2-Pad1)*%
X96012000Y-73380600D03*
X96012000Y-71704200D03*
%TO.N,TIM2_CH1*%
X105054400Y-71145400D03*
X104495600Y-67665600D03*
%TO.N,I2C1_CLK*%
X111633000Y-66700400D03*
X110195200Y-66423558D03*
%TD*%
D27*
%TO.N,Net-(AE1-Pad1)*%
X129037200Y-70454400D02*
X129590800Y-69900800D01*
X129057400Y-70434200D02*
X129590800Y-69900800D01*
X124889200Y-70434200D02*
X129057400Y-70434200D01*
D28*
X124889200Y-69392800D02*
X124891800Y-69390200D01*
X124889200Y-70434200D02*
X124889200Y-69392800D01*
%TO.N,GND*%
X120291000Y-77595200D02*
X120599200Y-77287000D01*
X118872000Y-77595200D02*
X120291000Y-77595200D01*
X116672000Y-75895200D02*
X115420200Y-75895200D01*
X114940200Y-67749300D02*
X114940200Y-67360800D01*
X115916200Y-68725300D02*
X114940200Y-67749300D01*
X117878800Y-67368426D02*
X117878800Y-67360800D01*
X117416200Y-67831026D02*
X117878800Y-67368426D01*
X117416200Y-68725300D02*
X117416200Y-67831026D01*
D27*
X100326600Y-68298000D02*
X101320600Y-68298000D01*
X99729800Y-67701200D02*
X100326600Y-68298000D01*
X101320600Y-68298000D02*
X101368800Y-68298000D01*
X102197200Y-69126400D02*
X103022400Y-69126400D01*
X101368800Y-68298000D02*
X102197200Y-69126400D01*
D29*
X117599400Y-62986800D02*
X117599400Y-63449200D01*
X117043200Y-62430600D02*
X117599400Y-62986800D01*
D27*
X99415600Y-69342000D02*
X99517200Y-69443600D01*
X98066800Y-69342000D02*
X99415600Y-69342000D01*
X99517200Y-67913800D02*
X99729800Y-67701200D01*
X99900800Y-68298000D02*
X99517200Y-68681600D01*
X100326600Y-68298000D02*
X99900800Y-68298000D01*
X99517200Y-68681600D02*
X99517200Y-67913800D01*
X99517200Y-69443600D02*
X99517200Y-68681600D01*
D29*
X116655020Y-62430600D02*
X117043200Y-62430600D01*
X116208620Y-62877000D02*
X116655020Y-62430600D01*
X115259400Y-62877000D02*
X116208620Y-62877000D01*
X104706600Y-70363200D02*
X104571800Y-70228400D01*
X106433700Y-70363200D02*
X104706600Y-70363200D01*
X104124400Y-70228400D02*
X103022400Y-69126400D01*
X104571800Y-70228400D02*
X104124400Y-70228400D01*
D28*
X124000200Y-73812400D02*
X124000200Y-72593200D01*
X92679202Y-75895200D02*
X91389200Y-75895200D01*
X93506401Y-73897999D02*
X93506401Y-75068001D01*
X93141402Y-73533000D02*
X93506401Y-73897999D01*
X92651400Y-73533000D02*
X93141402Y-73533000D01*
D27*
X120548400Y-77337800D02*
X120599200Y-77287000D01*
X120548400Y-78028800D02*
X120548400Y-77337800D01*
X118922800Y-77646000D02*
X118872000Y-77595200D01*
X118922800Y-78841600D02*
X118922800Y-77646000D01*
X115316000Y-75791000D02*
X115420200Y-75895200D01*
X115316000Y-75412600D02*
X115316000Y-75791000D01*
X114731800Y-76228000D02*
X114909600Y-76405800D01*
X114731800Y-75641200D02*
X114731800Y-76228000D01*
X115164900Y-76074300D02*
X115241100Y-76074300D01*
X114731800Y-75641200D02*
X115164900Y-76074300D01*
D28*
X115241100Y-76074300D02*
X114909600Y-76405800D01*
X115420200Y-75895200D02*
X115241100Y-76074300D01*
D27*
X115316000Y-75412600D02*
X115646200Y-75742800D01*
X116519600Y-75742800D02*
X116672000Y-75895200D01*
X115646200Y-75742800D02*
X116519600Y-75742800D01*
X114983200Y-76405800D02*
X115646200Y-75742800D01*
X114909600Y-76405800D02*
X114983200Y-76405800D01*
X115087400Y-75641200D02*
X115316000Y-75412600D01*
X114731800Y-75641200D02*
X115087400Y-75641200D01*
X120169200Y-77595200D02*
X120291000Y-77595200D01*
X118922800Y-78841600D02*
X120169200Y-77595200D01*
X120548400Y-78028800D02*
X119938800Y-78028800D01*
X119505200Y-77595200D02*
X118872000Y-77595200D01*
X119938800Y-78028800D02*
X119505200Y-77595200D01*
X118922800Y-78841600D02*
X118922800Y-78460600D01*
X118922800Y-78460600D02*
X119024400Y-78359000D01*
X120218200Y-78359000D02*
X120548400Y-78028800D01*
X119024400Y-78359000D02*
X120218200Y-78359000D01*
X91257599Y-76026801D02*
X90083100Y-76026801D01*
X91389200Y-75895200D02*
X91257599Y-76026801D01*
D28*
X92252800Y-73533000D02*
X92651400Y-73533000D01*
X93319600Y-75387200D02*
X93253401Y-75321001D01*
X93319600Y-75641200D02*
X93319600Y-75387200D01*
X93253401Y-75321001D02*
X92679202Y-75895200D01*
X93506401Y-75068001D02*
X93253401Y-75321001D01*
X99085400Y-73431400D02*
X99136200Y-73380600D01*
X97651800Y-73431400D02*
X99085400Y-73431400D01*
D30*
X89033600Y-63754000D02*
X88038800Y-62759200D01*
X89281000Y-63754000D02*
X89033600Y-63754000D01*
X95504000Y-61794000D02*
X94538800Y-62759200D01*
X95504000Y-61544200D02*
X95504000Y-61794000D01*
X106172000Y-63093600D02*
X105638600Y-62560200D01*
X107086400Y-63093600D02*
X106172000Y-63093600D01*
D27*
X117122000Y-62509400D02*
X117043200Y-62430600D01*
X117779800Y-62509400D02*
X117122000Y-62509400D01*
X117599400Y-62689800D02*
X117779800Y-62509400D01*
X117599400Y-63449200D02*
X117599400Y-62689800D01*
X118084600Y-64107000D02*
X117599400Y-64592200D01*
X118084600Y-63957200D02*
X118084600Y-64107000D01*
X118084600Y-63957200D02*
X117830600Y-63957200D01*
X117599400Y-63726000D02*
X117599400Y-63449200D01*
X117830600Y-63957200D02*
X117599400Y-63726000D01*
X117878800Y-64871600D02*
X117599400Y-64592200D01*
D28*
X117902200Y-66292000D02*
X117878800Y-66268600D01*
X117878800Y-67360800D02*
X117878800Y-66268600D01*
D27*
X103391000Y-65862200D02*
X103391000Y-65747600D01*
X107594400Y-65303400D02*
X107543600Y-65303400D01*
X107414600Y-65174400D02*
X106908600Y-65174400D01*
X107543600Y-65303400D02*
X107414600Y-65174400D01*
D28*
X106464300Y-70332600D02*
X106433700Y-70363200D01*
X107543600Y-70332600D02*
X106464300Y-70332600D01*
D27*
X100330000Y-77927200D02*
X100228400Y-77825600D01*
D28*
X124002800Y-73815000D02*
X124000200Y-73812400D01*
X124002800Y-74726800D02*
X124002800Y-73815000D01*
X116916200Y-72720200D02*
X116890800Y-72745600D01*
X116916200Y-72600300D02*
X116916200Y-72720200D01*
X115953820Y-74320400D02*
X115491200Y-74320400D01*
X116890800Y-72745600D02*
X116890800Y-73383420D01*
X116205000Y-74091800D02*
X116193710Y-74080510D01*
X116205000Y-74396600D02*
X116205000Y-74091800D01*
X116193710Y-74080510D02*
X115953820Y-74320400D01*
X116890800Y-73383420D02*
X116193710Y-74080510D01*
X116030020Y-74396600D02*
X115953820Y-74320400D01*
X116205000Y-74396600D02*
X116030020Y-74396600D01*
D27*
X109550200Y-78079600D02*
X109575600Y-78054200D01*
X109550200Y-79476600D02*
X109550200Y-78079600D01*
D28*
X124688600Y-72593200D02*
X124000200Y-72593200D01*
D27*
X127025400Y-67335400D02*
X127050800Y-67360800D01*
X127025400Y-65125600D02*
X127025400Y-67335400D01*
D31*
X121869200Y-73787000D02*
X121869200Y-79629000D01*
X121869200Y-79629000D02*
X131978400Y-79629000D01*
X131978400Y-79629000D02*
X132410200Y-79629000D01*
X133096000Y-78943200D02*
X133096000Y-78333600D01*
X132410200Y-79629000D02*
X133096000Y-78943200D01*
X133096000Y-78333600D02*
X133096000Y-76352400D01*
X121666000Y-69367400D02*
X121666000Y-61595000D01*
X121666000Y-61595000D02*
X131775200Y-61595000D01*
X132105400Y-61595000D02*
X133146800Y-62636400D01*
X131775200Y-61595000D02*
X132105400Y-61595000D01*
X133146800Y-62636400D02*
X133146800Y-64617600D01*
D28*
X114914800Y-67335400D02*
X114940200Y-67360800D01*
X114096800Y-67335400D02*
X114914800Y-67335400D01*
X120065800Y-69411222D02*
X120065800Y-69265800D01*
X119314222Y-70162800D02*
X120065800Y-69411222D01*
X118853700Y-70162800D02*
X119314222Y-70162800D01*
X117879400Y-65911000D02*
X117878800Y-65910400D01*
X119049800Y-65911000D02*
X117879400Y-65911000D01*
D27*
X117878800Y-65910400D02*
X117878800Y-64871600D01*
X117878800Y-66268600D02*
X117878800Y-65910400D01*
D28*
X117500390Y-64084210D02*
X117599400Y-63985200D01*
X116306784Y-64084210D02*
X117500390Y-64084210D01*
X116099574Y-63877000D02*
X116306784Y-64084210D01*
X115259400Y-63877000D02*
X116099574Y-63877000D01*
D29*
X117599400Y-63985200D02*
X117599400Y-64592200D01*
X117599400Y-63449200D02*
X117599400Y-63985200D01*
D27*
X132130800Y-67360800D02*
X132130800Y-65532000D01*
D28*
X132130800Y-65532000D02*
X132130800Y-65201800D01*
D27*
X132130800Y-65532000D02*
X132130800Y-65252600D01*
X127050800Y-74498200D02*
X127050800Y-72440800D01*
X132181600Y-72491600D02*
X132130800Y-72440800D01*
X132181600Y-74472800D02*
X132181600Y-72491600D01*
X100228400Y-77190600D02*
X100203000Y-77165200D01*
X100228400Y-77825600D02*
X100228400Y-77190600D01*
X100203000Y-76174600D02*
X100203000Y-77165200D01*
D28*
X104317800Y-70482400D02*
X104571800Y-70228400D01*
X124891800Y-68430200D02*
X124891800Y-67564000D01*
D27*
X103391000Y-65367200D02*
X103073200Y-65049400D01*
X103391000Y-65862200D02*
X103391000Y-65367200D01*
D28*
X104317800Y-71577200D02*
X104317800Y-70482400D01*
X110382600Y-61677000D02*
X110261400Y-61798200D01*
X112059400Y-61677000D02*
X110382600Y-61677000D01*
X107365800Y-62814200D02*
X107086400Y-63093600D01*
X108559600Y-62814200D02*
X107365800Y-62814200D01*
X110382600Y-61614600D02*
X110083600Y-61315600D01*
X110382600Y-61677000D02*
X110382600Y-61614600D01*
X109575600Y-61798200D02*
X110261400Y-61798200D01*
X108559600Y-62814200D02*
X109575600Y-61798200D01*
D29*
X91897200Y-78613000D02*
X91668600Y-78841600D01*
X91897200Y-78081600D02*
X91897200Y-78613000D01*
X93001800Y-79324200D02*
X93433600Y-78892400D01*
X92329000Y-79324200D02*
X93001800Y-79324200D01*
D28*
X109778800Y-64132400D02*
X109956600Y-63954600D01*
X109778800Y-64566800D02*
X109778800Y-64132400D01*
X104673400Y-75257600D02*
X104823200Y-75257600D01*
X105895200Y-75257600D02*
X105943400Y-75209400D01*
X104673400Y-75257600D02*
X105895200Y-75257600D01*
%TO.N,Net-(C3-Pad1)*%
X116416200Y-67876800D02*
X115900200Y-67360800D01*
X116416200Y-68725300D02*
X116416200Y-67876800D01*
%TO.N,Net-(C4-Pad1)*%
X117416200Y-73892600D02*
X117416200Y-72600300D01*
X117166200Y-74142600D02*
X117416200Y-73892600D01*
X115139000Y-77595200D02*
X114909600Y-77365800D01*
X116672000Y-77595200D02*
X115139000Y-77595200D01*
X116672000Y-77595200D02*
X116918000Y-77595200D01*
X117697001Y-76816199D02*
X117697001Y-75075801D01*
X116918000Y-77595200D02*
X117697001Y-76816199D01*
X117166200Y-74545000D02*
X117166200Y-74142600D01*
X117697001Y-75075801D02*
X117166200Y-74545000D01*
%TO.N,Net-(C5-Pad1)*%
X123037800Y-72595600D02*
X123040200Y-72593200D01*
X121843800Y-72595600D02*
X123037800Y-72595600D01*
X121843800Y-72595600D02*
X120398400Y-72595600D01*
X119465600Y-71662800D02*
X118853700Y-71662800D01*
X120398400Y-72595600D02*
X119465600Y-71662800D01*
X123040200Y-72593200D02*
X123040200Y-73812400D01*
%TO.N,Net-(C6-Pad1)*%
X118186200Y-74142600D02*
X118186200Y-73888600D01*
X117916200Y-73618600D02*
X117916200Y-72600300D01*
X118186200Y-73888600D02*
X117916200Y-73618600D01*
X118186200Y-74142600D02*
X118186200Y-74168000D01*
X118872000Y-74853800D02*
X118872000Y-75895200D01*
X118186200Y-74168000D02*
X118872000Y-74853800D01*
X120167400Y-75895200D02*
X120599200Y-76327000D01*
X118872000Y-75895200D02*
X120167400Y-75895200D01*
%TO.N,Net-(C8-Pad2)*%
X122758200Y-70434200D02*
X123929200Y-70434200D01*
D27*
%TO.N,5V*%
X97106800Y-67374200D02*
X97729800Y-66751200D01*
X97106800Y-69342000D02*
X97106800Y-67374200D01*
X97729800Y-62849000D02*
X98018600Y-62560200D01*
X97729800Y-66751200D02*
X97729800Y-62849000D01*
X95885000Y-69342000D02*
X97106800Y-69342000D01*
X91413156Y-71654844D02*
X91846400Y-71221600D01*
X94005400Y-71221600D02*
X95885000Y-69342000D01*
X91413156Y-72518056D02*
X91413156Y-71654844D01*
X91846400Y-71221600D02*
X94005400Y-71221600D01*
X91221389Y-72709823D02*
X91413156Y-72518056D01*
X91221389Y-73015011D02*
X91221389Y-72709823D01*
X90809600Y-73426800D02*
X91221389Y-73015011D01*
X90083100Y-73426800D02*
X90809600Y-73426800D01*
D28*
X93996399Y-71230601D02*
X94005400Y-71221600D01*
X94361398Y-73533000D02*
X93996399Y-73168001D01*
X94361398Y-73533000D02*
X93996399Y-73897999D01*
X94851400Y-73533000D02*
X94361398Y-73533000D01*
X93996399Y-72914399D02*
X93996399Y-71230601D01*
X93996399Y-73168001D02*
X93996399Y-72914399D01*
X94851400Y-73533000D02*
X94056200Y-73533000D01*
X94056200Y-73533000D02*
X93996399Y-73592801D01*
X93996399Y-73592801D02*
X93996399Y-72914399D01*
X94996100Y-76067702D02*
X94996100Y-77038200D01*
X93996399Y-75068001D02*
X94996100Y-76067702D01*
X93996399Y-73897999D02*
X93996399Y-75068001D01*
D29*
X94983600Y-77050700D02*
X94996100Y-77038200D01*
X94983600Y-78892400D02*
X94983600Y-77050700D01*
D27*
X96901000Y-77038200D02*
X97688400Y-77825600D01*
X94996100Y-77038200D02*
X96901000Y-77038200D01*
D29*
%TO.N,Net-(C11-Pad1)*%
X101925000Y-70891400D02*
X100477200Y-69443600D01*
X102601800Y-70891400D02*
X101925000Y-70891400D01*
D28*
%TO.N,+3V3*%
X116916200Y-67363400D02*
X116918800Y-67360800D01*
X116916200Y-68725300D02*
X116916200Y-67363400D01*
X116416200Y-72600300D02*
X116416200Y-73221610D01*
X114531200Y-74320400D02*
X114531200Y-73962200D01*
X116102600Y-73535210D02*
X116416200Y-73221610D01*
X114958190Y-73535210D02*
X116102600Y-73535210D01*
X114531200Y-73962200D02*
X114958190Y-73535210D01*
D27*
X101780000Y-65801200D02*
X101841000Y-65862200D01*
X99729800Y-65801200D02*
X99729800Y-65801200D01*
X102784000Y-67338000D02*
X103022400Y-67576400D01*
D29*
X114559400Y-61677000D02*
X114768400Y-61468000D01*
X117040600Y-61468000D02*
X117043200Y-61470600D01*
X114768400Y-61468000D02*
X117040600Y-61468000D01*
X104614780Y-69268400D02*
X104571800Y-69268400D01*
X105059580Y-69713200D02*
X104614780Y-69268400D01*
X106433700Y-69713200D02*
X105059580Y-69713200D01*
X104571800Y-69125800D02*
X103022400Y-67576400D01*
X104571800Y-69268400D02*
X104571800Y-69125800D01*
D27*
X101320600Y-66382600D02*
X101841000Y-65862200D01*
X99729800Y-65801200D02*
X101780000Y-65801200D01*
X102743000Y-74842600D02*
X102601800Y-74701400D01*
X102743000Y-75539600D02*
X102743000Y-74842600D01*
X117147400Y-61366400D02*
X117043200Y-61470600D01*
X117729000Y-61366400D02*
X117147400Y-61366400D01*
X116611400Y-65709800D02*
X116611400Y-65026600D01*
X101196200Y-67338000D02*
X100761800Y-66903600D01*
X101320600Y-67338000D02*
X101196200Y-67338000D01*
X101269800Y-66903600D02*
X101320600Y-66852800D01*
X100761800Y-66903600D02*
X101269800Y-66903600D01*
X101320600Y-66852800D02*
X101320600Y-66382600D01*
X101320600Y-67338000D02*
X101320600Y-66852800D01*
X101981000Y-66002200D02*
X101841000Y-65862200D01*
X101981000Y-66751200D02*
X101981000Y-66002200D01*
X101981000Y-66751200D02*
X101854000Y-66751200D01*
X101701600Y-66903600D02*
X100761800Y-66903600D01*
X101854000Y-66751200D02*
X101701600Y-66903600D01*
X101612400Y-66382600D02*
X101320600Y-66382600D01*
X101981000Y-66751200D02*
X101612400Y-66382600D01*
X102806200Y-67576400D02*
X101981000Y-66751200D01*
X103022400Y-67576400D02*
X102806200Y-67576400D01*
X101981000Y-67233800D02*
X102085200Y-67338000D01*
X101981000Y-66751200D02*
X101981000Y-67233800D01*
X102085200Y-67338000D02*
X102784000Y-67338000D01*
X101320600Y-67338000D02*
X102085200Y-67338000D01*
X103340200Y-67576400D02*
X103784400Y-67132200D01*
X103022400Y-67576400D02*
X103340200Y-67576400D01*
D28*
X116918800Y-66474400D02*
X116916200Y-66471800D01*
X116918800Y-67360800D02*
X116918800Y-66474400D01*
X118853700Y-68420500D02*
X119405400Y-67868800D01*
X118853700Y-69662800D02*
X118853700Y-68420500D01*
X114455000Y-74244200D02*
X114531200Y-74320400D01*
X113690400Y-74244200D02*
X114455000Y-74244200D01*
X116660964Y-65074800D02*
X116715600Y-65074800D01*
X115963164Y-64377000D02*
X116660964Y-65074800D01*
X115259400Y-64377000D02*
X115963164Y-64377000D01*
D27*
X106934000Y-78155800D02*
X107035600Y-78054200D01*
X106426000Y-78054200D02*
X105486200Y-78994000D01*
X107035600Y-78054200D02*
X106426000Y-78054200D01*
D29*
%TO.N,Net-(D1-Pad1)*%
X93397700Y-77061600D02*
X93421100Y-77038200D01*
X91897200Y-77061600D02*
X93397700Y-77061600D01*
D28*
%TO.N,Net-(J1-Pad2)*%
X90083100Y-74076800D02*
X91008100Y-74076800D01*
X92161398Y-72583000D02*
X92651400Y-72583000D01*
X91796399Y-72947999D02*
X92161398Y-72583000D01*
X91796399Y-73288501D02*
X91796399Y-72947999D01*
X91008100Y-74076800D02*
X91796399Y-73288501D01*
%TO.N,Net-(J1-Pad3)*%
X92407600Y-74726800D02*
X92651400Y-74483000D01*
X90083100Y-74726800D02*
X92407600Y-74726800D01*
D27*
%TO.N,Net-(J1-Pad6)*%
X87383100Y-77626800D02*
X87383100Y-75726800D01*
X87383100Y-75726800D02*
X87383100Y-73726800D01*
X87383100Y-73726800D02*
X87383100Y-71826800D01*
X87383100Y-71826800D02*
X87383100Y-71226800D01*
X87783100Y-72226800D02*
X87383100Y-71826800D01*
X90083100Y-72226800D02*
X87783100Y-72226800D01*
X87383100Y-77626800D02*
X87383100Y-78226800D01*
X89683100Y-77626800D02*
X90083100Y-77226800D01*
X87383100Y-77626800D02*
X89683100Y-77626800D01*
D28*
%TO.N,SWD_IO*%
X112438100Y-68987000D02*
X111749542Y-68987000D01*
X110667800Y-69816600D02*
X110667800Y-74599800D01*
X111421200Y-69063200D02*
X110667800Y-69816600D01*
X112158700Y-69063200D02*
X111421200Y-69063200D01*
X107035600Y-76022200D02*
X108280200Y-74777600D01*
X107035600Y-76784200D02*
X107035600Y-76022200D01*
%TO.N,SWD_CLK*%
X112438100Y-68337000D02*
X111700600Y-68337000D01*
X108305600Y-75692000D02*
X108305600Y-76784200D01*
X109626400Y-74371200D02*
X108305600Y-75692000D01*
X109626400Y-69570600D02*
X109626400Y-74371200D01*
X110783800Y-68413200D02*
X109626400Y-69570600D01*
X112158700Y-68413200D02*
X110783800Y-68413200D01*
%TO.N,NRST*%
X107496210Y-71338210D02*
X107496210Y-74494790D01*
X107496210Y-74494790D02*
X107188000Y-74803000D01*
X107171200Y-71013200D02*
X107496210Y-71338210D01*
X106433700Y-71013200D02*
X107171200Y-71013200D01*
X111887000Y-76555600D02*
X112115600Y-76784200D01*
X111887000Y-74650600D02*
X111887000Y-76555600D01*
X107188000Y-74803000D02*
X106527600Y-74803000D01*
X106022200Y-74297600D02*
X104673400Y-74297600D01*
X106527600Y-74803000D02*
X106022200Y-74297600D01*
%TO.N,RELAY_TRIG*%
X105074084Y-72313200D02*
X105064042Y-72303158D01*
X106433700Y-72313200D02*
X105074084Y-72313200D01*
X102768400Y-77749400D02*
X103733600Y-76784200D01*
X102768400Y-77825600D02*
X102768400Y-77749400D01*
%TO.N,Net-(L1-Pad1)*%
X121594600Y-71376400D02*
X121843800Y-71625600D01*
X120624600Y-71376400D02*
X121594600Y-71376400D01*
X120411000Y-71162800D02*
X118853700Y-71162800D01*
X120624600Y-71376400D02*
X120411000Y-71162800D01*
%TO.N,Net-(L1-Pad2)*%
X118853700Y-70662800D02*
X119684800Y-70662800D01*
X119941200Y-70406400D02*
X120624600Y-70406400D01*
X119684800Y-70662800D02*
X119941200Y-70406400D01*
X121760400Y-70406400D02*
X121788200Y-70434200D01*
X120624600Y-70406400D02*
X121760400Y-70406400D01*
%TO.N,Net-(R1-Pad1)*%
X117916200Y-68725300D02*
X117916200Y-68496400D01*
X119049800Y-67179200D02*
X119049800Y-66931000D01*
X117916200Y-68312800D02*
X119049800Y-67179200D01*
X117916200Y-68725300D02*
X117916200Y-68312800D01*
%TO.N,NRF24_CE*%
X113560788Y-69662800D02*
X114978700Y-69662800D01*
X112860388Y-70363200D02*
X113560788Y-69662800D01*
X112158700Y-70363200D02*
X112860388Y-70363200D01*
%TO.N,SPI_CS*%
X112438100Y-70937000D02*
X112603400Y-70937000D01*
X113697198Y-70162800D02*
X114978700Y-70162800D01*
X113116199Y-70743799D02*
X113697198Y-70162800D01*
X112959000Y-71013200D02*
X113116199Y-70856001D01*
X113116199Y-70856001D02*
X113116199Y-70743799D01*
X112158700Y-71013200D02*
X112959000Y-71013200D01*
%TO.N,SPI_CLK*%
X113730200Y-72963200D02*
X113741200Y-72974200D01*
X112158700Y-72963200D02*
X113730200Y-72963200D01*
X114122200Y-70662800D02*
X114978700Y-70662800D01*
X113741200Y-71043800D02*
X114122200Y-70662800D01*
%TO.N,SPI_MOSI*%
X114518178Y-71162800D02*
X113892788Y-71788190D01*
X114978700Y-71162800D02*
X114518178Y-71162800D01*
X113892788Y-71788190D02*
X113063190Y-71788190D01*
X112938200Y-71663200D02*
X112158700Y-71663200D01*
X113063190Y-71788190D02*
X112938200Y-71663200D01*
%TO.N,SPI_MISO*%
X114328300Y-72313200D02*
X114978700Y-71662800D01*
X112158700Y-72313200D02*
X114328300Y-72313200D01*
%TO.N,NRF24_IRQ*%
X115916200Y-73085200D02*
X115916200Y-72600300D01*
X115916200Y-72600300D02*
X115029500Y-72600300D01*
X115029500Y-72610902D02*
X115029500Y-72600300D01*
X114027202Y-73613200D02*
X115029500Y-72610902D01*
X112158700Y-73613200D02*
X114027202Y-73613200D01*
%TO.N,UART2_RX*%
X102783600Y-73613200D02*
X106433700Y-73613200D01*
X102601800Y-73431400D02*
X102783600Y-73613200D01*
%TO.N,UART2_TX*%
X106433700Y-72963200D02*
X104840200Y-72963200D01*
X104038400Y-72161400D02*
X102601800Y-72161400D01*
X104840200Y-72963200D02*
X104038400Y-72161400D01*
%TO.N,LED1*%
X113549978Y-69037200D02*
X113588800Y-69037200D01*
X112873978Y-69713200D02*
X113549978Y-69037200D01*
X112158700Y-69713200D02*
X112873978Y-69713200D01*
X108229400Y-66245200D02*
X108100400Y-66116200D01*
X108229400Y-66878200D02*
X108229400Y-66245200D01*
D27*
%TO.N,Net-(R6-Pad1)*%
X92657200Y-69140800D02*
X94538800Y-67259200D01*
X92657200Y-69773800D02*
X92657200Y-69140800D01*
X90553400Y-69773800D02*
X88038800Y-67259200D01*
X92657200Y-69773800D02*
X90553400Y-69773800D01*
D28*
%TO.N,BOTON*%
X107263600Y-69063200D02*
X107772200Y-68554600D01*
X106433700Y-69063200D02*
X107263600Y-69063200D01*
X94134400Y-69316600D02*
X93677200Y-69773800D01*
X94615000Y-69316600D02*
X94134400Y-69316600D01*
%TO.N,Net-(U2-Pad1)*%
X94851400Y-74483000D02*
X95697000Y-74483000D01*
X96012000Y-74168000D02*
X96012000Y-73380600D01*
X95697000Y-74483000D02*
X96012000Y-74168000D01*
X96824800Y-70891400D02*
X97651800Y-70891400D01*
X96012000Y-71704200D02*
X96824800Y-70891400D01*
%TO.N,Net-(U2-Pad2)*%
X94851400Y-72583000D02*
X96098400Y-72583000D01*
X96520000Y-72161400D02*
X97651800Y-72161400D01*
X96098400Y-72583000D02*
X96520000Y-72161400D01*
%TO.N,Net-(J4-Pad2)*%
X105587800Y-65049400D02*
X103098600Y-62560200D01*
X105587800Y-65199800D02*
X105587800Y-65049400D01*
%TO.N,Net-(C19-Pad1)*%
X116567200Y-63377000D02*
X116639400Y-63449200D01*
X115259400Y-63377000D02*
X116567200Y-63377000D01*
%TO.N,Net-(C20-Pad1)*%
X110074200Y-62877000D02*
X111359400Y-62877000D01*
X109956600Y-62994600D02*
X110074200Y-62877000D01*
%TO.N,TIM2_CH1*%
X104495600Y-67665600D02*
X104495600Y-64922400D01*
X104495600Y-64922400D02*
X103962200Y-64389000D01*
X103962200Y-64389000D02*
X101168200Y-64389000D01*
X100558600Y-63779400D02*
X100558600Y-62560200D01*
X101168200Y-64389000D02*
X100558600Y-63779400D01*
X105054400Y-71526400D02*
X105054400Y-71145400D01*
X105191200Y-71663200D02*
X105054400Y-71526400D01*
X106433700Y-71663200D02*
X105191200Y-71663200D01*
D27*
%TO.N,TIM17_CH1*%
X105613200Y-66194400D02*
X105587800Y-66219800D01*
X106908600Y-66194400D02*
X105613200Y-66194400D01*
D28*
X106713100Y-68337000D02*
X105975600Y-68337000D01*
X106433700Y-68413200D02*
X105268600Y-68413200D01*
X105268600Y-68413200D02*
X105130600Y-68275200D01*
X105130600Y-66677000D02*
X105587800Y-66219800D01*
X105130600Y-68275200D02*
X105130600Y-66677000D01*
%TO.N,I2C1_SDA*%
X110820200Y-66751200D02*
X110820200Y-65074800D01*
X111018000Y-64877000D02*
X111359400Y-64877000D01*
X110820200Y-65074800D02*
X111018000Y-64877000D01*
X109808200Y-67763200D02*
X110820200Y-66751200D01*
X106433700Y-67763200D02*
X109808200Y-67763200D01*
%TO.N,I2C1_CLK*%
X110868698Y-64377000D02*
X111359400Y-64377000D01*
X110195200Y-65050498D02*
X110868698Y-64377000D01*
X110195200Y-66423558D02*
X110195200Y-65050498D01*
X112158700Y-67226100D02*
X111633000Y-66700400D01*
X112158700Y-67763200D02*
X112158700Y-67226100D01*
%TO.N,Net-(D2-Pad2)*%
X109120400Y-66116200D02*
X109120400Y-65711800D01*
X108559600Y-65151000D02*
X108559600Y-64389200D01*
X109120400Y-65711800D02*
X108559600Y-65151000D01*
%TD*%
M02*
