%TF.GenerationSoftware,KiCad,Pcbnew,(5.1.10)-1*%
%TF.CreationDate,2021-07-16T14:20:34-05:00*%
%TF.ProjectId,transmisor,7472616e-736d-4697-936f-722e6b696361,rev?*%
%TF.SameCoordinates,Original*%
%TF.FileFunction,Copper,L3,Inr*%
%TF.FilePolarity,Positive*%
%FSLAX46Y46*%
G04 Gerber Fmt 4.6, Leading zero omitted, Abs format (unit mm)*
G04 Created by KiCad (PCBNEW (5.1.10)-1) date 2021-07-16 14:20:34*
%MOMM*%
%LPD*%
G01*
G04 APERTURE LIST*
%TA.AperFunction,ComponentPad*%
%ADD10C,2.250000*%
%TD*%
%TA.AperFunction,ComponentPad*%
%ADD11C,2.050000*%
%TD*%
%TA.AperFunction,ComponentPad*%
%ADD12O,1.900000X1.200000*%
%TD*%
%TA.AperFunction,ComponentPad*%
%ADD13C,1.450000*%
%TD*%
%TA.AperFunction,ComponentPad*%
%ADD14O,1.700000X1.700000*%
%TD*%
%TA.AperFunction,ComponentPad*%
%ADD15R,1.700000X1.700000*%
%TD*%
%TA.AperFunction,ComponentPad*%
%ADD16C,2.000000*%
%TD*%
%TA.AperFunction,ComponentPad*%
%ADD17R,1.000000X1.000000*%
%TD*%
%TA.AperFunction,ComponentPad*%
%ADD18O,1.000000X1.000000*%
%TD*%
%TA.AperFunction,ViaPad*%
%ADD19C,0.600000*%
%TD*%
%TA.AperFunction,Conductor*%
%ADD20C,0.254000*%
%TD*%
%TA.AperFunction,Conductor*%
%ADD21C,0.100000*%
%TD*%
G04 APERTURE END LIST*
D10*
%TO.N,GND*%
%TO.C,AE1*%
X127050800Y-72440800D03*
X127050800Y-67360800D03*
X132130800Y-67360800D03*
X132130800Y-72440800D03*
D11*
%TO.N,Net-(AE1-Pad1)*%
X129590800Y-69900800D03*
%TD*%
D12*
%TO.N,Net-(J1-Pad6)*%
%TO.C,J1*%
X87383100Y-78226800D03*
X87383100Y-71226800D03*
D13*
X90083100Y-77226800D03*
X90083100Y-72226800D03*
%TD*%
D14*
%TO.N,5V*%
%TO.C,J4*%
X98018600Y-62560200D03*
%TO.N,TIM2_CH1*%
X100558600Y-62560200D03*
%TO.N,Net-(J4-Pad2)*%
X103098600Y-62560200D03*
D15*
%TO.N,GND*%
X105638600Y-62560200D03*
%TD*%
D14*
%TO.N,RELAY_TRIG*%
%TO.C,J3*%
X102768400Y-77825600D03*
%TO.N,GND*%
X100228400Y-77825600D03*
D15*
%TO.N,5V*%
X97688400Y-77825600D03*
%TD*%
D16*
%TO.N,Net-(R6-Pad1)*%
%TO.C,SW1*%
X88038800Y-67259200D03*
%TO.N,GND*%
X88038800Y-62759200D03*
%TO.N,Net-(R6-Pad1)*%
X94538800Y-67259200D03*
%TO.N,GND*%
X94538800Y-62759200D03*
%TD*%
D17*
%TO.N,+3V3*%
%TO.C,J2*%
X107035600Y-78054200D03*
D18*
%TO.N,SWD_IO*%
X107035600Y-76784200D03*
%TO.N,GND*%
X108305600Y-78054200D03*
%TO.N,SWD_CLK*%
X108305600Y-76784200D03*
%TO.N,GND*%
X109575600Y-78054200D03*
%TO.N,Net-(J2-Pad6)*%
X109575600Y-76784200D03*
%TO.N,Net-(J2-Pad7)*%
X110845600Y-78054200D03*
%TO.N,Net-(J2-Pad8)*%
X110845600Y-76784200D03*
%TO.N,GND*%
X112115600Y-78054200D03*
%TO.N,NRST*%
X112115600Y-76784200D03*
%TD*%
D19*
%TO.N,GND*%
X91389200Y-75895200D03*
X99136200Y-73380600D03*
X107543600Y-70332600D03*
X102362000Y-69723000D03*
X100203000Y-76174600D03*
X95504000Y-61544200D03*
X89281000Y-63754000D03*
X107086400Y-63093600D03*
X107594400Y-65303400D03*
X118084600Y-63957200D03*
X117779800Y-62509400D03*
X109550200Y-79476600D03*
X104317800Y-71577200D03*
X93319600Y-75641200D03*
X118922800Y-78841600D03*
X120548400Y-78028800D03*
X114731800Y-75641200D03*
X115316000Y-75412600D03*
X124002800Y-74726800D03*
X124891800Y-67564000D03*
X103073200Y-65049400D03*
X132181600Y-74472800D03*
X132130800Y-65201800D03*
X116205000Y-74396600D03*
X124688600Y-72593200D03*
X121869200Y-73787000D03*
X121869200Y-75666600D03*
X121869200Y-77520800D03*
X121869200Y-79629000D03*
X123850400Y-79629000D03*
X125933200Y-79629000D03*
X127914400Y-79629000D03*
X129895600Y-79629000D03*
X131978400Y-79629000D03*
X121666000Y-65405000D03*
X121666000Y-67259200D03*
X121666000Y-69367400D03*
X121666000Y-63525400D03*
X131775200Y-61595000D03*
X121666000Y-61595000D03*
X127711200Y-61595000D03*
X123647200Y-61595000D03*
X125730000Y-61595000D03*
X129692400Y-61595000D03*
X133146800Y-62636400D03*
X133146800Y-64617600D03*
X133096000Y-76352400D03*
X133096000Y-78333600D03*
X127050800Y-74498200D03*
X127025400Y-65125600D03*
X114096800Y-67335400D03*
X120065800Y-69265800D03*
X109778800Y-64566800D03*
X110083600Y-61315600D03*
X92329000Y-79324200D03*
X91668600Y-78841600D03*
X105943400Y-75209400D03*
%TO.N,+3V3*%
X101803200Y-65074800D03*
X99771200Y-65024000D03*
X100761800Y-66903600D03*
X101981000Y-66751200D03*
X103784400Y-67132200D03*
X102743000Y-75539600D03*
X105486200Y-78994000D03*
X117729000Y-61366400D03*
X116611400Y-65735200D03*
X116916200Y-66471800D03*
X119405400Y-67868800D03*
X113690400Y-74244200D03*
%TO.N,SWD_IO*%
X110667800Y-74599800D03*
X108280200Y-74777600D03*
%TO.N,NRST*%
X107188000Y-74803000D03*
X111887000Y-74650600D03*
%TO.N,RELAY_TRIG*%
X105064042Y-72303158D03*
X103733600Y-76784200D03*
%TO.N,SPI_CLK*%
X113741200Y-72974200D03*
X113741200Y-71043800D03*
%TO.N,LED1*%
X113588800Y-69037200D03*
X108229400Y-66878200D03*
%TO.N,BOTON*%
X107772200Y-68554600D03*
X94615000Y-69316600D03*
%TO.N,Net-(U2-Pad1)*%
X96012000Y-73380600D03*
X96012000Y-71704200D03*
%TO.N,TIM2_CH1*%
X105054400Y-71145400D03*
X104495600Y-67665600D03*
%TO.N,I2C1_CLK*%
X111633000Y-66700400D03*
X110195200Y-66423558D03*
%TD*%
D20*
%TO.N,+3V3*%
X94669302Y-61116067D02*
X94665933Y-61124200D01*
X94377767Y-61124200D01*
X94061888Y-61187032D01*
X93764337Y-61310282D01*
X93496548Y-61489213D01*
X93268813Y-61716948D01*
X93089882Y-61984737D01*
X92966632Y-62282288D01*
X92903800Y-62598167D01*
X92903800Y-62920233D01*
X92966632Y-63236112D01*
X93089882Y-63533663D01*
X93268813Y-63801452D01*
X93496548Y-64029187D01*
X93764337Y-64208118D01*
X94061888Y-64331368D01*
X94377767Y-64394200D01*
X94699833Y-64394200D01*
X95015712Y-64331368D01*
X95313263Y-64208118D01*
X95581052Y-64029187D01*
X95808787Y-63801452D01*
X95987718Y-63533663D01*
X96110968Y-63236112D01*
X96173800Y-62920233D01*
X96173800Y-62598167D01*
X96110968Y-62282288D01*
X96104300Y-62266190D01*
X96230262Y-62140228D01*
X96332586Y-61987089D01*
X96403068Y-61816929D01*
X96439000Y-61636289D01*
X96439000Y-61452111D01*
X96403068Y-61271471D01*
X96339089Y-61117012D01*
X97658388Y-61117758D01*
X97585442Y-61132268D01*
X97315189Y-61244210D01*
X97071968Y-61406725D01*
X96865125Y-61613568D01*
X96702610Y-61856789D01*
X96590668Y-62127042D01*
X96533600Y-62413940D01*
X96533600Y-62706460D01*
X96590668Y-62993358D01*
X96702610Y-63263611D01*
X96865125Y-63506832D01*
X97071968Y-63713675D01*
X97315189Y-63876190D01*
X97585442Y-63988132D01*
X97872340Y-64045200D01*
X98164860Y-64045200D01*
X98451758Y-63988132D01*
X98722011Y-63876190D01*
X98965232Y-63713675D01*
X99172075Y-63506832D01*
X99288600Y-63332440D01*
X99405125Y-63506832D01*
X99611968Y-63713675D01*
X99855189Y-63876190D01*
X100125442Y-63988132D01*
X100412340Y-64045200D01*
X100704860Y-64045200D01*
X100991758Y-63988132D01*
X101262011Y-63876190D01*
X101505232Y-63713675D01*
X101712075Y-63506832D01*
X101828600Y-63332440D01*
X101945125Y-63506832D01*
X102151968Y-63713675D01*
X102395189Y-63876190D01*
X102665442Y-63988132D01*
X102952340Y-64045200D01*
X103244860Y-64045200D01*
X103531758Y-63988132D01*
X103802011Y-63876190D01*
X104045232Y-63713675D01*
X104177087Y-63581820D01*
X104199098Y-63654380D01*
X104258063Y-63764694D01*
X104337415Y-63861385D01*
X104434106Y-63940737D01*
X104544420Y-63999702D01*
X104664118Y-64036012D01*
X104788600Y-64048272D01*
X106488600Y-64048272D01*
X106613082Y-64036012D01*
X106732780Y-63999702D01*
X106775511Y-63976862D01*
X106813671Y-63992668D01*
X106994311Y-64028600D01*
X107178489Y-64028600D01*
X107359129Y-63992668D01*
X107529289Y-63922186D01*
X107682428Y-63819862D01*
X107812662Y-63689628D01*
X107914986Y-63536489D01*
X107985468Y-63366329D01*
X108021400Y-63185689D01*
X108021400Y-63001511D01*
X107985468Y-62820871D01*
X107914986Y-62650711D01*
X107812662Y-62497572D01*
X107682428Y-62367338D01*
X107529289Y-62265014D01*
X107359129Y-62194532D01*
X107178489Y-62158600D01*
X107126672Y-62158600D01*
X107126672Y-61710200D01*
X107114412Y-61585718D01*
X107078102Y-61466020D01*
X107019137Y-61355706D01*
X106939785Y-61259015D01*
X106843094Y-61179663D01*
X106736886Y-61122893D01*
X107326847Y-61123227D01*
X107309648Y-61209690D01*
X107309648Y-61455910D01*
X107357683Y-61697398D01*
X107451907Y-61924874D01*
X107588699Y-62129598D01*
X107762802Y-62303701D01*
X107967526Y-62440493D01*
X108195002Y-62534717D01*
X108436490Y-62582752D01*
X108682710Y-62582752D01*
X108924198Y-62534717D01*
X109151674Y-62440493D01*
X109356398Y-62303701D01*
X109530501Y-62129598D01*
X109557779Y-62088773D01*
X109640711Y-62144186D01*
X109810871Y-62214668D01*
X109991511Y-62250600D01*
X110175689Y-62250600D01*
X110356329Y-62214668D01*
X110380635Y-62204600D01*
X111810800Y-62204600D01*
X111810800Y-65049400D01*
X111813240Y-65074176D01*
X111820467Y-65098001D01*
X111832203Y-65119957D01*
X111847997Y-65139203D01*
X111867243Y-65154997D01*
X111889199Y-65166733D01*
X111913024Y-65173960D01*
X111937800Y-65176400D01*
X114681000Y-65176400D01*
X114705776Y-65173960D01*
X114729601Y-65166733D01*
X114751557Y-65154997D01*
X114770803Y-65139203D01*
X114786597Y-65119957D01*
X114798333Y-65098001D01*
X114805560Y-65074176D01*
X114808000Y-65049400D01*
X114808000Y-62417311D01*
X116844800Y-62417311D01*
X116844800Y-62601489D01*
X116880732Y-62782129D01*
X116951214Y-62952289D01*
X117053538Y-63105428D01*
X117183772Y-63235662D01*
X117336911Y-63337986D01*
X117368457Y-63351053D01*
X117358338Y-63361172D01*
X117256014Y-63514311D01*
X117185532Y-63684471D01*
X117149600Y-63865111D01*
X117149600Y-64049289D01*
X117185532Y-64229929D01*
X117256014Y-64400089D01*
X117358338Y-64553228D01*
X117488572Y-64683462D01*
X117641711Y-64785786D01*
X117811871Y-64856268D01*
X117992511Y-64892200D01*
X118176689Y-64892200D01*
X118357329Y-64856268D01*
X118527489Y-64785786D01*
X118680628Y-64683462D01*
X118810862Y-64553228D01*
X118913186Y-64400089D01*
X118983668Y-64229929D01*
X119019600Y-64049289D01*
X119019600Y-63865111D01*
X118983668Y-63684471D01*
X118913186Y-63514311D01*
X118810862Y-63361172D01*
X118680628Y-63230938D01*
X118527489Y-63128614D01*
X118495943Y-63115547D01*
X118506062Y-63105428D01*
X118608386Y-62952289D01*
X118678868Y-62782129D01*
X118714800Y-62601489D01*
X118714800Y-62417311D01*
X118678868Y-62236671D01*
X118608386Y-62066511D01*
X118506062Y-61913372D01*
X118375828Y-61783138D01*
X118222689Y-61680814D01*
X118052529Y-61610332D01*
X117871889Y-61574400D01*
X117687711Y-61574400D01*
X117507071Y-61610332D01*
X117336911Y-61680814D01*
X117183772Y-61783138D01*
X117053538Y-61913372D01*
X116951214Y-62066511D01*
X116880732Y-62236671D01*
X116844800Y-62417311D01*
X114808000Y-62417311D01*
X114808000Y-62204600D01*
X114805560Y-62179824D01*
X114798333Y-62155999D01*
X114786597Y-62134043D01*
X114770803Y-62114797D01*
X114751557Y-62099003D01*
X114729601Y-62087267D01*
X114705776Y-62080040D01*
X114681000Y-62077600D01*
X111937800Y-62077600D01*
X111913024Y-62080040D01*
X111889199Y-62087267D01*
X111867243Y-62099003D01*
X111847997Y-62114797D01*
X111832203Y-62134043D01*
X111820467Y-62155999D01*
X111813240Y-62179824D01*
X111810800Y-62204600D01*
X110380635Y-62204600D01*
X110526489Y-62144186D01*
X110679628Y-62041862D01*
X110809862Y-61911628D01*
X110912186Y-61758489D01*
X110982668Y-61588329D01*
X111018600Y-61407689D01*
X111018600Y-61223511D01*
X110999065Y-61125304D01*
X119610966Y-61130175D01*
X119633587Y-68097400D01*
X118160800Y-68097400D01*
X118136024Y-68099840D01*
X118112199Y-68107067D01*
X118090243Y-68118803D01*
X118070997Y-68134597D01*
X118055203Y-68153843D01*
X118043467Y-68175799D01*
X118036240Y-68199624D01*
X118033800Y-68224400D01*
X118033800Y-71755000D01*
X116332000Y-71755000D01*
X116307224Y-71757440D01*
X116283399Y-71764667D01*
X116261443Y-71776403D01*
X116242197Y-71792197D01*
X116226403Y-71811443D01*
X116214667Y-71833399D01*
X116207440Y-71857224D01*
X116205000Y-71882000D01*
X116205000Y-73461600D01*
X116112911Y-73461600D01*
X115932271Y-73497532D01*
X115762111Y-73568014D01*
X115608972Y-73670338D01*
X115478738Y-73800572D01*
X115376414Y-73953711D01*
X115305932Y-74123871D01*
X115270000Y-74304511D01*
X115270000Y-74472800D01*
X113893600Y-74472800D01*
X113868824Y-74475240D01*
X113844999Y-74482467D01*
X113823043Y-74494203D01*
X113803797Y-74509997D01*
X113788003Y-74529243D01*
X113776267Y-74551199D01*
X113769040Y-74575024D01*
X113766600Y-74599800D01*
X113766600Y-79720470D01*
X110455381Y-79718597D01*
X110485200Y-79568689D01*
X110485200Y-79384511D01*
X110449268Y-79203871D01*
X110406608Y-79100879D01*
X110514533Y-79145583D01*
X110733812Y-79189200D01*
X110957388Y-79189200D01*
X111176667Y-79145583D01*
X111383224Y-79060024D01*
X111480600Y-78994959D01*
X111577976Y-79060024D01*
X111784533Y-79145583D01*
X112003812Y-79189200D01*
X112227388Y-79189200D01*
X112446667Y-79145583D01*
X112653224Y-79060024D01*
X112839120Y-78935812D01*
X112997212Y-78777720D01*
X113121424Y-78591824D01*
X113206983Y-78385267D01*
X113250600Y-78165988D01*
X113250600Y-77942412D01*
X113206983Y-77723133D01*
X113121424Y-77516576D01*
X113056359Y-77419200D01*
X113121424Y-77321824D01*
X113206983Y-77115267D01*
X113250600Y-76895988D01*
X113250600Y-76672412D01*
X113206983Y-76453133D01*
X113121424Y-76246576D01*
X112997212Y-76060680D01*
X112839120Y-75902588D01*
X112653224Y-75778376D01*
X112446667Y-75692817D01*
X112227388Y-75649200D01*
X112003812Y-75649200D01*
X111784533Y-75692817D01*
X111577976Y-75778376D01*
X111480600Y-75843441D01*
X111383224Y-75778376D01*
X111176667Y-75692817D01*
X110957388Y-75649200D01*
X110733812Y-75649200D01*
X110514533Y-75692817D01*
X110307976Y-75778376D01*
X110210600Y-75843441D01*
X110113224Y-75778376D01*
X109906667Y-75692817D01*
X109687388Y-75649200D01*
X109463812Y-75649200D01*
X109244533Y-75692817D01*
X109037976Y-75778376D01*
X108940600Y-75843441D01*
X108843224Y-75778376D01*
X108636667Y-75692817D01*
X108553757Y-75676325D01*
X108723089Y-75606186D01*
X108876228Y-75503862D01*
X109006462Y-75373628D01*
X109108786Y-75220489D01*
X109179268Y-75050329D01*
X109215200Y-74869689D01*
X109215200Y-74685511D01*
X109179833Y-74507711D01*
X109732800Y-74507711D01*
X109732800Y-74691889D01*
X109768732Y-74872529D01*
X109839214Y-75042689D01*
X109941538Y-75195828D01*
X110071772Y-75326062D01*
X110224911Y-75428386D01*
X110395071Y-75498868D01*
X110575711Y-75534800D01*
X110759889Y-75534800D01*
X110940529Y-75498868D01*
X111110689Y-75428386D01*
X111249647Y-75335537D01*
X111290972Y-75376862D01*
X111444111Y-75479186D01*
X111614271Y-75549668D01*
X111794911Y-75585600D01*
X111979089Y-75585600D01*
X112159729Y-75549668D01*
X112329889Y-75479186D01*
X112483028Y-75376862D01*
X112613262Y-75246628D01*
X112715586Y-75093489D01*
X112786068Y-74923329D01*
X112822000Y-74742689D01*
X112822000Y-74558511D01*
X112786068Y-74377871D01*
X112715586Y-74207711D01*
X112613262Y-74054572D01*
X112483028Y-73924338D01*
X112329889Y-73822014D01*
X112159729Y-73751532D01*
X111979089Y-73715600D01*
X111794911Y-73715600D01*
X111614271Y-73751532D01*
X111444111Y-73822014D01*
X111305153Y-73914863D01*
X111263828Y-73873538D01*
X111110689Y-73771214D01*
X110940529Y-73700732D01*
X110759889Y-73664800D01*
X110575711Y-73664800D01*
X110395071Y-73700732D01*
X110224911Y-73771214D01*
X110071772Y-73873538D01*
X109941538Y-74003772D01*
X109839214Y-74156911D01*
X109768732Y-74327071D01*
X109732800Y-74507711D01*
X109179833Y-74507711D01*
X109179268Y-74504871D01*
X109108786Y-74334711D01*
X109006462Y-74181572D01*
X108876228Y-74051338D01*
X108723089Y-73949014D01*
X108552929Y-73878532D01*
X108372289Y-73842600D01*
X108188111Y-73842600D01*
X108007471Y-73878532D01*
X107837311Y-73949014D01*
X107715093Y-74030677D01*
X107630889Y-73974414D01*
X107460729Y-73903932D01*
X107280089Y-73868000D01*
X107095911Y-73868000D01*
X106915271Y-73903932D01*
X106745111Y-73974414D01*
X106591972Y-74076738D01*
X106461738Y-74206972D01*
X106359414Y-74360111D01*
X106356030Y-74368280D01*
X106216129Y-74310332D01*
X106035489Y-74274400D01*
X105851311Y-74274400D01*
X105670671Y-74310332D01*
X105500511Y-74380814D01*
X105347372Y-74483138D01*
X105217138Y-74613372D01*
X105114814Y-74766511D01*
X105044332Y-74936671D01*
X105008400Y-75117311D01*
X105008400Y-75301489D01*
X105044332Y-75482129D01*
X105114814Y-75652289D01*
X105186400Y-75759426D01*
X105075910Y-75737448D01*
X104829690Y-75737448D01*
X104588202Y-75785483D01*
X104360726Y-75879707D01*
X104211806Y-75979212D01*
X104176489Y-75955614D01*
X104006329Y-75885132D01*
X103825689Y-75849200D01*
X103641511Y-75849200D01*
X103460871Y-75885132D01*
X103290711Y-75955614D01*
X103137572Y-76057938D01*
X103007338Y-76188172D01*
X102905489Y-76340600D01*
X102622140Y-76340600D01*
X102335242Y-76397668D01*
X102064989Y-76509610D01*
X101821768Y-76672125D01*
X101614925Y-76878968D01*
X101498400Y-77053360D01*
X101381875Y-76878968D01*
X101175032Y-76672125D01*
X101044956Y-76585211D01*
X101102068Y-76447329D01*
X101138000Y-76266689D01*
X101138000Y-76082511D01*
X101102068Y-75901871D01*
X101031586Y-75731711D01*
X100929262Y-75578572D01*
X100799028Y-75448338D01*
X100645889Y-75346014D01*
X100475729Y-75275532D01*
X100295089Y-75239600D01*
X100110911Y-75239600D01*
X99930271Y-75275532D01*
X99760111Y-75346014D01*
X99606972Y-75448338D01*
X99476738Y-75578572D01*
X99374414Y-75731711D01*
X99303932Y-75901871D01*
X99268000Y-76082511D01*
X99268000Y-76266689D01*
X99303932Y-76447329D01*
X99372056Y-76611796D01*
X99281768Y-76672125D01*
X99149913Y-76803980D01*
X99127902Y-76731420D01*
X99068937Y-76621106D01*
X98989585Y-76524415D01*
X98892894Y-76445063D01*
X98782580Y-76386098D01*
X98662882Y-76349788D01*
X98538400Y-76337528D01*
X96838400Y-76337528D01*
X96713918Y-76349788D01*
X96594220Y-76386098D01*
X96483906Y-76445063D01*
X96387215Y-76524415D01*
X96307863Y-76621106D01*
X96248898Y-76731420D01*
X96212588Y-76851118D01*
X96200328Y-76975600D01*
X96200328Y-78675600D01*
X96212588Y-78800082D01*
X96248898Y-78919780D01*
X96307863Y-79030094D01*
X96387215Y-79126785D01*
X96483906Y-79206137D01*
X96594220Y-79265102D01*
X96713918Y-79301412D01*
X96838400Y-79313672D01*
X98538400Y-79313672D01*
X98662882Y-79301412D01*
X98782580Y-79265102D01*
X98892894Y-79206137D01*
X98989585Y-79126785D01*
X99068937Y-79030094D01*
X99127902Y-78919780D01*
X99149913Y-78847220D01*
X99281768Y-78979075D01*
X99524989Y-79141590D01*
X99795242Y-79253532D01*
X100082140Y-79310600D01*
X100374660Y-79310600D01*
X100661558Y-79253532D01*
X100931811Y-79141590D01*
X101175032Y-78979075D01*
X101381875Y-78772232D01*
X101498400Y-78597840D01*
X101614925Y-78772232D01*
X101821768Y-78979075D01*
X102064989Y-79141590D01*
X102335242Y-79253532D01*
X102622140Y-79310600D01*
X102914660Y-79310600D01*
X103201558Y-79253532D01*
X103471811Y-79141590D01*
X103715032Y-78979075D01*
X103921875Y-78772232D01*
X104067559Y-78554200D01*
X105897528Y-78554200D01*
X105909788Y-78678682D01*
X105946098Y-78798380D01*
X106005063Y-78908694D01*
X106084415Y-79005385D01*
X106181106Y-79084737D01*
X106291420Y-79143702D01*
X106411118Y-79180012D01*
X106535600Y-79192272D01*
X106628850Y-79189200D01*
X106787600Y-79030450D01*
X106787600Y-78302200D01*
X106059350Y-78302200D01*
X105900600Y-78460950D01*
X105897528Y-78554200D01*
X104067559Y-78554200D01*
X104084390Y-78529011D01*
X104196332Y-78258758D01*
X104244354Y-78017336D01*
X104360726Y-78095093D01*
X104588202Y-78189317D01*
X104829690Y-78237352D01*
X105075910Y-78237352D01*
X105317398Y-78189317D01*
X105544874Y-78095093D01*
X105749598Y-77958301D01*
X105923701Y-77784198D01*
X105969222Y-77716072D01*
X106059350Y-77806200D01*
X106537028Y-77806200D01*
X106704533Y-77875583D01*
X106923812Y-77919200D01*
X107147388Y-77919200D01*
X107176364Y-77913436D01*
X107170600Y-77942412D01*
X107170600Y-78165988D01*
X107214217Y-78385267D01*
X107283600Y-78552772D01*
X107283600Y-79030450D01*
X107442350Y-79189200D01*
X107535600Y-79192272D01*
X107660082Y-79180012D01*
X107779780Y-79143702D01*
X107862826Y-79099312D01*
X107974533Y-79145583D01*
X108193812Y-79189200D01*
X108417388Y-79189200D01*
X108636667Y-79145583D01*
X108683272Y-79126279D01*
X108651132Y-79203871D01*
X108615200Y-79384511D01*
X108615200Y-79568689D01*
X108644815Y-79717573D01*
X93181719Y-79708826D01*
X93228068Y-79596929D01*
X93264000Y-79416289D01*
X93264000Y-79232111D01*
X93228068Y-79051471D01*
X93157586Y-78881311D01*
X93055262Y-78728172D01*
X92925028Y-78597938D01*
X92771889Y-78495614D01*
X92601729Y-78425132D01*
X92499726Y-78404842D01*
X92497186Y-78398711D01*
X92394862Y-78245572D01*
X92264628Y-78115338D01*
X92111489Y-78013014D01*
X91941329Y-77942532D01*
X91760689Y-77906600D01*
X91576511Y-77906600D01*
X91395871Y-77942532D01*
X91225711Y-78013014D01*
X91167387Y-78051985D01*
X91288316Y-77871001D01*
X91390836Y-77623497D01*
X91443100Y-77360748D01*
X91443100Y-77092852D01*
X91390855Y-76830200D01*
X91481289Y-76830200D01*
X91661929Y-76794268D01*
X91832089Y-76723786D01*
X91985228Y-76621462D01*
X92115462Y-76491228D01*
X92217786Y-76338089D01*
X92288268Y-76167929D01*
X92324200Y-75987289D01*
X92324200Y-75803111D01*
X92288268Y-75622471D01*
X92257882Y-75549111D01*
X92384600Y-75549111D01*
X92384600Y-75733289D01*
X92420532Y-75913929D01*
X92491014Y-76084089D01*
X92593338Y-76237228D01*
X92723572Y-76367462D01*
X92876711Y-76469786D01*
X93046871Y-76540268D01*
X93227511Y-76576200D01*
X93411689Y-76576200D01*
X93592329Y-76540268D01*
X93762489Y-76469786D01*
X93915628Y-76367462D01*
X94045862Y-76237228D01*
X94148186Y-76084089D01*
X94218668Y-75913929D01*
X94254600Y-75733289D01*
X94254600Y-75549111D01*
X94218668Y-75368471D01*
X94148186Y-75198311D01*
X94045862Y-75045172D01*
X93915628Y-74914938D01*
X93762489Y-74812614D01*
X93592329Y-74742132D01*
X93411689Y-74706200D01*
X93227511Y-74706200D01*
X93046871Y-74742132D01*
X92876711Y-74812614D01*
X92723572Y-74914938D01*
X92593338Y-75045172D01*
X92491014Y-75198311D01*
X92420532Y-75368471D01*
X92384600Y-75549111D01*
X92257882Y-75549111D01*
X92217786Y-75452311D01*
X92115462Y-75299172D01*
X91985228Y-75168938D01*
X91832089Y-75066614D01*
X91661929Y-74996132D01*
X91481289Y-74960200D01*
X91297111Y-74960200D01*
X91116471Y-74996132D01*
X90946311Y-75066614D01*
X90793172Y-75168938D01*
X90662938Y-75299172D01*
X90560614Y-75452311D01*
X90490132Y-75622471D01*
X90454200Y-75803111D01*
X90454200Y-75913972D01*
X90217048Y-75866800D01*
X89949152Y-75866800D01*
X89686403Y-75919064D01*
X89438899Y-76021584D01*
X89216151Y-76170419D01*
X89026719Y-76359851D01*
X88877884Y-76582599D01*
X88775364Y-76830103D01*
X88723100Y-77092852D01*
X88723100Y-77360748D01*
X88756084Y-77526568D01*
X88610602Y-77349298D01*
X88422549Y-77194967D01*
X88208001Y-77080289D01*
X87975202Y-77009670D01*
X87793765Y-76991800D01*
X86972435Y-76991800D01*
X86790998Y-77009670D01*
X86613600Y-77063483D01*
X86613600Y-72390117D01*
X86790998Y-72443930D01*
X86972435Y-72461800D01*
X87793765Y-72461800D01*
X87975202Y-72443930D01*
X88208001Y-72373311D01*
X88422549Y-72258633D01*
X88610602Y-72104302D01*
X88756084Y-71927032D01*
X88723100Y-72092852D01*
X88723100Y-72360748D01*
X88775364Y-72623497D01*
X88877884Y-72871001D01*
X89026719Y-73093749D01*
X89216151Y-73283181D01*
X89438899Y-73432016D01*
X89686403Y-73534536D01*
X89949152Y-73586800D01*
X90217048Y-73586800D01*
X90479797Y-73534536D01*
X90727301Y-73432016D01*
X90950049Y-73283181D01*
X91139481Y-73093749D01*
X91288316Y-72871001D01*
X91390836Y-72623497D01*
X91443100Y-72360748D01*
X91443100Y-72092852D01*
X91390836Y-71830103D01*
X91300541Y-71612111D01*
X95077000Y-71612111D01*
X95077000Y-71796289D01*
X95112932Y-71976929D01*
X95183414Y-72147089D01*
X95285738Y-72300228D01*
X95415972Y-72430462D01*
X95569111Y-72532786D01*
X95592321Y-72542400D01*
X95569111Y-72552014D01*
X95415972Y-72654338D01*
X95285738Y-72784572D01*
X95183414Y-72937711D01*
X95112932Y-73107871D01*
X95077000Y-73288511D01*
X95077000Y-73472689D01*
X95112932Y-73653329D01*
X95183414Y-73823489D01*
X95285738Y-73976628D01*
X95415972Y-74106862D01*
X95569111Y-74209186D01*
X95739271Y-74279668D01*
X95919911Y-74315600D01*
X96104089Y-74315600D01*
X96284729Y-74279668D01*
X96454889Y-74209186D01*
X96608028Y-74106862D01*
X96738262Y-73976628D01*
X96840586Y-73823489D01*
X96911068Y-73653329D01*
X96947000Y-73472689D01*
X96947000Y-73288511D01*
X98201200Y-73288511D01*
X98201200Y-73472689D01*
X98237132Y-73653329D01*
X98307614Y-73823489D01*
X98409938Y-73976628D01*
X98540172Y-74106862D01*
X98693311Y-74209186D01*
X98863471Y-74279668D01*
X99044111Y-74315600D01*
X99228289Y-74315600D01*
X99408929Y-74279668D01*
X99579089Y-74209186D01*
X99732228Y-74106862D01*
X99862462Y-73976628D01*
X99964786Y-73823489D01*
X100035268Y-73653329D01*
X100071200Y-73472689D01*
X100071200Y-73288511D01*
X100035268Y-73107871D01*
X99964786Y-72937711D01*
X99862462Y-72784572D01*
X99732228Y-72654338D01*
X99579089Y-72552014D01*
X99408929Y-72481532D01*
X99228289Y-72445600D01*
X99044111Y-72445600D01*
X98863471Y-72481532D01*
X98693311Y-72552014D01*
X98540172Y-72654338D01*
X98409938Y-72784572D01*
X98307614Y-72937711D01*
X98237132Y-73107871D01*
X98201200Y-73288511D01*
X96947000Y-73288511D01*
X96911068Y-73107871D01*
X96840586Y-72937711D01*
X96738262Y-72784572D01*
X96608028Y-72654338D01*
X96454889Y-72552014D01*
X96431679Y-72542400D01*
X96454889Y-72532786D01*
X96608028Y-72430462D01*
X96738262Y-72300228D01*
X96840586Y-72147089D01*
X96911068Y-71976929D01*
X96947000Y-71796289D01*
X96947000Y-71612111D01*
X96921738Y-71485111D01*
X103382800Y-71485111D01*
X103382800Y-71669289D01*
X103418732Y-71849929D01*
X103489214Y-72020089D01*
X103591538Y-72173228D01*
X103721772Y-72303462D01*
X103874911Y-72405786D01*
X104045071Y-72476268D01*
X104149282Y-72496997D01*
X104164974Y-72575887D01*
X104235456Y-72746047D01*
X104337780Y-72899186D01*
X104468014Y-73029420D01*
X104621153Y-73131744D01*
X104791313Y-73202226D01*
X104971953Y-73238158D01*
X105156131Y-73238158D01*
X105336771Y-73202226D01*
X105506931Y-73131744D01*
X105660070Y-73029420D01*
X105790304Y-72899186D01*
X105801713Y-72882111D01*
X112806200Y-72882111D01*
X112806200Y-73066289D01*
X112842132Y-73246929D01*
X112912614Y-73417089D01*
X113014938Y-73570228D01*
X113145172Y-73700462D01*
X113298311Y-73802786D01*
X113468471Y-73873268D01*
X113649111Y-73909200D01*
X113833289Y-73909200D01*
X114013929Y-73873268D01*
X114184089Y-73802786D01*
X114337228Y-73700462D01*
X114467462Y-73570228D01*
X114569786Y-73417089D01*
X114640268Y-73246929D01*
X114676200Y-73066289D01*
X114676200Y-72882111D01*
X114640268Y-72701471D01*
X114569786Y-72531311D01*
X114467462Y-72378172D01*
X114337228Y-72247938D01*
X114184089Y-72145614D01*
X114013929Y-72075132D01*
X113833289Y-72039200D01*
X113649111Y-72039200D01*
X113468471Y-72075132D01*
X113298311Y-72145614D01*
X113145172Y-72247938D01*
X113014938Y-72378172D01*
X112912614Y-72531311D01*
X112842132Y-72701471D01*
X112806200Y-72882111D01*
X105801713Y-72882111D01*
X105892628Y-72746047D01*
X105963110Y-72575887D01*
X105999042Y-72395247D01*
X105999042Y-72211069D01*
X105963110Y-72030429D01*
X105892628Y-71860269D01*
X105796942Y-71717064D01*
X105882986Y-71588289D01*
X105953468Y-71418129D01*
X105989400Y-71237489D01*
X105989400Y-71053311D01*
X105953468Y-70872671D01*
X105882986Y-70702511D01*
X105780662Y-70549372D01*
X105650428Y-70419138D01*
X105497289Y-70316814D01*
X105327129Y-70246332D01*
X105297866Y-70240511D01*
X106608600Y-70240511D01*
X106608600Y-70424689D01*
X106644532Y-70605329D01*
X106715014Y-70775489D01*
X106817338Y-70928628D01*
X106947572Y-71058862D01*
X107100711Y-71161186D01*
X107270871Y-71231668D01*
X107451511Y-71267600D01*
X107635689Y-71267600D01*
X107816329Y-71231668D01*
X107986489Y-71161186D01*
X108139628Y-71058862D01*
X108246779Y-70951711D01*
X112806200Y-70951711D01*
X112806200Y-71135889D01*
X112842132Y-71316529D01*
X112912614Y-71486689D01*
X113014938Y-71639828D01*
X113145172Y-71770062D01*
X113298311Y-71872386D01*
X113468471Y-71942868D01*
X113649111Y-71978800D01*
X113833289Y-71978800D01*
X114013929Y-71942868D01*
X114184089Y-71872386D01*
X114337228Y-71770062D01*
X114467462Y-71639828D01*
X114569786Y-71486689D01*
X114640268Y-71316529D01*
X114676200Y-71135889D01*
X114676200Y-70951711D01*
X114640268Y-70771071D01*
X114569786Y-70600911D01*
X114467462Y-70447772D01*
X114337228Y-70317538D01*
X114184089Y-70215214D01*
X114013929Y-70144732D01*
X113833289Y-70108800D01*
X113649111Y-70108800D01*
X113468471Y-70144732D01*
X113298311Y-70215214D01*
X113145172Y-70317538D01*
X113014938Y-70447772D01*
X112912614Y-70600911D01*
X112842132Y-70771071D01*
X112806200Y-70951711D01*
X108246779Y-70951711D01*
X108269862Y-70928628D01*
X108372186Y-70775489D01*
X108442668Y-70605329D01*
X108478600Y-70424689D01*
X108478600Y-70240511D01*
X108442668Y-70059871D01*
X108372186Y-69889711D01*
X108269862Y-69736572D01*
X108139628Y-69606338D01*
X107986489Y-69504014D01*
X107923335Y-69477855D01*
X108044929Y-69453668D01*
X108215089Y-69383186D01*
X108368228Y-69280862D01*
X108498462Y-69150628D01*
X108600786Y-68997489D01*
X108622481Y-68945111D01*
X112653800Y-68945111D01*
X112653800Y-69129289D01*
X112689732Y-69309929D01*
X112760214Y-69480089D01*
X112862538Y-69633228D01*
X112992772Y-69763462D01*
X113145911Y-69865786D01*
X113316071Y-69936268D01*
X113496711Y-69972200D01*
X113680889Y-69972200D01*
X113861529Y-69936268D01*
X114031689Y-69865786D01*
X114184828Y-69763462D01*
X114315062Y-69633228D01*
X114417386Y-69480089D01*
X114487868Y-69309929D01*
X114523800Y-69129289D01*
X114523800Y-68945111D01*
X114487868Y-68764471D01*
X114417386Y-68594311D01*
X114315062Y-68441172D01*
X114184828Y-68310938D01*
X114124158Y-68270400D01*
X114188889Y-68270400D01*
X114369529Y-68234468D01*
X114539689Y-68163986D01*
X114692828Y-68061662D01*
X114823062Y-67931428D01*
X114925386Y-67778289D01*
X114995868Y-67608129D01*
X115031800Y-67427489D01*
X115031800Y-67243311D01*
X114995868Y-67062671D01*
X114925386Y-66892511D01*
X114823062Y-66739372D01*
X114692828Y-66609138D01*
X114539689Y-66506814D01*
X114369529Y-66436332D01*
X114188889Y-66400400D01*
X114004711Y-66400400D01*
X113824071Y-66436332D01*
X113653911Y-66506814D01*
X113500772Y-66609138D01*
X113370538Y-66739372D01*
X113268214Y-66892511D01*
X113197732Y-67062671D01*
X113161800Y-67243311D01*
X113161800Y-67427489D01*
X113197732Y-67608129D01*
X113268214Y-67778289D01*
X113370538Y-67931428D01*
X113500772Y-68061662D01*
X113561442Y-68102200D01*
X113496711Y-68102200D01*
X113316071Y-68138132D01*
X113145911Y-68208614D01*
X112992772Y-68310938D01*
X112862538Y-68441172D01*
X112760214Y-68594311D01*
X112689732Y-68764471D01*
X112653800Y-68945111D01*
X108622481Y-68945111D01*
X108671268Y-68827329D01*
X108707200Y-68646689D01*
X108707200Y-68462511D01*
X108671268Y-68281871D01*
X108600786Y-68111711D01*
X108498462Y-67958572D01*
X108368228Y-67828338D01*
X108340048Y-67809508D01*
X108502129Y-67777268D01*
X108672289Y-67706786D01*
X108825428Y-67604462D01*
X108955662Y-67474228D01*
X109057986Y-67321089D01*
X109128468Y-67150929D01*
X109164400Y-66970289D01*
X109164400Y-66786111D01*
X109128468Y-66605471D01*
X109057986Y-66435311D01*
X108988602Y-66331469D01*
X109260200Y-66331469D01*
X109260200Y-66515647D01*
X109296132Y-66696287D01*
X109366614Y-66866447D01*
X109468938Y-67019586D01*
X109599172Y-67149820D01*
X109752311Y-67252144D01*
X109922471Y-67322626D01*
X110103111Y-67358558D01*
X110287289Y-67358558D01*
X110467929Y-67322626D01*
X110638089Y-67252144D01*
X110791228Y-67149820D01*
X110802465Y-67138583D01*
X110804414Y-67143289D01*
X110906738Y-67296428D01*
X111036972Y-67426662D01*
X111190111Y-67528986D01*
X111360271Y-67599468D01*
X111540911Y-67635400D01*
X111725089Y-67635400D01*
X111905729Y-67599468D01*
X112075889Y-67528986D01*
X112229028Y-67426662D01*
X112359262Y-67296428D01*
X112461586Y-67143289D01*
X112532068Y-66973129D01*
X112568000Y-66792489D01*
X112568000Y-66608311D01*
X112532068Y-66427671D01*
X112461586Y-66257511D01*
X112359262Y-66104372D01*
X112229028Y-65974138D01*
X112075889Y-65871814D01*
X111905729Y-65801332D01*
X111725089Y-65765400D01*
X111540911Y-65765400D01*
X111360271Y-65801332D01*
X111190111Y-65871814D01*
X111036972Y-65974138D01*
X111025735Y-65985375D01*
X111023786Y-65980669D01*
X110921462Y-65827530D01*
X110791228Y-65697296D01*
X110638089Y-65594972D01*
X110467929Y-65524490D01*
X110287289Y-65488558D01*
X110103111Y-65488558D01*
X109922471Y-65524490D01*
X109752311Y-65594972D01*
X109599172Y-65697296D01*
X109468938Y-65827530D01*
X109366614Y-65980669D01*
X109296132Y-66150829D01*
X109260200Y-66331469D01*
X108988602Y-66331469D01*
X108955662Y-66282172D01*
X108825428Y-66151938D01*
X108672289Y-66049614D01*
X108502129Y-65979132D01*
X108321489Y-65943200D01*
X108276890Y-65943200D01*
X108320662Y-65899428D01*
X108422986Y-65746289D01*
X108493468Y-65576129D01*
X108529400Y-65395489D01*
X108529400Y-65211311D01*
X108493468Y-65030671D01*
X108422986Y-64860511D01*
X108320662Y-64707372D01*
X108190428Y-64577138D01*
X108037289Y-64474814D01*
X108037041Y-64474711D01*
X108843800Y-64474711D01*
X108843800Y-64658889D01*
X108879732Y-64839529D01*
X108950214Y-65009689D01*
X109052538Y-65162828D01*
X109182772Y-65293062D01*
X109335911Y-65395386D01*
X109506071Y-65465868D01*
X109686711Y-65501800D01*
X109870889Y-65501800D01*
X110051529Y-65465868D01*
X110221689Y-65395386D01*
X110374828Y-65293062D01*
X110505062Y-65162828D01*
X110607386Y-65009689D01*
X110677868Y-64839529D01*
X110713800Y-64658889D01*
X110713800Y-64474711D01*
X110677868Y-64294071D01*
X110607386Y-64123911D01*
X110505062Y-63970772D01*
X110374828Y-63840538D01*
X110221689Y-63738214D01*
X110051529Y-63667732D01*
X109870889Y-63631800D01*
X109686711Y-63631800D01*
X109506071Y-63667732D01*
X109335911Y-63738214D01*
X109182772Y-63840538D01*
X109052538Y-63970772D01*
X108950214Y-64123911D01*
X108879732Y-64294071D01*
X108843800Y-64474711D01*
X108037041Y-64474711D01*
X107867129Y-64404332D01*
X107686489Y-64368400D01*
X107502311Y-64368400D01*
X107321671Y-64404332D01*
X107151511Y-64474814D01*
X106998372Y-64577138D01*
X106868138Y-64707372D01*
X106765814Y-64860511D01*
X106695332Y-65030671D01*
X106659400Y-65211311D01*
X106659400Y-65395489D01*
X106695332Y-65576129D01*
X106765814Y-65746289D01*
X106868138Y-65899428D01*
X106998372Y-66029662D01*
X107151511Y-66131986D01*
X107321671Y-66202468D01*
X107502311Y-66238400D01*
X107546910Y-66238400D01*
X107503138Y-66282172D01*
X107400814Y-66435311D01*
X107330332Y-66605471D01*
X107294400Y-66786111D01*
X107294400Y-66970289D01*
X107330332Y-67150929D01*
X107400814Y-67321089D01*
X107503138Y-67474228D01*
X107633372Y-67604462D01*
X107661552Y-67623292D01*
X107499471Y-67655532D01*
X107329311Y-67726014D01*
X107176172Y-67828338D01*
X107045938Y-67958572D01*
X106943614Y-68111711D01*
X106873132Y-68281871D01*
X106837200Y-68462511D01*
X106837200Y-68646689D01*
X106873132Y-68827329D01*
X106943614Y-68997489D01*
X107045938Y-69150628D01*
X107176172Y-69280862D01*
X107329311Y-69383186D01*
X107392465Y-69409345D01*
X107270871Y-69433532D01*
X107100711Y-69504014D01*
X106947572Y-69606338D01*
X106817338Y-69736572D01*
X106715014Y-69889711D01*
X106644532Y-70059871D01*
X106608600Y-70240511D01*
X105297866Y-70240511D01*
X105146489Y-70210400D01*
X104962311Y-70210400D01*
X104781671Y-70246332D01*
X104611511Y-70316814D01*
X104458372Y-70419138D01*
X104328138Y-70549372D01*
X104266112Y-70642200D01*
X104225711Y-70642200D01*
X104045071Y-70678132D01*
X103874911Y-70748614D01*
X103721772Y-70850938D01*
X103591538Y-70981172D01*
X103489214Y-71134311D01*
X103418732Y-71304471D01*
X103382800Y-71485111D01*
X96921738Y-71485111D01*
X96911068Y-71431471D01*
X96840586Y-71261311D01*
X96738262Y-71108172D01*
X96608028Y-70977938D01*
X96454889Y-70875614D01*
X96284729Y-70805132D01*
X96104089Y-70769200D01*
X95919911Y-70769200D01*
X95739271Y-70805132D01*
X95569111Y-70875614D01*
X95415972Y-70977938D01*
X95285738Y-71108172D01*
X95183414Y-71261311D01*
X95112932Y-71431471D01*
X95077000Y-71612111D01*
X91300541Y-71612111D01*
X91288316Y-71582599D01*
X91139481Y-71359851D01*
X90950049Y-71170419D01*
X90727301Y-71021584D01*
X90479797Y-70919064D01*
X90217048Y-70866800D01*
X89949152Y-70866800D01*
X89686403Y-70919064D01*
X89438899Y-71021584D01*
X89216151Y-71170419D01*
X89026719Y-71359851D01*
X88947217Y-71478835D01*
X88950230Y-71468902D01*
X88974075Y-71226800D01*
X88950230Y-70984698D01*
X88879611Y-70751899D01*
X88764933Y-70537351D01*
X88610602Y-70349298D01*
X88422549Y-70194967D01*
X88208001Y-70080289D01*
X87975202Y-70009670D01*
X87793765Y-69991800D01*
X86972435Y-69991800D01*
X86790998Y-70009670D01*
X86613600Y-70063483D01*
X86613600Y-68069159D01*
X86768813Y-68301452D01*
X86996548Y-68529187D01*
X87264337Y-68708118D01*
X87561888Y-68831368D01*
X87877767Y-68894200D01*
X88199833Y-68894200D01*
X88515712Y-68831368D01*
X88813263Y-68708118D01*
X89081052Y-68529187D01*
X89308787Y-68301452D01*
X89487718Y-68033663D01*
X89610968Y-67736112D01*
X89673800Y-67420233D01*
X89673800Y-67098167D01*
X92903800Y-67098167D01*
X92903800Y-67420233D01*
X92966632Y-67736112D01*
X93089882Y-68033663D01*
X93268813Y-68301452D01*
X93496548Y-68529187D01*
X93764337Y-68708118D01*
X93868289Y-68751176D01*
X93786414Y-68873711D01*
X93715932Y-69043871D01*
X93680000Y-69224511D01*
X93680000Y-69408689D01*
X93715932Y-69589329D01*
X93786414Y-69759489D01*
X93888738Y-69912628D01*
X94018972Y-70042862D01*
X94172111Y-70145186D01*
X94342271Y-70215668D01*
X94522911Y-70251600D01*
X94707089Y-70251600D01*
X94887729Y-70215668D01*
X95057889Y-70145186D01*
X95211028Y-70042862D01*
X95341262Y-69912628D01*
X95443586Y-69759489D01*
X95496844Y-69630911D01*
X101427000Y-69630911D01*
X101427000Y-69815089D01*
X101462932Y-69995729D01*
X101533414Y-70165889D01*
X101635738Y-70319028D01*
X101765972Y-70449262D01*
X101919111Y-70551586D01*
X102089271Y-70622068D01*
X102269911Y-70658000D01*
X102454089Y-70658000D01*
X102634729Y-70622068D01*
X102804889Y-70551586D01*
X102958028Y-70449262D01*
X103088262Y-70319028D01*
X103190586Y-70165889D01*
X103261068Y-69995729D01*
X103297000Y-69815089D01*
X103297000Y-69630911D01*
X103261068Y-69450271D01*
X103190586Y-69280111D01*
X103088262Y-69126972D01*
X102958028Y-68996738D01*
X102804889Y-68894414D01*
X102634729Y-68823932D01*
X102454089Y-68788000D01*
X102269911Y-68788000D01*
X102089271Y-68823932D01*
X101919111Y-68894414D01*
X101765972Y-68996738D01*
X101635738Y-69126972D01*
X101533414Y-69280111D01*
X101462932Y-69450271D01*
X101427000Y-69630911D01*
X95496844Y-69630911D01*
X95514068Y-69589329D01*
X95550000Y-69408689D01*
X95550000Y-69224511D01*
X95514068Y-69043871D01*
X95443586Y-68873711D01*
X95341262Y-68720572D01*
X95322582Y-68701892D01*
X95581052Y-68529187D01*
X95808787Y-68301452D01*
X95987718Y-68033663D01*
X96110968Y-67736112D01*
X96143311Y-67573511D01*
X103560600Y-67573511D01*
X103560600Y-67757689D01*
X103596532Y-67938329D01*
X103667014Y-68108489D01*
X103769338Y-68261628D01*
X103899572Y-68391862D01*
X104052711Y-68494186D01*
X104222871Y-68564668D01*
X104403511Y-68600600D01*
X104587689Y-68600600D01*
X104768329Y-68564668D01*
X104938489Y-68494186D01*
X105091628Y-68391862D01*
X105221862Y-68261628D01*
X105324186Y-68108489D01*
X105394668Y-67938329D01*
X105430600Y-67757689D01*
X105430600Y-67573511D01*
X105394668Y-67392871D01*
X105324186Y-67222711D01*
X105221862Y-67069572D01*
X105091628Y-66939338D01*
X104938489Y-66837014D01*
X104768329Y-66766532D01*
X104587689Y-66730600D01*
X104403511Y-66730600D01*
X104222871Y-66766532D01*
X104052711Y-66837014D01*
X103899572Y-66939338D01*
X103769338Y-67069572D01*
X103667014Y-67222711D01*
X103596532Y-67392871D01*
X103560600Y-67573511D01*
X96143311Y-67573511D01*
X96173800Y-67420233D01*
X96173800Y-67098167D01*
X96110968Y-66782288D01*
X95987718Y-66484737D01*
X95808787Y-66216948D01*
X95581052Y-65989213D01*
X95313263Y-65810282D01*
X95015712Y-65687032D01*
X94699833Y-65624200D01*
X94377767Y-65624200D01*
X94061888Y-65687032D01*
X93764337Y-65810282D01*
X93496548Y-65989213D01*
X93268813Y-66216948D01*
X93089882Y-66484737D01*
X92966632Y-66782288D01*
X92903800Y-67098167D01*
X89673800Y-67098167D01*
X89610968Y-66782288D01*
X89487718Y-66484737D01*
X89308787Y-66216948D01*
X89081052Y-65989213D01*
X88813263Y-65810282D01*
X88515712Y-65687032D01*
X88199833Y-65624200D01*
X87877767Y-65624200D01*
X87561888Y-65687032D01*
X87264337Y-65810282D01*
X86996548Y-65989213D01*
X86768813Y-66216948D01*
X86613600Y-66449241D01*
X86613600Y-63569159D01*
X86768813Y-63801452D01*
X86996548Y-64029187D01*
X87264337Y-64208118D01*
X87561888Y-64331368D01*
X87877767Y-64394200D01*
X88199833Y-64394200D01*
X88515712Y-64331368D01*
X88536513Y-64322752D01*
X88554738Y-64350028D01*
X88684972Y-64480262D01*
X88838111Y-64582586D01*
X89008271Y-64653068D01*
X89188911Y-64689000D01*
X89373089Y-64689000D01*
X89553729Y-64653068D01*
X89723889Y-64582586D01*
X89877028Y-64480262D01*
X89888200Y-64469090D01*
X90240848Y-64469090D01*
X90240848Y-64715310D01*
X90288883Y-64956798D01*
X90383107Y-65184274D01*
X90519899Y-65388998D01*
X90694002Y-65563101D01*
X90898726Y-65699893D01*
X91126202Y-65794117D01*
X91367690Y-65842152D01*
X91613910Y-65842152D01*
X91855398Y-65794117D01*
X92082874Y-65699893D01*
X92287598Y-65563101D01*
X92461701Y-65388998D01*
X92598493Y-65184274D01*
X92692504Y-64957311D01*
X102138200Y-64957311D01*
X102138200Y-65141489D01*
X102174132Y-65322129D01*
X102244614Y-65492289D01*
X102346938Y-65645428D01*
X102477172Y-65775662D01*
X102630311Y-65877986D01*
X102800471Y-65948468D01*
X102981111Y-65984400D01*
X103165289Y-65984400D01*
X103345929Y-65948468D01*
X103516089Y-65877986D01*
X103669228Y-65775662D01*
X103799462Y-65645428D01*
X103901786Y-65492289D01*
X103972268Y-65322129D01*
X104008200Y-65141489D01*
X104008200Y-64957311D01*
X103972268Y-64776671D01*
X103901786Y-64606511D01*
X103799462Y-64453372D01*
X103669228Y-64323138D01*
X103516089Y-64220814D01*
X103345929Y-64150332D01*
X103165289Y-64114400D01*
X102981111Y-64114400D01*
X102800471Y-64150332D01*
X102630311Y-64220814D01*
X102477172Y-64323138D01*
X102346938Y-64453372D01*
X102244614Y-64606511D01*
X102174132Y-64776671D01*
X102138200Y-64957311D01*
X92692504Y-64957311D01*
X92692717Y-64956798D01*
X92740752Y-64715310D01*
X92740752Y-64469090D01*
X92692717Y-64227602D01*
X92598493Y-64000126D01*
X92461701Y-63795402D01*
X92287598Y-63621299D01*
X92082874Y-63484507D01*
X91855398Y-63390283D01*
X91613910Y-63342248D01*
X91367690Y-63342248D01*
X91126202Y-63390283D01*
X90898726Y-63484507D01*
X90694002Y-63621299D01*
X90519899Y-63795402D01*
X90383107Y-64000126D01*
X90288883Y-64227602D01*
X90240848Y-64469090D01*
X89888200Y-64469090D01*
X90007262Y-64350028D01*
X90109586Y-64196889D01*
X90180068Y-64026729D01*
X90216000Y-63846089D01*
X90216000Y-63661911D01*
X90180068Y-63481271D01*
X90109586Y-63311111D01*
X90007262Y-63157972D01*
X89877028Y-63027738D01*
X89723889Y-62925414D01*
X89673800Y-62904667D01*
X89673800Y-62598167D01*
X89610968Y-62282288D01*
X89487718Y-61984737D01*
X89308787Y-61716948D01*
X89081052Y-61489213D01*
X88813263Y-61310282D01*
X88515712Y-61187032D01*
X88199833Y-61124200D01*
X87877767Y-61124200D01*
X87561888Y-61187032D01*
X87264337Y-61310282D01*
X86996548Y-61489213D01*
X86768813Y-61716948D01*
X86620384Y-61939087D01*
X86633159Y-61808800D01*
X86681720Y-61647959D01*
X86760592Y-61499622D01*
X86866776Y-61369426D01*
X86996226Y-61262336D01*
X87144014Y-61182428D01*
X87304502Y-61132748D01*
X87501781Y-61112013D01*
X94669302Y-61116067D01*
%TA.AperFunction,Conductor*%
D21*
G36*
X94669302Y-61116067D02*
G01*
X94665933Y-61124200D01*
X94377767Y-61124200D01*
X94061888Y-61187032D01*
X93764337Y-61310282D01*
X93496548Y-61489213D01*
X93268813Y-61716948D01*
X93089882Y-61984737D01*
X92966632Y-62282288D01*
X92903800Y-62598167D01*
X92903800Y-62920233D01*
X92966632Y-63236112D01*
X93089882Y-63533663D01*
X93268813Y-63801452D01*
X93496548Y-64029187D01*
X93764337Y-64208118D01*
X94061888Y-64331368D01*
X94377767Y-64394200D01*
X94699833Y-64394200D01*
X95015712Y-64331368D01*
X95313263Y-64208118D01*
X95581052Y-64029187D01*
X95808787Y-63801452D01*
X95987718Y-63533663D01*
X96110968Y-63236112D01*
X96173800Y-62920233D01*
X96173800Y-62598167D01*
X96110968Y-62282288D01*
X96104300Y-62266190D01*
X96230262Y-62140228D01*
X96332586Y-61987089D01*
X96403068Y-61816929D01*
X96439000Y-61636289D01*
X96439000Y-61452111D01*
X96403068Y-61271471D01*
X96339089Y-61117012D01*
X97658388Y-61117758D01*
X97585442Y-61132268D01*
X97315189Y-61244210D01*
X97071968Y-61406725D01*
X96865125Y-61613568D01*
X96702610Y-61856789D01*
X96590668Y-62127042D01*
X96533600Y-62413940D01*
X96533600Y-62706460D01*
X96590668Y-62993358D01*
X96702610Y-63263611D01*
X96865125Y-63506832D01*
X97071968Y-63713675D01*
X97315189Y-63876190D01*
X97585442Y-63988132D01*
X97872340Y-64045200D01*
X98164860Y-64045200D01*
X98451758Y-63988132D01*
X98722011Y-63876190D01*
X98965232Y-63713675D01*
X99172075Y-63506832D01*
X99288600Y-63332440D01*
X99405125Y-63506832D01*
X99611968Y-63713675D01*
X99855189Y-63876190D01*
X100125442Y-63988132D01*
X100412340Y-64045200D01*
X100704860Y-64045200D01*
X100991758Y-63988132D01*
X101262011Y-63876190D01*
X101505232Y-63713675D01*
X101712075Y-63506832D01*
X101828600Y-63332440D01*
X101945125Y-63506832D01*
X102151968Y-63713675D01*
X102395189Y-63876190D01*
X102665442Y-63988132D01*
X102952340Y-64045200D01*
X103244860Y-64045200D01*
X103531758Y-63988132D01*
X103802011Y-63876190D01*
X104045232Y-63713675D01*
X104177087Y-63581820D01*
X104199098Y-63654380D01*
X104258063Y-63764694D01*
X104337415Y-63861385D01*
X104434106Y-63940737D01*
X104544420Y-63999702D01*
X104664118Y-64036012D01*
X104788600Y-64048272D01*
X106488600Y-64048272D01*
X106613082Y-64036012D01*
X106732780Y-63999702D01*
X106775511Y-63976862D01*
X106813671Y-63992668D01*
X106994311Y-64028600D01*
X107178489Y-64028600D01*
X107359129Y-63992668D01*
X107529289Y-63922186D01*
X107682428Y-63819862D01*
X107812662Y-63689628D01*
X107914986Y-63536489D01*
X107985468Y-63366329D01*
X108021400Y-63185689D01*
X108021400Y-63001511D01*
X107985468Y-62820871D01*
X107914986Y-62650711D01*
X107812662Y-62497572D01*
X107682428Y-62367338D01*
X107529289Y-62265014D01*
X107359129Y-62194532D01*
X107178489Y-62158600D01*
X107126672Y-62158600D01*
X107126672Y-61710200D01*
X107114412Y-61585718D01*
X107078102Y-61466020D01*
X107019137Y-61355706D01*
X106939785Y-61259015D01*
X106843094Y-61179663D01*
X106736886Y-61122893D01*
X107326847Y-61123227D01*
X107309648Y-61209690D01*
X107309648Y-61455910D01*
X107357683Y-61697398D01*
X107451907Y-61924874D01*
X107588699Y-62129598D01*
X107762802Y-62303701D01*
X107967526Y-62440493D01*
X108195002Y-62534717D01*
X108436490Y-62582752D01*
X108682710Y-62582752D01*
X108924198Y-62534717D01*
X109151674Y-62440493D01*
X109356398Y-62303701D01*
X109530501Y-62129598D01*
X109557779Y-62088773D01*
X109640711Y-62144186D01*
X109810871Y-62214668D01*
X109991511Y-62250600D01*
X110175689Y-62250600D01*
X110356329Y-62214668D01*
X110380635Y-62204600D01*
X111810800Y-62204600D01*
X111810800Y-65049400D01*
X111813240Y-65074176D01*
X111820467Y-65098001D01*
X111832203Y-65119957D01*
X111847997Y-65139203D01*
X111867243Y-65154997D01*
X111889199Y-65166733D01*
X111913024Y-65173960D01*
X111937800Y-65176400D01*
X114681000Y-65176400D01*
X114705776Y-65173960D01*
X114729601Y-65166733D01*
X114751557Y-65154997D01*
X114770803Y-65139203D01*
X114786597Y-65119957D01*
X114798333Y-65098001D01*
X114805560Y-65074176D01*
X114808000Y-65049400D01*
X114808000Y-62417311D01*
X116844800Y-62417311D01*
X116844800Y-62601489D01*
X116880732Y-62782129D01*
X116951214Y-62952289D01*
X117053538Y-63105428D01*
X117183772Y-63235662D01*
X117336911Y-63337986D01*
X117368457Y-63351053D01*
X117358338Y-63361172D01*
X117256014Y-63514311D01*
X117185532Y-63684471D01*
X117149600Y-63865111D01*
X117149600Y-64049289D01*
X117185532Y-64229929D01*
X117256014Y-64400089D01*
X117358338Y-64553228D01*
X117488572Y-64683462D01*
X117641711Y-64785786D01*
X117811871Y-64856268D01*
X117992511Y-64892200D01*
X118176689Y-64892200D01*
X118357329Y-64856268D01*
X118527489Y-64785786D01*
X118680628Y-64683462D01*
X118810862Y-64553228D01*
X118913186Y-64400089D01*
X118983668Y-64229929D01*
X119019600Y-64049289D01*
X119019600Y-63865111D01*
X118983668Y-63684471D01*
X118913186Y-63514311D01*
X118810862Y-63361172D01*
X118680628Y-63230938D01*
X118527489Y-63128614D01*
X118495943Y-63115547D01*
X118506062Y-63105428D01*
X118608386Y-62952289D01*
X118678868Y-62782129D01*
X118714800Y-62601489D01*
X118714800Y-62417311D01*
X118678868Y-62236671D01*
X118608386Y-62066511D01*
X118506062Y-61913372D01*
X118375828Y-61783138D01*
X118222689Y-61680814D01*
X118052529Y-61610332D01*
X117871889Y-61574400D01*
X117687711Y-61574400D01*
X117507071Y-61610332D01*
X117336911Y-61680814D01*
X117183772Y-61783138D01*
X117053538Y-61913372D01*
X116951214Y-62066511D01*
X116880732Y-62236671D01*
X116844800Y-62417311D01*
X114808000Y-62417311D01*
X114808000Y-62204600D01*
X114805560Y-62179824D01*
X114798333Y-62155999D01*
X114786597Y-62134043D01*
X114770803Y-62114797D01*
X114751557Y-62099003D01*
X114729601Y-62087267D01*
X114705776Y-62080040D01*
X114681000Y-62077600D01*
X111937800Y-62077600D01*
X111913024Y-62080040D01*
X111889199Y-62087267D01*
X111867243Y-62099003D01*
X111847997Y-62114797D01*
X111832203Y-62134043D01*
X111820467Y-62155999D01*
X111813240Y-62179824D01*
X111810800Y-62204600D01*
X110380635Y-62204600D01*
X110526489Y-62144186D01*
X110679628Y-62041862D01*
X110809862Y-61911628D01*
X110912186Y-61758489D01*
X110982668Y-61588329D01*
X111018600Y-61407689D01*
X111018600Y-61223511D01*
X110999065Y-61125304D01*
X119610966Y-61130175D01*
X119633587Y-68097400D01*
X118160800Y-68097400D01*
X118136024Y-68099840D01*
X118112199Y-68107067D01*
X118090243Y-68118803D01*
X118070997Y-68134597D01*
X118055203Y-68153843D01*
X118043467Y-68175799D01*
X118036240Y-68199624D01*
X118033800Y-68224400D01*
X118033800Y-71755000D01*
X116332000Y-71755000D01*
X116307224Y-71757440D01*
X116283399Y-71764667D01*
X116261443Y-71776403D01*
X116242197Y-71792197D01*
X116226403Y-71811443D01*
X116214667Y-71833399D01*
X116207440Y-71857224D01*
X116205000Y-71882000D01*
X116205000Y-73461600D01*
X116112911Y-73461600D01*
X115932271Y-73497532D01*
X115762111Y-73568014D01*
X115608972Y-73670338D01*
X115478738Y-73800572D01*
X115376414Y-73953711D01*
X115305932Y-74123871D01*
X115270000Y-74304511D01*
X115270000Y-74472800D01*
X113893600Y-74472800D01*
X113868824Y-74475240D01*
X113844999Y-74482467D01*
X113823043Y-74494203D01*
X113803797Y-74509997D01*
X113788003Y-74529243D01*
X113776267Y-74551199D01*
X113769040Y-74575024D01*
X113766600Y-74599800D01*
X113766600Y-79720470D01*
X110455381Y-79718597D01*
X110485200Y-79568689D01*
X110485200Y-79384511D01*
X110449268Y-79203871D01*
X110406608Y-79100879D01*
X110514533Y-79145583D01*
X110733812Y-79189200D01*
X110957388Y-79189200D01*
X111176667Y-79145583D01*
X111383224Y-79060024D01*
X111480600Y-78994959D01*
X111577976Y-79060024D01*
X111784533Y-79145583D01*
X112003812Y-79189200D01*
X112227388Y-79189200D01*
X112446667Y-79145583D01*
X112653224Y-79060024D01*
X112839120Y-78935812D01*
X112997212Y-78777720D01*
X113121424Y-78591824D01*
X113206983Y-78385267D01*
X113250600Y-78165988D01*
X113250600Y-77942412D01*
X113206983Y-77723133D01*
X113121424Y-77516576D01*
X113056359Y-77419200D01*
X113121424Y-77321824D01*
X113206983Y-77115267D01*
X113250600Y-76895988D01*
X113250600Y-76672412D01*
X113206983Y-76453133D01*
X113121424Y-76246576D01*
X112997212Y-76060680D01*
X112839120Y-75902588D01*
X112653224Y-75778376D01*
X112446667Y-75692817D01*
X112227388Y-75649200D01*
X112003812Y-75649200D01*
X111784533Y-75692817D01*
X111577976Y-75778376D01*
X111480600Y-75843441D01*
X111383224Y-75778376D01*
X111176667Y-75692817D01*
X110957388Y-75649200D01*
X110733812Y-75649200D01*
X110514533Y-75692817D01*
X110307976Y-75778376D01*
X110210600Y-75843441D01*
X110113224Y-75778376D01*
X109906667Y-75692817D01*
X109687388Y-75649200D01*
X109463812Y-75649200D01*
X109244533Y-75692817D01*
X109037976Y-75778376D01*
X108940600Y-75843441D01*
X108843224Y-75778376D01*
X108636667Y-75692817D01*
X108553757Y-75676325D01*
X108723089Y-75606186D01*
X108876228Y-75503862D01*
X109006462Y-75373628D01*
X109108786Y-75220489D01*
X109179268Y-75050329D01*
X109215200Y-74869689D01*
X109215200Y-74685511D01*
X109179833Y-74507711D01*
X109732800Y-74507711D01*
X109732800Y-74691889D01*
X109768732Y-74872529D01*
X109839214Y-75042689D01*
X109941538Y-75195828D01*
X110071772Y-75326062D01*
X110224911Y-75428386D01*
X110395071Y-75498868D01*
X110575711Y-75534800D01*
X110759889Y-75534800D01*
X110940529Y-75498868D01*
X111110689Y-75428386D01*
X111249647Y-75335537D01*
X111290972Y-75376862D01*
X111444111Y-75479186D01*
X111614271Y-75549668D01*
X111794911Y-75585600D01*
X111979089Y-75585600D01*
X112159729Y-75549668D01*
X112329889Y-75479186D01*
X112483028Y-75376862D01*
X112613262Y-75246628D01*
X112715586Y-75093489D01*
X112786068Y-74923329D01*
X112822000Y-74742689D01*
X112822000Y-74558511D01*
X112786068Y-74377871D01*
X112715586Y-74207711D01*
X112613262Y-74054572D01*
X112483028Y-73924338D01*
X112329889Y-73822014D01*
X112159729Y-73751532D01*
X111979089Y-73715600D01*
X111794911Y-73715600D01*
X111614271Y-73751532D01*
X111444111Y-73822014D01*
X111305153Y-73914863D01*
X111263828Y-73873538D01*
X111110689Y-73771214D01*
X110940529Y-73700732D01*
X110759889Y-73664800D01*
X110575711Y-73664800D01*
X110395071Y-73700732D01*
X110224911Y-73771214D01*
X110071772Y-73873538D01*
X109941538Y-74003772D01*
X109839214Y-74156911D01*
X109768732Y-74327071D01*
X109732800Y-74507711D01*
X109179833Y-74507711D01*
X109179268Y-74504871D01*
X109108786Y-74334711D01*
X109006462Y-74181572D01*
X108876228Y-74051338D01*
X108723089Y-73949014D01*
X108552929Y-73878532D01*
X108372289Y-73842600D01*
X108188111Y-73842600D01*
X108007471Y-73878532D01*
X107837311Y-73949014D01*
X107715093Y-74030677D01*
X107630889Y-73974414D01*
X107460729Y-73903932D01*
X107280089Y-73868000D01*
X107095911Y-73868000D01*
X106915271Y-73903932D01*
X106745111Y-73974414D01*
X106591972Y-74076738D01*
X106461738Y-74206972D01*
X106359414Y-74360111D01*
X106356030Y-74368280D01*
X106216129Y-74310332D01*
X106035489Y-74274400D01*
X105851311Y-74274400D01*
X105670671Y-74310332D01*
X105500511Y-74380814D01*
X105347372Y-74483138D01*
X105217138Y-74613372D01*
X105114814Y-74766511D01*
X105044332Y-74936671D01*
X105008400Y-75117311D01*
X105008400Y-75301489D01*
X105044332Y-75482129D01*
X105114814Y-75652289D01*
X105186400Y-75759426D01*
X105075910Y-75737448D01*
X104829690Y-75737448D01*
X104588202Y-75785483D01*
X104360726Y-75879707D01*
X104211806Y-75979212D01*
X104176489Y-75955614D01*
X104006329Y-75885132D01*
X103825689Y-75849200D01*
X103641511Y-75849200D01*
X103460871Y-75885132D01*
X103290711Y-75955614D01*
X103137572Y-76057938D01*
X103007338Y-76188172D01*
X102905489Y-76340600D01*
X102622140Y-76340600D01*
X102335242Y-76397668D01*
X102064989Y-76509610D01*
X101821768Y-76672125D01*
X101614925Y-76878968D01*
X101498400Y-77053360D01*
X101381875Y-76878968D01*
X101175032Y-76672125D01*
X101044956Y-76585211D01*
X101102068Y-76447329D01*
X101138000Y-76266689D01*
X101138000Y-76082511D01*
X101102068Y-75901871D01*
X101031586Y-75731711D01*
X100929262Y-75578572D01*
X100799028Y-75448338D01*
X100645889Y-75346014D01*
X100475729Y-75275532D01*
X100295089Y-75239600D01*
X100110911Y-75239600D01*
X99930271Y-75275532D01*
X99760111Y-75346014D01*
X99606972Y-75448338D01*
X99476738Y-75578572D01*
X99374414Y-75731711D01*
X99303932Y-75901871D01*
X99268000Y-76082511D01*
X99268000Y-76266689D01*
X99303932Y-76447329D01*
X99372056Y-76611796D01*
X99281768Y-76672125D01*
X99149913Y-76803980D01*
X99127902Y-76731420D01*
X99068937Y-76621106D01*
X98989585Y-76524415D01*
X98892894Y-76445063D01*
X98782580Y-76386098D01*
X98662882Y-76349788D01*
X98538400Y-76337528D01*
X96838400Y-76337528D01*
X96713918Y-76349788D01*
X96594220Y-76386098D01*
X96483906Y-76445063D01*
X96387215Y-76524415D01*
X96307863Y-76621106D01*
X96248898Y-76731420D01*
X96212588Y-76851118D01*
X96200328Y-76975600D01*
X96200328Y-78675600D01*
X96212588Y-78800082D01*
X96248898Y-78919780D01*
X96307863Y-79030094D01*
X96387215Y-79126785D01*
X96483906Y-79206137D01*
X96594220Y-79265102D01*
X96713918Y-79301412D01*
X96838400Y-79313672D01*
X98538400Y-79313672D01*
X98662882Y-79301412D01*
X98782580Y-79265102D01*
X98892894Y-79206137D01*
X98989585Y-79126785D01*
X99068937Y-79030094D01*
X99127902Y-78919780D01*
X99149913Y-78847220D01*
X99281768Y-78979075D01*
X99524989Y-79141590D01*
X99795242Y-79253532D01*
X100082140Y-79310600D01*
X100374660Y-79310600D01*
X100661558Y-79253532D01*
X100931811Y-79141590D01*
X101175032Y-78979075D01*
X101381875Y-78772232D01*
X101498400Y-78597840D01*
X101614925Y-78772232D01*
X101821768Y-78979075D01*
X102064989Y-79141590D01*
X102335242Y-79253532D01*
X102622140Y-79310600D01*
X102914660Y-79310600D01*
X103201558Y-79253532D01*
X103471811Y-79141590D01*
X103715032Y-78979075D01*
X103921875Y-78772232D01*
X104067559Y-78554200D01*
X105897528Y-78554200D01*
X105909788Y-78678682D01*
X105946098Y-78798380D01*
X106005063Y-78908694D01*
X106084415Y-79005385D01*
X106181106Y-79084737D01*
X106291420Y-79143702D01*
X106411118Y-79180012D01*
X106535600Y-79192272D01*
X106628850Y-79189200D01*
X106787600Y-79030450D01*
X106787600Y-78302200D01*
X106059350Y-78302200D01*
X105900600Y-78460950D01*
X105897528Y-78554200D01*
X104067559Y-78554200D01*
X104084390Y-78529011D01*
X104196332Y-78258758D01*
X104244354Y-78017336D01*
X104360726Y-78095093D01*
X104588202Y-78189317D01*
X104829690Y-78237352D01*
X105075910Y-78237352D01*
X105317398Y-78189317D01*
X105544874Y-78095093D01*
X105749598Y-77958301D01*
X105923701Y-77784198D01*
X105969222Y-77716072D01*
X106059350Y-77806200D01*
X106537028Y-77806200D01*
X106704533Y-77875583D01*
X106923812Y-77919200D01*
X107147388Y-77919200D01*
X107176364Y-77913436D01*
X107170600Y-77942412D01*
X107170600Y-78165988D01*
X107214217Y-78385267D01*
X107283600Y-78552772D01*
X107283600Y-79030450D01*
X107442350Y-79189200D01*
X107535600Y-79192272D01*
X107660082Y-79180012D01*
X107779780Y-79143702D01*
X107862826Y-79099312D01*
X107974533Y-79145583D01*
X108193812Y-79189200D01*
X108417388Y-79189200D01*
X108636667Y-79145583D01*
X108683272Y-79126279D01*
X108651132Y-79203871D01*
X108615200Y-79384511D01*
X108615200Y-79568689D01*
X108644815Y-79717573D01*
X93181719Y-79708826D01*
X93228068Y-79596929D01*
X93264000Y-79416289D01*
X93264000Y-79232111D01*
X93228068Y-79051471D01*
X93157586Y-78881311D01*
X93055262Y-78728172D01*
X92925028Y-78597938D01*
X92771889Y-78495614D01*
X92601729Y-78425132D01*
X92499726Y-78404842D01*
X92497186Y-78398711D01*
X92394862Y-78245572D01*
X92264628Y-78115338D01*
X92111489Y-78013014D01*
X91941329Y-77942532D01*
X91760689Y-77906600D01*
X91576511Y-77906600D01*
X91395871Y-77942532D01*
X91225711Y-78013014D01*
X91167387Y-78051985D01*
X91288316Y-77871001D01*
X91390836Y-77623497D01*
X91443100Y-77360748D01*
X91443100Y-77092852D01*
X91390855Y-76830200D01*
X91481289Y-76830200D01*
X91661929Y-76794268D01*
X91832089Y-76723786D01*
X91985228Y-76621462D01*
X92115462Y-76491228D01*
X92217786Y-76338089D01*
X92288268Y-76167929D01*
X92324200Y-75987289D01*
X92324200Y-75803111D01*
X92288268Y-75622471D01*
X92257882Y-75549111D01*
X92384600Y-75549111D01*
X92384600Y-75733289D01*
X92420532Y-75913929D01*
X92491014Y-76084089D01*
X92593338Y-76237228D01*
X92723572Y-76367462D01*
X92876711Y-76469786D01*
X93046871Y-76540268D01*
X93227511Y-76576200D01*
X93411689Y-76576200D01*
X93592329Y-76540268D01*
X93762489Y-76469786D01*
X93915628Y-76367462D01*
X94045862Y-76237228D01*
X94148186Y-76084089D01*
X94218668Y-75913929D01*
X94254600Y-75733289D01*
X94254600Y-75549111D01*
X94218668Y-75368471D01*
X94148186Y-75198311D01*
X94045862Y-75045172D01*
X93915628Y-74914938D01*
X93762489Y-74812614D01*
X93592329Y-74742132D01*
X93411689Y-74706200D01*
X93227511Y-74706200D01*
X93046871Y-74742132D01*
X92876711Y-74812614D01*
X92723572Y-74914938D01*
X92593338Y-75045172D01*
X92491014Y-75198311D01*
X92420532Y-75368471D01*
X92384600Y-75549111D01*
X92257882Y-75549111D01*
X92217786Y-75452311D01*
X92115462Y-75299172D01*
X91985228Y-75168938D01*
X91832089Y-75066614D01*
X91661929Y-74996132D01*
X91481289Y-74960200D01*
X91297111Y-74960200D01*
X91116471Y-74996132D01*
X90946311Y-75066614D01*
X90793172Y-75168938D01*
X90662938Y-75299172D01*
X90560614Y-75452311D01*
X90490132Y-75622471D01*
X90454200Y-75803111D01*
X90454200Y-75913972D01*
X90217048Y-75866800D01*
X89949152Y-75866800D01*
X89686403Y-75919064D01*
X89438899Y-76021584D01*
X89216151Y-76170419D01*
X89026719Y-76359851D01*
X88877884Y-76582599D01*
X88775364Y-76830103D01*
X88723100Y-77092852D01*
X88723100Y-77360748D01*
X88756084Y-77526568D01*
X88610602Y-77349298D01*
X88422549Y-77194967D01*
X88208001Y-77080289D01*
X87975202Y-77009670D01*
X87793765Y-76991800D01*
X86972435Y-76991800D01*
X86790998Y-77009670D01*
X86613600Y-77063483D01*
X86613600Y-72390117D01*
X86790998Y-72443930D01*
X86972435Y-72461800D01*
X87793765Y-72461800D01*
X87975202Y-72443930D01*
X88208001Y-72373311D01*
X88422549Y-72258633D01*
X88610602Y-72104302D01*
X88756084Y-71927032D01*
X88723100Y-72092852D01*
X88723100Y-72360748D01*
X88775364Y-72623497D01*
X88877884Y-72871001D01*
X89026719Y-73093749D01*
X89216151Y-73283181D01*
X89438899Y-73432016D01*
X89686403Y-73534536D01*
X89949152Y-73586800D01*
X90217048Y-73586800D01*
X90479797Y-73534536D01*
X90727301Y-73432016D01*
X90950049Y-73283181D01*
X91139481Y-73093749D01*
X91288316Y-72871001D01*
X91390836Y-72623497D01*
X91443100Y-72360748D01*
X91443100Y-72092852D01*
X91390836Y-71830103D01*
X91300541Y-71612111D01*
X95077000Y-71612111D01*
X95077000Y-71796289D01*
X95112932Y-71976929D01*
X95183414Y-72147089D01*
X95285738Y-72300228D01*
X95415972Y-72430462D01*
X95569111Y-72532786D01*
X95592321Y-72542400D01*
X95569111Y-72552014D01*
X95415972Y-72654338D01*
X95285738Y-72784572D01*
X95183414Y-72937711D01*
X95112932Y-73107871D01*
X95077000Y-73288511D01*
X95077000Y-73472689D01*
X95112932Y-73653329D01*
X95183414Y-73823489D01*
X95285738Y-73976628D01*
X95415972Y-74106862D01*
X95569111Y-74209186D01*
X95739271Y-74279668D01*
X95919911Y-74315600D01*
X96104089Y-74315600D01*
X96284729Y-74279668D01*
X96454889Y-74209186D01*
X96608028Y-74106862D01*
X96738262Y-73976628D01*
X96840586Y-73823489D01*
X96911068Y-73653329D01*
X96947000Y-73472689D01*
X96947000Y-73288511D01*
X98201200Y-73288511D01*
X98201200Y-73472689D01*
X98237132Y-73653329D01*
X98307614Y-73823489D01*
X98409938Y-73976628D01*
X98540172Y-74106862D01*
X98693311Y-74209186D01*
X98863471Y-74279668D01*
X99044111Y-74315600D01*
X99228289Y-74315600D01*
X99408929Y-74279668D01*
X99579089Y-74209186D01*
X99732228Y-74106862D01*
X99862462Y-73976628D01*
X99964786Y-73823489D01*
X100035268Y-73653329D01*
X100071200Y-73472689D01*
X100071200Y-73288511D01*
X100035268Y-73107871D01*
X99964786Y-72937711D01*
X99862462Y-72784572D01*
X99732228Y-72654338D01*
X99579089Y-72552014D01*
X99408929Y-72481532D01*
X99228289Y-72445600D01*
X99044111Y-72445600D01*
X98863471Y-72481532D01*
X98693311Y-72552014D01*
X98540172Y-72654338D01*
X98409938Y-72784572D01*
X98307614Y-72937711D01*
X98237132Y-73107871D01*
X98201200Y-73288511D01*
X96947000Y-73288511D01*
X96911068Y-73107871D01*
X96840586Y-72937711D01*
X96738262Y-72784572D01*
X96608028Y-72654338D01*
X96454889Y-72552014D01*
X96431679Y-72542400D01*
X96454889Y-72532786D01*
X96608028Y-72430462D01*
X96738262Y-72300228D01*
X96840586Y-72147089D01*
X96911068Y-71976929D01*
X96947000Y-71796289D01*
X96947000Y-71612111D01*
X96921738Y-71485111D01*
X103382800Y-71485111D01*
X103382800Y-71669289D01*
X103418732Y-71849929D01*
X103489214Y-72020089D01*
X103591538Y-72173228D01*
X103721772Y-72303462D01*
X103874911Y-72405786D01*
X104045071Y-72476268D01*
X104149282Y-72496997D01*
X104164974Y-72575887D01*
X104235456Y-72746047D01*
X104337780Y-72899186D01*
X104468014Y-73029420D01*
X104621153Y-73131744D01*
X104791313Y-73202226D01*
X104971953Y-73238158D01*
X105156131Y-73238158D01*
X105336771Y-73202226D01*
X105506931Y-73131744D01*
X105660070Y-73029420D01*
X105790304Y-72899186D01*
X105801713Y-72882111D01*
X112806200Y-72882111D01*
X112806200Y-73066289D01*
X112842132Y-73246929D01*
X112912614Y-73417089D01*
X113014938Y-73570228D01*
X113145172Y-73700462D01*
X113298311Y-73802786D01*
X113468471Y-73873268D01*
X113649111Y-73909200D01*
X113833289Y-73909200D01*
X114013929Y-73873268D01*
X114184089Y-73802786D01*
X114337228Y-73700462D01*
X114467462Y-73570228D01*
X114569786Y-73417089D01*
X114640268Y-73246929D01*
X114676200Y-73066289D01*
X114676200Y-72882111D01*
X114640268Y-72701471D01*
X114569786Y-72531311D01*
X114467462Y-72378172D01*
X114337228Y-72247938D01*
X114184089Y-72145614D01*
X114013929Y-72075132D01*
X113833289Y-72039200D01*
X113649111Y-72039200D01*
X113468471Y-72075132D01*
X113298311Y-72145614D01*
X113145172Y-72247938D01*
X113014938Y-72378172D01*
X112912614Y-72531311D01*
X112842132Y-72701471D01*
X112806200Y-72882111D01*
X105801713Y-72882111D01*
X105892628Y-72746047D01*
X105963110Y-72575887D01*
X105999042Y-72395247D01*
X105999042Y-72211069D01*
X105963110Y-72030429D01*
X105892628Y-71860269D01*
X105796942Y-71717064D01*
X105882986Y-71588289D01*
X105953468Y-71418129D01*
X105989400Y-71237489D01*
X105989400Y-71053311D01*
X105953468Y-70872671D01*
X105882986Y-70702511D01*
X105780662Y-70549372D01*
X105650428Y-70419138D01*
X105497289Y-70316814D01*
X105327129Y-70246332D01*
X105297866Y-70240511D01*
X106608600Y-70240511D01*
X106608600Y-70424689D01*
X106644532Y-70605329D01*
X106715014Y-70775489D01*
X106817338Y-70928628D01*
X106947572Y-71058862D01*
X107100711Y-71161186D01*
X107270871Y-71231668D01*
X107451511Y-71267600D01*
X107635689Y-71267600D01*
X107816329Y-71231668D01*
X107986489Y-71161186D01*
X108139628Y-71058862D01*
X108246779Y-70951711D01*
X112806200Y-70951711D01*
X112806200Y-71135889D01*
X112842132Y-71316529D01*
X112912614Y-71486689D01*
X113014938Y-71639828D01*
X113145172Y-71770062D01*
X113298311Y-71872386D01*
X113468471Y-71942868D01*
X113649111Y-71978800D01*
X113833289Y-71978800D01*
X114013929Y-71942868D01*
X114184089Y-71872386D01*
X114337228Y-71770062D01*
X114467462Y-71639828D01*
X114569786Y-71486689D01*
X114640268Y-71316529D01*
X114676200Y-71135889D01*
X114676200Y-70951711D01*
X114640268Y-70771071D01*
X114569786Y-70600911D01*
X114467462Y-70447772D01*
X114337228Y-70317538D01*
X114184089Y-70215214D01*
X114013929Y-70144732D01*
X113833289Y-70108800D01*
X113649111Y-70108800D01*
X113468471Y-70144732D01*
X113298311Y-70215214D01*
X113145172Y-70317538D01*
X113014938Y-70447772D01*
X112912614Y-70600911D01*
X112842132Y-70771071D01*
X112806200Y-70951711D01*
X108246779Y-70951711D01*
X108269862Y-70928628D01*
X108372186Y-70775489D01*
X108442668Y-70605329D01*
X108478600Y-70424689D01*
X108478600Y-70240511D01*
X108442668Y-70059871D01*
X108372186Y-69889711D01*
X108269862Y-69736572D01*
X108139628Y-69606338D01*
X107986489Y-69504014D01*
X107923335Y-69477855D01*
X108044929Y-69453668D01*
X108215089Y-69383186D01*
X108368228Y-69280862D01*
X108498462Y-69150628D01*
X108600786Y-68997489D01*
X108622481Y-68945111D01*
X112653800Y-68945111D01*
X112653800Y-69129289D01*
X112689732Y-69309929D01*
X112760214Y-69480089D01*
X112862538Y-69633228D01*
X112992772Y-69763462D01*
X113145911Y-69865786D01*
X113316071Y-69936268D01*
X113496711Y-69972200D01*
X113680889Y-69972200D01*
X113861529Y-69936268D01*
X114031689Y-69865786D01*
X114184828Y-69763462D01*
X114315062Y-69633228D01*
X114417386Y-69480089D01*
X114487868Y-69309929D01*
X114523800Y-69129289D01*
X114523800Y-68945111D01*
X114487868Y-68764471D01*
X114417386Y-68594311D01*
X114315062Y-68441172D01*
X114184828Y-68310938D01*
X114124158Y-68270400D01*
X114188889Y-68270400D01*
X114369529Y-68234468D01*
X114539689Y-68163986D01*
X114692828Y-68061662D01*
X114823062Y-67931428D01*
X114925386Y-67778289D01*
X114995868Y-67608129D01*
X115031800Y-67427489D01*
X115031800Y-67243311D01*
X114995868Y-67062671D01*
X114925386Y-66892511D01*
X114823062Y-66739372D01*
X114692828Y-66609138D01*
X114539689Y-66506814D01*
X114369529Y-66436332D01*
X114188889Y-66400400D01*
X114004711Y-66400400D01*
X113824071Y-66436332D01*
X113653911Y-66506814D01*
X113500772Y-66609138D01*
X113370538Y-66739372D01*
X113268214Y-66892511D01*
X113197732Y-67062671D01*
X113161800Y-67243311D01*
X113161800Y-67427489D01*
X113197732Y-67608129D01*
X113268214Y-67778289D01*
X113370538Y-67931428D01*
X113500772Y-68061662D01*
X113561442Y-68102200D01*
X113496711Y-68102200D01*
X113316071Y-68138132D01*
X113145911Y-68208614D01*
X112992772Y-68310938D01*
X112862538Y-68441172D01*
X112760214Y-68594311D01*
X112689732Y-68764471D01*
X112653800Y-68945111D01*
X108622481Y-68945111D01*
X108671268Y-68827329D01*
X108707200Y-68646689D01*
X108707200Y-68462511D01*
X108671268Y-68281871D01*
X108600786Y-68111711D01*
X108498462Y-67958572D01*
X108368228Y-67828338D01*
X108340048Y-67809508D01*
X108502129Y-67777268D01*
X108672289Y-67706786D01*
X108825428Y-67604462D01*
X108955662Y-67474228D01*
X109057986Y-67321089D01*
X109128468Y-67150929D01*
X109164400Y-66970289D01*
X109164400Y-66786111D01*
X109128468Y-66605471D01*
X109057986Y-66435311D01*
X108988602Y-66331469D01*
X109260200Y-66331469D01*
X109260200Y-66515647D01*
X109296132Y-66696287D01*
X109366614Y-66866447D01*
X109468938Y-67019586D01*
X109599172Y-67149820D01*
X109752311Y-67252144D01*
X109922471Y-67322626D01*
X110103111Y-67358558D01*
X110287289Y-67358558D01*
X110467929Y-67322626D01*
X110638089Y-67252144D01*
X110791228Y-67149820D01*
X110802465Y-67138583D01*
X110804414Y-67143289D01*
X110906738Y-67296428D01*
X111036972Y-67426662D01*
X111190111Y-67528986D01*
X111360271Y-67599468D01*
X111540911Y-67635400D01*
X111725089Y-67635400D01*
X111905729Y-67599468D01*
X112075889Y-67528986D01*
X112229028Y-67426662D01*
X112359262Y-67296428D01*
X112461586Y-67143289D01*
X112532068Y-66973129D01*
X112568000Y-66792489D01*
X112568000Y-66608311D01*
X112532068Y-66427671D01*
X112461586Y-66257511D01*
X112359262Y-66104372D01*
X112229028Y-65974138D01*
X112075889Y-65871814D01*
X111905729Y-65801332D01*
X111725089Y-65765400D01*
X111540911Y-65765400D01*
X111360271Y-65801332D01*
X111190111Y-65871814D01*
X111036972Y-65974138D01*
X111025735Y-65985375D01*
X111023786Y-65980669D01*
X110921462Y-65827530D01*
X110791228Y-65697296D01*
X110638089Y-65594972D01*
X110467929Y-65524490D01*
X110287289Y-65488558D01*
X110103111Y-65488558D01*
X109922471Y-65524490D01*
X109752311Y-65594972D01*
X109599172Y-65697296D01*
X109468938Y-65827530D01*
X109366614Y-65980669D01*
X109296132Y-66150829D01*
X109260200Y-66331469D01*
X108988602Y-66331469D01*
X108955662Y-66282172D01*
X108825428Y-66151938D01*
X108672289Y-66049614D01*
X108502129Y-65979132D01*
X108321489Y-65943200D01*
X108276890Y-65943200D01*
X108320662Y-65899428D01*
X108422986Y-65746289D01*
X108493468Y-65576129D01*
X108529400Y-65395489D01*
X108529400Y-65211311D01*
X108493468Y-65030671D01*
X108422986Y-64860511D01*
X108320662Y-64707372D01*
X108190428Y-64577138D01*
X108037289Y-64474814D01*
X108037041Y-64474711D01*
X108843800Y-64474711D01*
X108843800Y-64658889D01*
X108879732Y-64839529D01*
X108950214Y-65009689D01*
X109052538Y-65162828D01*
X109182772Y-65293062D01*
X109335911Y-65395386D01*
X109506071Y-65465868D01*
X109686711Y-65501800D01*
X109870889Y-65501800D01*
X110051529Y-65465868D01*
X110221689Y-65395386D01*
X110374828Y-65293062D01*
X110505062Y-65162828D01*
X110607386Y-65009689D01*
X110677868Y-64839529D01*
X110713800Y-64658889D01*
X110713800Y-64474711D01*
X110677868Y-64294071D01*
X110607386Y-64123911D01*
X110505062Y-63970772D01*
X110374828Y-63840538D01*
X110221689Y-63738214D01*
X110051529Y-63667732D01*
X109870889Y-63631800D01*
X109686711Y-63631800D01*
X109506071Y-63667732D01*
X109335911Y-63738214D01*
X109182772Y-63840538D01*
X109052538Y-63970772D01*
X108950214Y-64123911D01*
X108879732Y-64294071D01*
X108843800Y-64474711D01*
X108037041Y-64474711D01*
X107867129Y-64404332D01*
X107686489Y-64368400D01*
X107502311Y-64368400D01*
X107321671Y-64404332D01*
X107151511Y-64474814D01*
X106998372Y-64577138D01*
X106868138Y-64707372D01*
X106765814Y-64860511D01*
X106695332Y-65030671D01*
X106659400Y-65211311D01*
X106659400Y-65395489D01*
X106695332Y-65576129D01*
X106765814Y-65746289D01*
X106868138Y-65899428D01*
X106998372Y-66029662D01*
X107151511Y-66131986D01*
X107321671Y-66202468D01*
X107502311Y-66238400D01*
X107546910Y-66238400D01*
X107503138Y-66282172D01*
X107400814Y-66435311D01*
X107330332Y-66605471D01*
X107294400Y-66786111D01*
X107294400Y-66970289D01*
X107330332Y-67150929D01*
X107400814Y-67321089D01*
X107503138Y-67474228D01*
X107633372Y-67604462D01*
X107661552Y-67623292D01*
X107499471Y-67655532D01*
X107329311Y-67726014D01*
X107176172Y-67828338D01*
X107045938Y-67958572D01*
X106943614Y-68111711D01*
X106873132Y-68281871D01*
X106837200Y-68462511D01*
X106837200Y-68646689D01*
X106873132Y-68827329D01*
X106943614Y-68997489D01*
X107045938Y-69150628D01*
X107176172Y-69280862D01*
X107329311Y-69383186D01*
X107392465Y-69409345D01*
X107270871Y-69433532D01*
X107100711Y-69504014D01*
X106947572Y-69606338D01*
X106817338Y-69736572D01*
X106715014Y-69889711D01*
X106644532Y-70059871D01*
X106608600Y-70240511D01*
X105297866Y-70240511D01*
X105146489Y-70210400D01*
X104962311Y-70210400D01*
X104781671Y-70246332D01*
X104611511Y-70316814D01*
X104458372Y-70419138D01*
X104328138Y-70549372D01*
X104266112Y-70642200D01*
X104225711Y-70642200D01*
X104045071Y-70678132D01*
X103874911Y-70748614D01*
X103721772Y-70850938D01*
X103591538Y-70981172D01*
X103489214Y-71134311D01*
X103418732Y-71304471D01*
X103382800Y-71485111D01*
X96921738Y-71485111D01*
X96911068Y-71431471D01*
X96840586Y-71261311D01*
X96738262Y-71108172D01*
X96608028Y-70977938D01*
X96454889Y-70875614D01*
X96284729Y-70805132D01*
X96104089Y-70769200D01*
X95919911Y-70769200D01*
X95739271Y-70805132D01*
X95569111Y-70875614D01*
X95415972Y-70977938D01*
X95285738Y-71108172D01*
X95183414Y-71261311D01*
X95112932Y-71431471D01*
X95077000Y-71612111D01*
X91300541Y-71612111D01*
X91288316Y-71582599D01*
X91139481Y-71359851D01*
X90950049Y-71170419D01*
X90727301Y-71021584D01*
X90479797Y-70919064D01*
X90217048Y-70866800D01*
X89949152Y-70866800D01*
X89686403Y-70919064D01*
X89438899Y-71021584D01*
X89216151Y-71170419D01*
X89026719Y-71359851D01*
X88947217Y-71478835D01*
X88950230Y-71468902D01*
X88974075Y-71226800D01*
X88950230Y-70984698D01*
X88879611Y-70751899D01*
X88764933Y-70537351D01*
X88610602Y-70349298D01*
X88422549Y-70194967D01*
X88208001Y-70080289D01*
X87975202Y-70009670D01*
X87793765Y-69991800D01*
X86972435Y-69991800D01*
X86790998Y-70009670D01*
X86613600Y-70063483D01*
X86613600Y-68069159D01*
X86768813Y-68301452D01*
X86996548Y-68529187D01*
X87264337Y-68708118D01*
X87561888Y-68831368D01*
X87877767Y-68894200D01*
X88199833Y-68894200D01*
X88515712Y-68831368D01*
X88813263Y-68708118D01*
X89081052Y-68529187D01*
X89308787Y-68301452D01*
X89487718Y-68033663D01*
X89610968Y-67736112D01*
X89673800Y-67420233D01*
X89673800Y-67098167D01*
X92903800Y-67098167D01*
X92903800Y-67420233D01*
X92966632Y-67736112D01*
X93089882Y-68033663D01*
X93268813Y-68301452D01*
X93496548Y-68529187D01*
X93764337Y-68708118D01*
X93868289Y-68751176D01*
X93786414Y-68873711D01*
X93715932Y-69043871D01*
X93680000Y-69224511D01*
X93680000Y-69408689D01*
X93715932Y-69589329D01*
X93786414Y-69759489D01*
X93888738Y-69912628D01*
X94018972Y-70042862D01*
X94172111Y-70145186D01*
X94342271Y-70215668D01*
X94522911Y-70251600D01*
X94707089Y-70251600D01*
X94887729Y-70215668D01*
X95057889Y-70145186D01*
X95211028Y-70042862D01*
X95341262Y-69912628D01*
X95443586Y-69759489D01*
X95496844Y-69630911D01*
X101427000Y-69630911D01*
X101427000Y-69815089D01*
X101462932Y-69995729D01*
X101533414Y-70165889D01*
X101635738Y-70319028D01*
X101765972Y-70449262D01*
X101919111Y-70551586D01*
X102089271Y-70622068D01*
X102269911Y-70658000D01*
X102454089Y-70658000D01*
X102634729Y-70622068D01*
X102804889Y-70551586D01*
X102958028Y-70449262D01*
X103088262Y-70319028D01*
X103190586Y-70165889D01*
X103261068Y-69995729D01*
X103297000Y-69815089D01*
X103297000Y-69630911D01*
X103261068Y-69450271D01*
X103190586Y-69280111D01*
X103088262Y-69126972D01*
X102958028Y-68996738D01*
X102804889Y-68894414D01*
X102634729Y-68823932D01*
X102454089Y-68788000D01*
X102269911Y-68788000D01*
X102089271Y-68823932D01*
X101919111Y-68894414D01*
X101765972Y-68996738D01*
X101635738Y-69126972D01*
X101533414Y-69280111D01*
X101462932Y-69450271D01*
X101427000Y-69630911D01*
X95496844Y-69630911D01*
X95514068Y-69589329D01*
X95550000Y-69408689D01*
X95550000Y-69224511D01*
X95514068Y-69043871D01*
X95443586Y-68873711D01*
X95341262Y-68720572D01*
X95322582Y-68701892D01*
X95581052Y-68529187D01*
X95808787Y-68301452D01*
X95987718Y-68033663D01*
X96110968Y-67736112D01*
X96143311Y-67573511D01*
X103560600Y-67573511D01*
X103560600Y-67757689D01*
X103596532Y-67938329D01*
X103667014Y-68108489D01*
X103769338Y-68261628D01*
X103899572Y-68391862D01*
X104052711Y-68494186D01*
X104222871Y-68564668D01*
X104403511Y-68600600D01*
X104587689Y-68600600D01*
X104768329Y-68564668D01*
X104938489Y-68494186D01*
X105091628Y-68391862D01*
X105221862Y-68261628D01*
X105324186Y-68108489D01*
X105394668Y-67938329D01*
X105430600Y-67757689D01*
X105430600Y-67573511D01*
X105394668Y-67392871D01*
X105324186Y-67222711D01*
X105221862Y-67069572D01*
X105091628Y-66939338D01*
X104938489Y-66837014D01*
X104768329Y-66766532D01*
X104587689Y-66730600D01*
X104403511Y-66730600D01*
X104222871Y-66766532D01*
X104052711Y-66837014D01*
X103899572Y-66939338D01*
X103769338Y-67069572D01*
X103667014Y-67222711D01*
X103596532Y-67392871D01*
X103560600Y-67573511D01*
X96143311Y-67573511D01*
X96173800Y-67420233D01*
X96173800Y-67098167D01*
X96110968Y-66782288D01*
X95987718Y-66484737D01*
X95808787Y-66216948D01*
X95581052Y-65989213D01*
X95313263Y-65810282D01*
X95015712Y-65687032D01*
X94699833Y-65624200D01*
X94377767Y-65624200D01*
X94061888Y-65687032D01*
X93764337Y-65810282D01*
X93496548Y-65989213D01*
X93268813Y-66216948D01*
X93089882Y-66484737D01*
X92966632Y-66782288D01*
X92903800Y-67098167D01*
X89673800Y-67098167D01*
X89610968Y-66782288D01*
X89487718Y-66484737D01*
X89308787Y-66216948D01*
X89081052Y-65989213D01*
X88813263Y-65810282D01*
X88515712Y-65687032D01*
X88199833Y-65624200D01*
X87877767Y-65624200D01*
X87561888Y-65687032D01*
X87264337Y-65810282D01*
X86996548Y-65989213D01*
X86768813Y-66216948D01*
X86613600Y-66449241D01*
X86613600Y-63569159D01*
X86768813Y-63801452D01*
X86996548Y-64029187D01*
X87264337Y-64208118D01*
X87561888Y-64331368D01*
X87877767Y-64394200D01*
X88199833Y-64394200D01*
X88515712Y-64331368D01*
X88536513Y-64322752D01*
X88554738Y-64350028D01*
X88684972Y-64480262D01*
X88838111Y-64582586D01*
X89008271Y-64653068D01*
X89188911Y-64689000D01*
X89373089Y-64689000D01*
X89553729Y-64653068D01*
X89723889Y-64582586D01*
X89877028Y-64480262D01*
X89888200Y-64469090D01*
X90240848Y-64469090D01*
X90240848Y-64715310D01*
X90288883Y-64956798D01*
X90383107Y-65184274D01*
X90519899Y-65388998D01*
X90694002Y-65563101D01*
X90898726Y-65699893D01*
X91126202Y-65794117D01*
X91367690Y-65842152D01*
X91613910Y-65842152D01*
X91855398Y-65794117D01*
X92082874Y-65699893D01*
X92287598Y-65563101D01*
X92461701Y-65388998D01*
X92598493Y-65184274D01*
X92692504Y-64957311D01*
X102138200Y-64957311D01*
X102138200Y-65141489D01*
X102174132Y-65322129D01*
X102244614Y-65492289D01*
X102346938Y-65645428D01*
X102477172Y-65775662D01*
X102630311Y-65877986D01*
X102800471Y-65948468D01*
X102981111Y-65984400D01*
X103165289Y-65984400D01*
X103345929Y-65948468D01*
X103516089Y-65877986D01*
X103669228Y-65775662D01*
X103799462Y-65645428D01*
X103901786Y-65492289D01*
X103972268Y-65322129D01*
X104008200Y-65141489D01*
X104008200Y-64957311D01*
X103972268Y-64776671D01*
X103901786Y-64606511D01*
X103799462Y-64453372D01*
X103669228Y-64323138D01*
X103516089Y-64220814D01*
X103345929Y-64150332D01*
X103165289Y-64114400D01*
X102981111Y-64114400D01*
X102800471Y-64150332D01*
X102630311Y-64220814D01*
X102477172Y-64323138D01*
X102346938Y-64453372D01*
X102244614Y-64606511D01*
X102174132Y-64776671D01*
X102138200Y-64957311D01*
X92692504Y-64957311D01*
X92692717Y-64956798D01*
X92740752Y-64715310D01*
X92740752Y-64469090D01*
X92692717Y-64227602D01*
X92598493Y-64000126D01*
X92461701Y-63795402D01*
X92287598Y-63621299D01*
X92082874Y-63484507D01*
X91855398Y-63390283D01*
X91613910Y-63342248D01*
X91367690Y-63342248D01*
X91126202Y-63390283D01*
X90898726Y-63484507D01*
X90694002Y-63621299D01*
X90519899Y-63795402D01*
X90383107Y-64000126D01*
X90288883Y-64227602D01*
X90240848Y-64469090D01*
X89888200Y-64469090D01*
X90007262Y-64350028D01*
X90109586Y-64196889D01*
X90180068Y-64026729D01*
X90216000Y-63846089D01*
X90216000Y-63661911D01*
X90180068Y-63481271D01*
X90109586Y-63311111D01*
X90007262Y-63157972D01*
X89877028Y-63027738D01*
X89723889Y-62925414D01*
X89673800Y-62904667D01*
X89673800Y-62598167D01*
X89610968Y-62282288D01*
X89487718Y-61984737D01*
X89308787Y-61716948D01*
X89081052Y-61489213D01*
X88813263Y-61310282D01*
X88515712Y-61187032D01*
X88199833Y-61124200D01*
X87877767Y-61124200D01*
X87561888Y-61187032D01*
X87264337Y-61310282D01*
X86996548Y-61489213D01*
X86768813Y-61716948D01*
X86620384Y-61939087D01*
X86633159Y-61808800D01*
X86681720Y-61647959D01*
X86760592Y-61499622D01*
X86866776Y-61369426D01*
X86996226Y-61262336D01*
X87144014Y-61182428D01*
X87304502Y-61132748D01*
X87501781Y-61112013D01*
X94669302Y-61116067D01*
G37*
%TD.AperFunction*%
%TD*%
M02*
