M48
; DRILL file {KiCad (5.1.10)-1} date 07/16/21 14:19:10
; FORMAT={3:3/ absolute / metric / suppress leading zeros}
; #@! TF.CreationDate,2021-07-16T14:19:10-05:00
; #@! TF.GenerationSoftware,Kicad,Pcbnew,(5.1.10)-1
FMAT,2
METRIC,TZ
T1C0.300
T2C0.600
T3C0.650
T4C0.850
T5C1.000
T6C1.100
T7C1.500
T8C1.700
%
G90
G05
T1
X89281Y-63754
X91389Y-75895
X91669Y-78842
X92329Y-79324
X93320Y-75641
X94615Y-69317
X95504Y-61544
X96012Y-71704
X96012Y-73381
X99136Y-73381
X99771Y-65024
X100203Y-76175
X100762Y-66904
X101803Y-65075
X101981Y-66751
X102362Y-69723
X102743Y-75540
X103073Y-65049
X103734Y-76784
X103784Y-67132
X104318Y-71577
X104496Y-67666
X105054Y-71145
X105064Y-72303
X105486Y-78994
X105943Y-75209
X107086Y-63094
X107188Y-74803
X107544Y-70333
X107594Y-65303
X107772Y-68555
X108229Y-66878
X108280Y-74778
X109550Y-79477
X109779Y-64567
X110084Y-61316
X110195Y-66424
X110668Y-74600
X111633Y-66700
X111887Y-74651
X113589Y-69037
X113690Y-74244
X113741Y-71044
X113741Y-72974
X114097Y-67335
X114732Y-75641
X115316Y-75413
X116205Y-74397
X116611Y-65735
X116916Y-66472
X117729Y-61366
X117780Y-62509
X118085Y-63957
X118923Y-78842
X119405Y-67869
X120066Y-69266
X120548Y-78029
X121666Y-61595
X121666Y-63525
X121666Y-65405
X121666Y-67259
X121666Y-69367
X121869Y-73787
X121869Y-75667
X121869Y-77521
X121869Y-79629
X123647Y-61595
X123850Y-79629
X124003Y-74727
X124689Y-72593
X124892Y-67564
X125730Y-61595
X125933Y-79629
X127025Y-65126
X127051Y-74498
X127711Y-61595
X127914Y-79629
X129692Y-61595
X129896Y-79629
X131775Y-61595
X131978Y-79629
X132131Y-65202
X132182Y-74473
X133096Y-76352
X133096Y-78334
X133147Y-62636
X133147Y-64618
T3
X107036Y-76784
X107036Y-78054
X108306Y-76784
X108306Y-78054
X109576Y-76784
X109576Y-78054
X110846Y-76784
X110846Y-78054
X112116Y-76784
X112116Y-78054
T4
X90083Y-72227
X90083Y-77227
T5
X97688Y-77826
X98019Y-62560
X100228Y-77826
X100559Y-62560
X102768Y-77826
X103099Y-62560
X105639Y-62560
T6
X88039Y-62759
X88039Y-67259
X94539Y-62759
X94539Y-67259
T7
X129591Y-69901
T8
X127051Y-67361
X127051Y-72441
X132131Y-67361
X132131Y-72441
T2
G00X87033Y-71227
M15
G01X87733Y-71227
M16
G05
G00X87733Y-78227
M15
G01X87033Y-78227
M16
G05
T0
M30
